<?xml version="1.0" encoding="UTF-8" standalone="no"?>
<svg
   width="48"
   height="48"
   viewBox="0 0 48 48"
   fill="none"
   version="1.1"
   id="svg4"
   xmlns="http://www.w3.org/2000/svg"
   xmlns:svg="http://www.w3.org/2000/svg">
  <defs
     id="defs8" />
  <path
     fill-rule="evenodd"
     clip-rule="evenodd"
     d="m 13.416616,2.043796 c -2.802037,0 -5.0735494,2.2715147 -5.0735494,5.0735541 V 40.941045 c 0,2.802124 2.2715124,5.073554 5.0735494,5.073554 h 21.985401 c 2.802124,0 5.073554,-2.27143 5.073554,-5.073554 V 7.1173501 c 0,-2.8020394 -2.27143,-5.0735541 -5.073554,-5.0735541 z m 1.691185,5.0735541 c -0.934042,0 -1.691185,0.7571773 -1.691185,1.6911847 v 5.0735542 c 0,0.934042 0.757143,1.691185 1.691185,1.691185 h 18.603032 c 0.934041,0 1.691184,-0.757143 1.691184,-1.691185 V 8.8085348 c 0,-0.9340074 -0.757143,-1.6911847 -1.691184,-1.6911847 z M 13.416616,20.646828 c 0,-0.934041 0.757143,-1.691185 1.691185,-1.691185 h 1.691184 c 0.934042,0 1.691185,0.757144 1.691185,1.691185 v 1.691185 c 0,0.934041 -0.757143,1.691184 -1.691185,1.691184 h -1.691184 c -0.934042,0 -1.691185,-0.757143 -1.691185,-1.691184 z m 10.147109,-1.691185 c -0.934042,0 -1.691185,0.757144 -1.691185,1.691185 v 1.691185 c 0,0.934041 0.757143,1.691184 1.691185,1.691184 h 1.691184 c 0.934042,0 1.691185,-0.757143 1.691185,-1.691184 v -1.691185 c 0,-0.934041 -0.757143,-1.691185 -1.691185,-1.691185 z m 6.764738,1.691185 c 0,-0.934041 0.757144,-1.691185 1.691185,-1.691185 h 1.691185 c 0.934041,0 1.691184,0.757144 1.691184,1.691185 v 1.691185 c 0,0.934041 -0.757143,1.691184 -1.691184,1.691184 h -1.691185 c -0.934041,0 -1.691185,-0.757143 -1.691185,-1.691184 z m -15.220662,6.764739 c -0.934042,0 -1.691185,0.757143 -1.691185,1.691184 v 1.691185 c 0,0.934041 0.757143,1.691184 1.691185,1.691184 h 1.691184 c 0.934042,0 1.691185,-0.757143 1.691185,-1.691184 v -1.691185 c 0,-0.934041 -0.757143,-1.691184 -1.691185,-1.691184 z m 6.764739,1.691184 c 0,-0.934041 0.757143,-1.691184 1.691185,-1.691184 h 1.691184 c 0.934042,0 1.691185,0.757143 1.691185,1.691184 v 1.691185 c 0,0.934041 -0.757143,1.691184 -1.691185,1.691184 h -1.691184 c -0.934042,0 -1.691185,-0.757143 -1.691185,-1.691184 z m -6.764739,6.76474 c -0.934042,0 -1.691185,0.757143 -1.691185,1.691184 v 1.691185 c 0,0.934041 0.757143,1.691185 1.691185,1.691185 h 1.691184 c 0.934042,0 1.691185,-0.757144 1.691185,-1.691185 v -1.691185 c 0,-0.934041 -0.757143,-1.691184 -1.691185,-1.691184 z m 6.764739,1.691184 c 0,-0.934041 0.757143,-1.691184 1.691185,-1.691184 h 1.691184 c 0.934042,0 1.691185,0.757143 1.691185,1.691184 v 1.691185 c 0,0.934041 -0.757143,1.691185 -1.691185,1.691185 h -1.691184 c -0.934042,0 -1.691185,-0.757144 -1.691185,-1.691185 z M 32.019648,27.411567 c -0.934041,0 -1.691185,0.757143 -1.691185,1.691184 V 39.24986 c 0,0.934041 0.757144,1.691185 1.691185,1.691185 h 1.691185 c 0.934041,0 1.691184,-0.757144 1.691184,-1.691185 V 29.102751 c 0,-0.934041 -0.757143,-1.691184 -1.691184,-1.691184 z"
     fill="#f2f2f2"
     id="path2"
     style="stroke-width:1.69119" />
</svg>
