<?xml version="1.0" encoding="UTF-8" standalone="no"?>
<svg
   width="48"
   height="48"
   viewBox="0 0 32 32"
   fill="none"
   version="1.1"
   id="svg12"
   xmlns="http://www.w3.org/2000/svg"
   xmlns:svg="http://www.w3.org/2000/svg">
  <defs
     id="defs16" />
  <path
     d="m 1.3625304,11.826208 c 0,-2.3143373 1.8761391,-4.1904764 4.1904762,-4.1904764 H 26.505388 c 2.314295,0 4.190476,1.8761391 4.190476,4.1904764 v 8.380952 c 0,2.314296 -1.876181,4.190477 -4.190476,4.190477 H 5.5530066 c -2.3143371,0 -4.1904762,-1.876181 -4.1904762,-4.190477 z"
     fill="#f2f2f2"
     id="path2"
     style="stroke-width:1.04762" />
  <rect
     x="16.029198"
     y="14.969066"
     width="3.1428571"
     height="3.1428571"
     rx="1.5714285"
     fill="#4d4d4d"
     id="rect4"
     style="stroke-width:1.04762" />
  <rect
     x="20.219675"
     y="14.969066"
     width="3.1428571"
     height="3.1428571"
     rx="1.5714285"
     fill="#4d4d4d"
     id="rect6"
     style="stroke-width:1.04762" />
  <rect
     x="24.410151"
     y="14.969066"
     width="3.1428571"
     height="3.1428571"
     rx="1.5714285"
     fill="#4d4d4d"
     id="rect8"
     style="stroke-width:1.04762" />
  <path
     d="m 6.4924905,11.503855 2.2033837,6.546049 2.1916088,-6.546049 h 2.321209 v 9.025657 h -1.773304 v -2.467143 l 0.176733,-4.258676 -2.3153219,6.725819 H 8.0831743 l -2.3094344,-6.719637 0.1767438,4.252494 v 2.467143 H 4.1830561 v -9.025657 z"
     fill="#4d4d4d"
     id="path10"
     style="stroke-width:1.04762" />
</svg>
