<?xml version="1.0" encoding="UTF-8" standalone="no"?>
<svg
   width="48"
   height="48"
   viewBox="0 0 32 32"
   fill="none"
   version="1.1"
   id="svg4"
   xmlns="http://www.w3.org/2000/svg"
   xmlns:svg="http://www.w3.org/2000/svg">
  <defs
     id="defs8" />
  <path
     fill-rule="evenodd"
     clip-rule="evenodd"
     d="m 22.468514,6.0479799 c 0,1.0798994 -0.486611,2.0461431 -1.252523,2.6914233 -0.03682,0.036806 -0.07774,0.072417 -0.119835,0.1091176 l -1.18e-4,1.17e-5 v 1.18e-5 c -0.181629,0.1581423 -0.386357,0.336441 -0.386357,0.7170992 0,0.5862765 0.586278,1.1725535 1.172555,1.1725535 h 7.621605 c 0.647601,0 1.172555,0.524953 1.172555,1.172555 v 5.276496 c 0,0.586277 -0.586278,1.172554 -1.172555,1.172554 -0.380612,0 -0.558957,-0.204729 -0.717135,-0.386356 -0.03671,-0.04221 -0.07234,-0.08314 -0.109161,-0.119953 -0.645257,-0.765914 -1.611442,-1.252524 -2.691365,-1.252524 -1.942805,0 -3.517662,1.574859 -3.517662,3.517665 0,1.942807 1.574857,3.517664 3.517662,3.517664 1.093056,0 2.069793,-0.49857 2.714934,-1.280782 0.03671,-0.03658 0.07129,-0.07633 0.106467,-0.116669 0.152433,-0.174828 0.315183,-0.361381 0.696263,-0.361381 0.586278,0 1.172555,0.586277 1.172555,1.172555 v 5.276495 c 1e-6,0.647602 -0.524952,1.172555 -1.172554,1.172555 H 10.742967 c -0.647578,0 -1.1725543,-0.524953 -1.1725543,-1.172555 v -5.276495 c 0,-0.586278 -0.5862773,-1.172555 -1.1725546,-1.172555 -0.3810803,0 -0.5438074,0.186553 -0.6962512,0.361381 h -2.34e-5 c -0.035177,0.04035 -0.069803,0.08008 -0.1064331,0.116669 -0.6451864,0.782212 -1.6218424,1.280782 -2.7149563,1.280782 -1.9427472,0 -3.5176639,-1.574857 -3.5176639,-3.517664 0,-1.942806 1.5749167,-3.517665 3.5176639,-3.517665 1.0798992,0 2.0461429,0.48661 2.6914231,1.252524 0.036818,0.03682 0.07244,0.07774 0.109141,0.119953 0.1581423,0.181627 0.3364411,0.386356 0.7170992,0.386356 0.5862773,0 1.1725546,-0.586277 1.1725546,-1.172554 v -5.276496 c 0,-0.647602 0.524976,-1.172555 1.172555,-1.172555 h 5.276495 c 0.586278,0 1.172554,-0.586278 1.172554,-1.1725536 0,-0.3810803 -0.186553,-0.5438075 -0.361381,-0.6962513 v -2.35e-5 c -0.04035,-0.035166 -0.08009,-0.069803 -0.116669,-0.106432 -0.782211,-0.6451864 -1.280782,-1.6218424 -1.280782,-2.7149564 0,-1.9427471 1.574858,-3.5176638 3.517664,-3.5176638 1.942807,0 3.517665,1.5749167 3.517666,3.5176635 z"
     fill="#f2f2f2"
     id="path2"
     style="stroke-width:1.17256" />
</svg>
