<?xml version="1.0" encoding="UTF-8" standalone="no"?>
<svg
   width="48"
   height="48"
   viewBox="0 0 32 32"
   fill="none"
   version="1.1"
   id="svg336"
   xmlns="http://www.w3.org/2000/svg"
   xmlns:svg="http://www.w3.org/2000/svg">
  <defs
     id="defs340" />
  <path
     fill-rule="evenodd"
     clip-rule="evenodd"
     d="m 21.629796,4.4991307 c 0,-2.0910671 -2.814898,-3.1366007 -6.755755,-3.1366007 -3.940857,0 -6.7557554,1.0455336 -6.7557554,3.1366007 V 7.6357313 H 14.874041 V 8.6812649 H 5.8663672 c -2.2519184,0 -4.5038368,2.0910671 -4.5038368,6.2732011 0,4.182134 2.2519184,6.273202 4.5038368,6.273202 H 8.1182856 V 19.1366 c 0,-2.309688 2.0164804,-4.182134 4.5038364,-4.182134 h 6.755755 c 1.243735,0 2.251919,-0.934498 2.251919,-2.089394 z m -9.007674,0 c 0,0.5774272 -0.504091,1.0455335 -1.125959,1.0455335 -0.621866,0 -1.125959,-0.4681063 -1.125959,-1.0455335 0,-0.5774273 0.504093,-1.0455336 1.125959,-1.0455336 0.621868,0 1.125959,0.4681063 1.125959,1.0455336 z M 10.370204,27.500869 c 0,2.091067 2.814898,3.136601 6.755756,3.136601 3.940856,0 6.755754,-1.045534 6.755754,-3.136601 V 24.364268 H 17.12596 v -1.045534 h 9.007673 c 2.251918,0 4.503837,-2.091066 4.503837,-6.2732 0,-4.182135 -2.251919,-6.273202 -4.503837,-6.273202 h -2.251919 v 2.091067 c 0,2.309689 -2.016481,4.182135 -4.503837,4.182135 h -6.755755 c -1.243734,0 -2.251918,0.934498 -2.251918,2.089394 z m 11.259592,0 c 0,0.577448 -0.504092,1.045533 -1.125959,1.045533 -0.621867,0 -1.12596,-0.468085 -1.12596,-1.045533 0,-0.577448 0.504093,-1.045533 1.12596,-1.045533 0.621867,0 1.125959,0.468085 1.125959,1.045533 z"
     fill="#f2f2f2"
     id="path334"
     style="stroke-width:1.08501" />
</svg>
