<?xml version="1.0" encoding="UTF-8" standalone="no"?>
<svg
   width="48"
   height="48"
   viewBox="0 0 32 32"
   fill="none"
   version="1.1"
   id="svg4"
   xmlns="http://www.w3.org/2000/svg"
   xmlns:svg="http://www.w3.org/2000/svg">
  <defs
     id="defs8" />
  <path
     fill-rule="evenodd"
     clip-rule="evenodd"
     d="m 27.742676,10.63302 h 2.933723 V 4.7655798 c 0,-1.0801673 -0.875619,-1.9558151 -1.955815,-1.9558151 h -5.867445 v 2.9337227 h 3.91163 c 0.540098,0 0.977907,0.4378288 0.977907,0.9779075 z m -4.889537,18.580244 h 5.867445 c 1.080196,0 1.955815,-0.875618 1.955815,-1.955815 v -5.867445 h -2.933723 v 3.91163 c 0,0.540098 -0.437809,0.977907 -0.977907,0.977907 h -3.91163 z M 1.3391725,27.257449 v -5.867445 h 2.9337227 v 3.91163 c 0,0.540098 0.4378287,0.977907 0.9779075,0.977907 h 3.9116302 v 2.933723 H 3.2949876 c -1.0801673,0 -1.9558151,-0.875618 -1.9558151,-1.955815 z M 9.1624329,2.8097647 H 3.2949876 c -1.0801673,0 -1.9558151,0.8756478 -1.9558151,1.9558151 V 10.63302 H 4.2728952 V 6.7213949 c 0,-0.5400787 0.4378287,-0.9779075 0.9779075,-0.9779075 H 9.1624329 Z M 7.2066178,12.588836 c 0,-1.080197 0.8756478,-1.955816 1.9558151,-1.955816 h 2.2917261 c 0.389794,0 0.74233,-0.23147 0.89723,-0.589091 l 0.760813,-1.7555448 c 0.1549,-0.3576305 0.507436,-0.5890817 0.89723,-0.5890817 h 3.996708 c 0.389696,0 0.74233,0.2314512 0.89723,0.5890817 l 0.760812,1.7555448 c 0.1549,0.357621 0.507436,0.589091 0.89723,0.589091 h 2.291727 c 1.080197,0 1.955815,0.875619 1.955815,1.955816 v 7.82326 c 0,1.080196 -0.875618,1.955815 -1.955815,1.955815 H 9.1624329 c -1.0801673,0 -1.9558151,-0.875619 -1.9558151,-1.955815 z m 11.7348902,3.91163 c 0,1.620295 -1.313427,2.933722 -2.933722,2.933722 -1.620295,0 -2.933723,-1.313427 -2.933723,-2.933722 0,-1.620295 1.313428,-2.933723 2.933723,-2.933723 1.620295,0 2.933722,1.313428 2.933722,2.933723 z"
     fill="#f2f2f2"
     id="path2"
     style="stroke-width:0.977907" />
</svg>
