<?xml version="1.0" encoding="UTF-8" standalone="no"?>
<svg
   width="48"
   height="48"
   viewBox="0 0 32 32"
   fill="none"
   version="1.1"
   id="svg38"
   sodipodi:docname="DrawStylePoints.svg"
   inkscape:version="1.2.2 (b0a8486541, 2022-12-01)"
   xmlns:inkscape="http://www.inkscape.org/namespaces/inkscape"
   xmlns:sodipodi="http://sodipodi.sourceforge.net/DTD/sodipodi-0.dtd"
   xmlns="http://www.w3.org/2000/svg"
   xmlns:svg="http://www.w3.org/2000/svg">
  <defs
     id="defs42" />
  <sodipodi:namedview
     id="namedview40"
     pagecolor="#505050"
     bordercolor="#ffffff"
     borderopacity="1"
     inkscape:showpageshadow="0"
     inkscape:pageopacity="0"
     inkscape:pagecheckerboard="1"
     inkscape:deskcolor="#505050"
     showgrid="false"
     inkscape:zoom="12.109204"
     inkscape:cx="35.964379"
     inkscape:cy="32.083034"
     inkscape:window-width="2560"
     inkscape:window-height="1369"
     inkscape:window-x="0"
     inkscape:window-y="0"
     inkscape:window-maximized="1"
     inkscape:current-layer="svg38"
     showguides="true">
    <sodipodi:guide
       position="4.9245742,30.656934"
       orientation="0,-1"
       id="guide4058"
       inkscape:locked="false" />
    <sodipodi:guide
       position="1.2846715,29.722628"
       orientation="1,0"
       id="guide4060"
       inkscape:locked="false" />
    <sodipodi:guide
       position="3.9318735,1.323601"
       orientation="0,-1"
       id="guide4062"
       inkscape:locked="false" />
    <sodipodi:guide
       position="16.075926,42.680581"
       orientation="1,0"
       id="guide4064"
       inkscape:locked="false" />
  </sodipodi:namedview>
  <g
     opacity="0.15"
     id="g4"
     style="opacity:0.25"
     transform="matrix(1.0114942,0,0,1.0114942,-0.62820787,-0.6799224)">
    <path
       fill-rule="evenodd"
       clip-rule="evenodd"
       d="M 6.20711,5.5 H 21.5 v 5 H 11.2071 Z M 22,4.5 v 0.50001 l 0.3536,-0.35356 6,5.99995 L 28,11 h 0.5 V 28 H 28 v 0.5 H 11 V 28 l -0.3535,0.3536 -6.00005,-6 L 5.00001,22 H 4.5 V 5 H 5 V 4.5 Z m -10.5,23 h 15.2929 l -5,-5 H 11.5 Z m 11,-17 V 6.2071 L 26.7929,10.5 Z m -11,1 h 10 v 10 h -10 z m 16,15.2929 -5,-5 V 11.5 h 5 z M 10.5,21.5 V 11.2071 l -5,-5 V 21.5 Z M 6.20712,22.5 10.5,26.7929 V 22.5 Z"
       fill="#f2f2f2"
       id="path2" />
  </g>
  <path
     d="m 1.3947805,4.3775486 c 0,-1.6758942 1.3585884,-3.0344826 3.0344826,-3.0344826 1.6758942,0 3.0344826,1.3585884 3.0344826,3.0344826 0,1.6758942 -1.3585884,3.0344826 -3.0344826,3.0344826 -1.6758942,0 -3.0344826,-1.3585884 -3.0344826,-3.0344826 z"
     id="path6"
     style="stroke-width:1.01149;fill:#343a40" />
  <path
     fill-rule="evenodd"
     clip-rule="evenodd"
     d="m 2.9120218,4.3775486 c 0,0.8379522 0.6792892,1.5172413 1.5172413,1.5172413 0.8379522,0 1.5172413,-0.6792891 1.5172413,-1.5172413 0,-0.8379521 -0.6792891,-1.5172413 -1.5172413,-1.5172413 -0.8379521,0 -1.5172413,0.6792892 -1.5172413,1.5172413 z M 4.4292631,1.343066 c -1.6758942,0 -3.0344826,1.3585884 -3.0344826,3.0344826 0,1.6758942 1.3585884,3.0344826 3.0344826,3.0344826 1.6758942,0 3.0344826,-1.3585884 3.0344826,-3.0344826 0,-1.6758942 -1.3585884,-3.0344826 -3.0344826,-3.0344826 z"
     fill="#f2f2f2"
     id="path8"
     style="stroke-width:1.01149" />
  <path
     d="m 1.3947805,21.572951 c 0,-1.675945 1.3585884,-3.034482 3.0344826,-3.034482 1.6758942,0 3.0344826,1.358537 3.0344826,3.034482 0,1.675945 -1.3585884,3.034483 -3.0344826,3.034483 -1.6758942,0 -3.0344826,-1.358538 -3.0344826,-3.034483 z"
     id="path10"
     style="stroke-width:1.01149;fill:#343a40" />
  <path
     fill-rule="evenodd"
     clip-rule="evenodd"
     d="m 2.9120218,21.572951 c 0,0.837921 0.6792892,1.517241 1.5172413,1.517241 0.8379522,0 1.5172413,-0.67932 1.5172413,-1.517241 0,-0.837922 -0.6792891,-1.517241 -1.5172413,-1.517241 -0.8379521,0 -1.5172413,0.679319 -1.5172413,1.517241 z m 1.5172413,-3.034482 c -1.6758942,0 -3.0344826,1.358537 -3.0344826,3.034482 0,1.675945 1.3585884,3.034483 3.0344826,3.034483 1.6758942,0 3.0344826,-1.358538 3.0344826,-3.034483 0,-1.675945 -1.3585884,-3.034482 -3.0344826,-3.034482 z"
     fill="#f2f2f2"
     id="path12"
     style="stroke-width:1.01149" />
  <path
     d="m 7.4637457,27.641916 c 0,-1.675944 1.3585887,-3.034482 3.0344843,-3.034482 1.675945,0 3.034482,1.358538 3.034482,3.034482 0,1.675945 -1.358537,3.034483 -3.034482,3.034483 -1.6758956,0 -3.0344843,-1.358538 -3.0344843,-3.034483 z"
     id="path14"
     style="stroke-width:1.01149;fill:#343a40" />
  <path
     fill-rule="evenodd"
     clip-rule="evenodd"
     d="m 8.9809873,27.641916 c 0,0.837921 0.6793195,1.517242 1.5172427,1.517242 0.837922,0 1.517241,-0.679321 1.517241,-1.517242 0,-0.837921 -0.679319,-1.517241 -1.517241,-1.517241 -0.8379232,0 -1.5172427,0.67932 -1.5172427,1.517241 z M 10.49823,24.607434 c -1.6758956,0 -3.0344843,1.358538 -3.0344843,3.034482 0,1.675945 1.3585887,3.034483 3.0344843,3.034483 1.675945,0 3.034482,-1.358538 3.034482,-3.034483 0,-1.675944 -1.358537,-3.034482 -3.034482,-3.034482 z"
     fill="#f2f2f2"
     id="path16"
     style="stroke-width:1.01149" />
  <path
     d="m 7.4637457,10.446515 c 0,-1.6758948 1.3585887,-3.0344838 3.0344843,-3.0344838 1.675945,0 3.034482,1.358589 3.034482,3.0344838 0,1.675945 -1.358537,3.034482 -3.034482,3.034482 -1.6758956,0 -3.0344843,-1.358537 -3.0344843,-3.034482 z"
     id="path18"
     style="stroke-width:1.01149;fill:#343a40" />
  <path
     fill-rule="evenodd"
     clip-rule="evenodd"
     d="m 8.9809873,10.446515 c 0,0.837922 0.6793195,1.517241 1.5172427,1.517241 0.837922,0 1.517241,-0.679319 1.517241,-1.517241 0,-0.8379224 -0.679319,-1.5172419 -1.517241,-1.5172419 -0.8379232,0 -1.5172427,0.6793195 -1.5172427,1.5172419 z M 10.49823,7.4120312 c -1.6758956,0 -3.0344843,1.358589 -3.0344843,3.0344838 0,1.675945 1.3585887,3.034482 3.0344843,3.034482 1.675945,0 3.034482,-1.358537 3.034482,-3.034482 0,-1.6758948 -1.358537,-3.0344838 -3.034482,-3.0344838 z"
     fill="#f2f2f2"
     id="path20"
     style="stroke-width:1.01149" />
  <path
     d="m 24.659149,10.446515 c 0,-1.6758948 1.358538,-3.0344838 3.034482,-3.0344838 1.675945,0 3.034483,1.358589 3.034483,3.0344838 0,1.675945 -1.358538,3.034482 -3.034483,3.034482 -1.675944,0 -3.034482,-1.358537 -3.034482,-3.034482 z"
     id="path22"
     style="stroke-width:1.01149;fill:#343a40" />
  <path
     fill-rule="evenodd"
     clip-rule="evenodd"
     d="m 26.17639,10.446515 c 0,0.837922 0.67932,1.517241 1.517241,1.517241 0.837922,0 1.517242,-0.679319 1.517242,-1.517241 0,-0.8379224 -0.67932,-1.5172419 -1.517242,-1.5172419 -0.837921,0 -1.517241,0.6793195 -1.517241,1.5172419 z m 1.517241,-3.0344838 c -1.675944,0 -3.034482,1.358589 -3.034482,3.0344838 0,1.675945 1.358538,3.034482 3.034482,3.034482 1.675945,0 3.034483,-1.358537 3.034483,-3.034482 0,-1.6758948 -1.358538,-3.0344838 -3.034483,-3.0344838 z"
     fill="#f2f2f2"
     id="path24"
     style="stroke-width:1.01149" />
  <path
     d="m 18.590184,4.3775486 c 0,-1.6758942 1.358537,-3.0344826 3.034482,-3.0344826 1.675945,0 3.034483,1.3585884 3.034483,3.0344826 0,1.6758942 -1.358538,3.0344826 -3.034483,3.0344826 -1.675945,0 -3.034482,-1.3585884 -3.034482,-3.0344826 z"
     id="path26"
     style="stroke-width:1.01149;fill:#343a40" />
  <path
     fill-rule="evenodd"
     clip-rule="evenodd"
     d="m 20.107425,4.3775486 c 0,0.8379522 0.679319,1.5172413 1.517241,1.5172413 0.837922,0 1.517241,-0.6792891 1.517241,-1.5172413 0,-0.8379521 -0.679319,-1.5172413 -1.517241,-1.5172413 -0.837922,0 -1.517241,0.6792892 -1.517241,1.5172413 z M 21.624666,1.343066 c -1.675945,0 -3.034482,1.3585884 -3.034482,3.0344826 0,1.6758942 1.358537,3.0344826 3.034482,3.0344826 1.675945,0 3.034483,-1.3585884 3.034483,-3.0344826 0,-1.6758942 -1.358538,-3.0344826 -3.034483,-3.0344826 z"
     fill="#f2f2f2"
     id="path28"
     style="stroke-width:1.01149" />
  <path
     d="m 18.590184,21.572951 c 0,-1.675945 1.358537,-3.034482 3.034482,-3.034482 1.675945,0 3.034483,1.358537 3.034483,3.034482 0,1.675945 -1.358538,3.034483 -3.034483,3.034483 -1.675945,0 -3.034482,-1.358538 -3.034482,-3.034483 z"
     id="path30"
     style="stroke-width:1.01149;fill:#343a40" />
  <path
     fill-rule="evenodd"
     clip-rule="evenodd"
     d="m 20.107425,21.572951 c 0,0.837921 0.679319,1.517241 1.517241,1.517241 0.837922,0 1.517241,-0.67932 1.517241,-1.517241 0,-0.837922 -0.679319,-1.517241 -1.517241,-1.517241 -0.837922,0 -1.517241,0.679319 -1.517241,1.517241 z m 1.517241,-3.034482 c -1.675945,0 -3.034482,1.358537 -3.034482,3.034482 0,1.675945 1.358537,3.034483 3.034482,3.034483 1.675945,0 3.034483,-1.358538 3.034483,-3.034483 0,-1.675945 -1.358538,-3.034482 -3.034483,-3.034482 z"
     fill="#f2f2f2"
     id="path32"
     style="stroke-width:1.01149" />
  <path
     d="m 24.659149,27.641916 c 0,-1.675944 1.358538,-3.034482 3.034482,-3.034482 1.675945,0 3.034483,1.358538 3.034483,3.034482 0,1.675945 -1.358538,3.034483 -3.034483,3.034483 -1.675944,0 -3.034482,-1.358538 -3.034482,-3.034483 z"
     id="path34"
     style="stroke-width:1.01149;fill:#343a40" />
  <path
     fill-rule="evenodd"
     clip-rule="evenodd"
     d="m 26.17639,27.641916 c 0,0.837921 0.67932,1.517242 1.517241,1.517242 0.837922,0 1.517242,-0.679321 1.517242,-1.517242 0,-0.837921 -0.67932,-1.517241 -1.517242,-1.517241 -0.837921,0 -1.517241,0.67932 -1.517241,1.517241 z m 1.517241,-3.034482 c -1.675944,0 -3.034482,1.358538 -3.034482,3.034482 0,1.675945 1.358538,3.034483 3.034482,3.034483 1.675945,0 3.034483,-1.358538 3.034483,-3.034483 0,-1.675944 -1.358538,-3.034482 -3.034483,-3.034482 z"
     fill="#f2f2f2"
     id="path36"
     style="stroke-width:1.01149" />
</svg>
