<?xml version="1.0" encoding="UTF-8" standalone="no"?>
<svg
   width="48"
   height="48"
   viewBox="0 0 32 32"
   fill="none"
   version="1.1"
   id="svg6"
   sodipodi:docname="DrawStyleHiddenLine.svg"
   inkscape:version="1.2.2 (b0a8486541, 2022-12-01)"
   xmlns:inkscape="http://www.inkscape.org/namespaces/inkscape"
   xmlns:sodipodi="http://sodipodi.sourceforge.net/DTD/sodipodi-0.dtd"
   xmlns="http://www.w3.org/2000/svg"
   xmlns:svg="http://www.w3.org/2000/svg">
  <defs
     id="defs10" />
  <sodipodi:namedview
     id="namedview8"
     pagecolor="#505050"
     bordercolor="#ffffff"
     borderopacity="1"
     inkscape:showpageshadow="0"
     inkscape:pageopacity="0"
     inkscape:pagecheckerboard="1"
     inkscape:deskcolor="#505050"
     showgrid="false"
     showguides="true"
     inkscape:zoom="6.0546018"
     inkscape:cx="-19.324144"
     inkscape:cy="58.385342"
     inkscape:window-width="2560"
     inkscape:window-height="1369"
     inkscape:window-x="0"
     inkscape:window-y="0"
     inkscape:window-maximized="1"
     inkscape:current-layer="svg6">
    <sodipodi:guide
       position="4.86618,30.63747"
       orientation="0,-1"
       id="guide239"
       inkscape:locked="false" />
    <sodipodi:guide
       position="1.3041363,28.476886"
       orientation="1,0"
       id="guide241"
       inkscape:locked="false" />
    <sodipodi:guide
       position="30.676399,23.766423"
       orientation="1,0"
       id="guide243"
       inkscape:locked="false" />
    <sodipodi:guide
       position="31.182482,1.3430657"
       orientation="0,-1"
       id="guide245"
       inkscape:locked="false" />
  </sodipodi:namedview>
  <path
     fill-rule="evenodd"
     clip-rule="evenodd"
     d="m 4.4762633,3.7060823 5.272981,5.2729928 H 21.810219 V 3.7060823 Z M 22.981995,4.0909288 v 4.8881463 h 4.888182 z M 21.810219,10.150851 H 10.092458 V 21.868613 H 21.810219 Z M 8.9206814,21.868613 V 9.807638 L 3.6476886,4.5346453 V 21.868613 Z m -4.8881463,1.171776 h 4.8881463 v 4.888064 z m 6.0599229,0 h 12.060974 l 5.272993,5.272993 H 10.092458 Z M 22.981995,22.211826 V 10.150851 h 5.272993 V 27.484819 Z M 30.59854,8.393187 23.567883,1.36253 H 1.3041363 v 22.263747 l 7.030657,7.030657 H 30.59854 Z"
     fill="#f2f2f2"
     id="path2"
     style="stroke-width:1.17178" />
  <path
     fill-rule="evenodd"
     clip-rule="evenodd"
     d="M 20.80378,5.4399361 C 21.114184,5.348643 21.291825,5.0229713 21.200544,4.7125443 21.109262,4.4021174 20.783509,4.2244761 20.473105,4.3157809 l -9.960097,2.9294405 c -0.310403,0.091305 -0.488045,0.4169648 -0.396763,0.7273917 0.09128,0.3104387 0.417035,0.4880682 0.727438,0.3967634 z M 4.7199459,7.2299297 c 0.3188637,-0.05498 0.6219319,0.1589514 0.6769116,0.4778151 L 8.326298,24.698452 C 8.381313,25.01741 8.1673465,25.320431 7.8484711,25.375388 7.5296073,25.430348 7.2265391,25.216495 7.1715594,24.897537 L 4.242119,7.9068413 C 4.1871392,7.5879659 4.4010704,7.2849094 4.7199459,7.2299297 Z M 27.497552,10.908287 c 0.22873,0.228848 0.22873,0.599833 0,0.828681 L 11.678573,27.555946 c -0.228847,0.228731 -0.599831,0.228731 -0.828562,0 -0.228848,-0.228848 -0.228848,-0.599832 0,-0.82868 L 26.668989,10.908287 c 0.228731,-0.22873 0.599715,-0.22873 0.828563,0 z"
     fill="#adadad"
     id="path4"
     style="stroke-width:1.17178" />
</svg>
