<?xml version="1.0" encoding="UTF-8" standalone="no"?>
<svg
   width="48"
   height="48"
   viewBox="0 0 30 30"
   fill="none"
   version="1.1"
   id="svg6"
   sodipodi:docname="edit-copy.svg"
   inkscape:version="1.2.2 (b0a8486541, 2022-12-01)"
   xmlns:inkscape="http://www.inkscape.org/namespaces/inkscape"
   xmlns:sodipodi="http://sodipodi.sourceforge.net/DTD/sodipodi-0.dtd"
   xmlns="http://www.w3.org/2000/svg"
   xmlns:svg="http://www.w3.org/2000/svg">
  <defs
     id="defs10" />
  <sodipodi:namedview
     id="namedview8"
     pagecolor="#505050"
     bordercolor="#ffffff"
     borderopacity="1"
     inkscape:showpageshadow="0"
     inkscape:pageopacity="0"
     inkscape:pagecheckerboard="1"
     inkscape:deskcolor="#505050"
     showgrid="false"
     showguides="true"
     inkscape:zoom="17.125"
     inkscape:cx="31.883212"
     inkscape:cy="32.321168"
     inkscape:window-width="2560"
     inkscape:window-height="1369"
     inkscape:window-x="0"
     inkscape:window-y="0"
     inkscape:window-maximized="1"
     inkscape:current-layer="svg6">
    <sodipodi:guide
       position="7.9562044,28.740876"
       orientation="0,-1"
       id="guide239"
       inkscape:locked="false" />
    <sodipodi:guide
       position="1.2773723,27.025547"
       orientation="1,0"
       id="guide241"
       inkscape:locked="false" />
    <sodipodi:guide
       position="28.740876,1.879562"
       orientation="1,0"
       id="guide243"
       inkscape:locked="false" />
    <sodipodi:guide
       position="28.284672,1.2408759"
       orientation="0,-1"
       id="guide245"
       inkscape:locked="false" />
  </sodipodi:namedview>
  <path
     d="m 8.7674188,11.264101 c 0,-1.3789177 1.1177645,-2.4966822 2.4966822,-2.4966822 h 14.980093 c 1.378917,0 2.496682,1.1177645 2.496682,2.4966822 v 14.980093 c 0,1.378917 -1.117765,2.496682 -2.496682,2.496682 H 11.264101 c -1.3789177,0 -2.4966822,-1.117765 -2.4966822,-2.496682 z"
     fill="#f2f2f2"
     id="path2"
     style="stroke-width:1.24834" />
  <path
     d="M 10.01576,6.2707366 H 23.747512 V 3.7740545 c 0,-1.3788802 -1.117765,-2.4966822 -2.496682,-2.4966822 H 3.7740545 c -1.3788802,0 -2.4966822,1.117802 -2.4966822,2.4966822 V 21.25083 c 0,1.378917 1.117802,2.496682 2.4966822,2.496682 H 6.2707366 V 10.01576 c 0,-2.0683765 1.6766469,-3.7450234 3.7450234,-3.7450234 z"
     fill="#f2f2f2"
     id="path4"
     style="stroke-width:1.24834" />
</svg>
