<?xml version="1.0" encoding="UTF-8" standalone="no"?>
<svg
   width="48"
   height="48"
   viewBox="0 0 30 30"
   fill="none"
   version="1.1"
   id="svg12"
   sodipodi:docname="edit-cut.svg"
   inkscape:version="1.2.2 (b0a8486541, 2022-12-01)"
   xmlns:inkscape="http://www.inkscape.org/namespaces/inkscape"
   xmlns:sodipodi="http://sodipodi.sourceforge.net/DTD/sodipodi-0.dtd"
   xmlns="http://www.w3.org/2000/svg"
   xmlns:svg="http://www.w3.org/2000/svg">
  <defs
     id="defs16" />
  <sodipodi:namedview
     id="namedview14"
     pagecolor="#505050"
     bordercolor="#ffffff"
     borderopacity="1"
     inkscape:showpageshadow="0"
     inkscape:pageopacity="0"
     inkscape:pagecheckerboard="1"
     inkscape:deskcolor="#505050"
     showgrid="false"
     showguides="true"
     inkscape:zoom="12.109204"
     inkscape:cx="-9.5794904"
     inkscape:cy="23.164199"
     inkscape:window-width="2560"
     inkscape:window-height="1369"
     inkscape:window-x="0"
     inkscape:window-y="0"
     inkscape:window-maximized="1"
     inkscape:current-layer="svg12">
    <sodipodi:guide
       position="4.5620438,28.777372"
       orientation="0,-1"
       id="guide245"
       inkscape:locked="false" />
    <sodipodi:guide
       position="1.2591241,26.368613"
       orientation="1,0"
       id="guide247"
       inkscape:locked="false" />
    <sodipodi:guide
       position="28.722628,2.1350365"
       orientation="1,0"
       id="guide249"
       inkscape:locked="false" />
  </sodipodi:namedview>
  <path
     d="m 10.084322,9.6800686 c 0,2.4433884 -1.9807424,4.4241104 -4.4241094,4.4241104 -2.4433669,0 -4.4241097,-1.980722 -4.4241097,-4.4241104 0,-2.4433657 1.9807428,-4.4241086 4.4241097,-4.4241086 2.443367,0 4.4241094,1.9807429 4.4241094,4.4241086 z"
     fill="#4d4d4d"
     id="path2"
     style="stroke-width:0.983136" />
  <path
     d="m 10.084322,22.460835 c 0,2.443384 -1.9807424,4.424109 -4.4241094,4.424109 -2.4433669,0 -4.4241097,-1.980725 -4.4241097,-4.424109 0,-2.443389 1.9807428,-4.424113 4.4241097,-4.424113 2.443367,0 4.4241094,1.980724 4.4241094,4.424113 z"
     fill="#4d4d4d"
     id="path4"
     style="stroke-width:0.983136" />
  <path
     fill-rule="evenodd"
     clip-rule="evenodd"
     d="m 8.4075862,13.147982 c -0.7546553,0.598631 -1.7092599,0.956197 -2.7473736,0.956197 -2.4433669,0 -4.4241097,-1.980722 -4.4241097,-4.4241104 0,-2.4433657 1.9807428,-4.4241086 4.4241097,-4.4241086 2.443367,0 4.4241094,1.9807429 4.4241094,4.4241086 0,0.254121 -0.02144,0.5032684 -0.06253,0.7456104 l 3.99507,1.712229 5.159299,-1.934712 C 20.974714,9.5287166 22.841198,9.0514713 24.74268,8.7798312 L 28.763902,8.2053654 V 10.171637 L 9.9305614,21.300438 c 0.1002836,0.369758 0.1537626,0.758882 0.1537626,1.160397 0,2.443384 -1.9807424,4.424109 -4.4241093,4.424109 -2.4433669,0 -4.4241097,-1.980725 -4.4241097,-4.424109 0,-2.443389 1.9807428,-4.424113 4.4241097,-4.424113 0.9856828,0 1.8960666,0.32237 2.6315107,0.867322 L 11.06746,17.053587 11.559028,15.087316 Z M 8.118053,9.6800686 c 0,1.3574154 -1.1004155,2.4578394 -2.4578404,2.4578394 -1.357425,0 -2.4578382,-1.100424 -2.4578382,-2.4578394 0,-1.3574234 1.1004132,-2.4578394 2.4578382,-2.4578394 1.3574249,0 2.4578404,1.100416 2.4578404,2.4578394 z M 5.6602126,24.918672 c 1.3574249,0 2.4578404,-1.100423 2.4578404,-2.457837 0,-1.357418 -1.1004155,-2.457842 -2.4578404,-2.457842 -1.357425,0 -2.4578382,1.100424 -2.4578382,2.457842 0,1.357414 1.1004132,2.457837 2.4578382,2.457837 z"
     fill="#f2f2f2"
     id="path6"
     style="stroke-width:0.983136" />
  <path
     d="m 28.763902,20.98613 v 1.966271 h -0.608069 c -2.853061,0 -5.687538,-0.460009 -8.39421,-1.362232 L 15,20.002993 20.898815,16.562019 Z"
     fill="#f2f2f2"
     id="path8"
     style="stroke-width:0.983136" />
  <circle
     cx="15.000004"
     cy="15.087317"
     fill="#4d4d4d"
     id="circle10"
     r="0.9831357"
     style="stroke-width:0.983136" />
</svg>
