<?xml version="1.0" encoding="UTF-8" standalone="no"?>
<svg
   width="48"
   height="48"
   viewBox="0 0 32 32"
   fill="none"
   version="1.1"
   id="svg14"
   sodipodi:docname="Part_Fillet.svg"
   inkscape:version="1.3 (0e150ed6c4, 2023-07-21)"
   xmlns:inkscape="http://www.inkscape.org/namespaces/inkscape"
   xmlns:sodipodi="http://sodipodi.sourceforge.net/DTD/sodipodi-0.dtd"
   xmlns="http://www.w3.org/2000/svg"
   xmlns:svg="http://www.w3.org/2000/svg">
  <defs
     id="defs18" />
  <sodipodi:namedview
     id="namedview16"
     pagecolor="#505050"
     bordercolor="#ffffff"
     borderopacity="1"
     inkscape:showpageshadow="0"
     inkscape:pageopacity="0"
     inkscape:pagecheckerboard="1"
     inkscape:deskcolor="#505050"
     showgrid="false"
     showguides="true"
     inkscape:zoom="17.125"
     inkscape:cx="24.70073"
     inkscape:cy="23.649635"
     inkscape:window-width="2560"
     inkscape:window-height="1369"
     inkscape:window-x="0"
     inkscape:window-y="0"
     inkscape:window-maximized="1"
     inkscape:current-layer="svg14">
    <sodipodi:guide
       position="2.6277372,30.63747"
       orientation="0,-1"
       id="guide247"
       inkscape:locked="false" />
    <sodipodi:guide
       position="1.3041363,29.644769"
       orientation="1,0"
       id="guide249"
       inkscape:locked="false" />
    <sodipodi:guide
       position="30.63747,2.43309"
       orientation="1,0"
       id="guide251"
       inkscape:locked="false" />
    <sodipodi:guide
       position="6.7737226,1.3430657"
       orientation="0,-1"
       id="guide253"
       inkscape:locked="false" />
  </sodipodi:namedview>
  <path
     d="M 30.63747,7.217518 24.782482,1.36253 H 13.072506 C 6.605262,1.36253 1.36253,6.605262 1.36253,13.072506 V 24.782482 L 7.217518,30.63747 H 30.63747 Z"
     fill="#4d4d4d"
     id="path2"
     style="stroke-width:1.171;fill:#495057;fill-opacity:1" />
  <g
     style="mix-blend-mode:normal;fill:#f03e3e;fill-opacity:0.80000001"
     id="g6"
     transform="matrix(1.1709976,0,0,1.1709976,-2.1504632,-2.1504628)">
    <path
       d="M 17,9 12,4 C 7.58172,4 4,7.58172 4,12 v 1 l 5,5 v -1 c 0,-4.4183 3.5817,-8 8,-8 z"
       fill="#326276"
       id="path4"
       style="fill:#f03e3e;fill-opacity:0.80000001" />
  </g>
  <path
     fill-rule="evenodd"
     clip-rule="evenodd"
     d="M 30.63747,30.63747 H 7.217518 L 1.36253,24.782482 V 13.072506 C 1.36253,6.605262 6.605262,1.36253 13.072506,1.36253 H 24.782482 L 30.63747,7.217518 Z M 13.072506,3.7045252 h 10.739922 l 4.098492,4.0984916 h -8.983426 c -6.143873,0 -11.1244772,4.9806042 -11.1244772,11.1244772 V 27.91092 L 3.7045252,23.812428 V 13.072506 c 0,-5.1737952 4.1941856,-9.3679808 9.3679808,-9.3679808 z M 8.9740142,28.295475 H 28.295475 V 8.9740142 h -9.367981 c -5.497131,0 -9.9534798,4.4563488 -9.9534798,9.9534798 z"
     fill="#f2f2f2"
     id="path8"
     style="stroke-width:1.171" />
  <path
     d="m 11.901508,2.5335276 5.854988,5.854988"
     stroke="#f2f2f2"
     id="path10"
     style="stroke-width:1.171" />
  <path
     d="m 2.5335276,13.072506 5.854988,5.854988"
     stroke="#f2f2f2"
     id="path12"
     style="stroke-width:1.171" />
</svg>
