<?xml version="1.0" encoding="UTF-8" standalone="no"?>
<svg
   width="48"
   height="48"
   viewBox="0 0 48 48"
   fill="none"
   version="1.1"
   id="svg21"
   sodipodi:docname="PartDesign_Revolution.svg"
   xml:space="preserve"
   inkscape:version="1.2.2 (b0a8486541, 2022-12-01)"
   xmlns:inkscape="http://www.inkscape.org/namespaces/inkscape"
   xmlns:sodipodi="http://sodipodi.sourceforge.net/DTD/sodipodi-0.dtd"
   xmlns="http://www.w3.org/2000/svg"
   xmlns:svg="http://www.w3.org/2000/svg"><sodipodi:namedview
     id="namedview23"
     pagecolor="#505050"
     bordercolor="#ffffff"
     borderopacity="1"
     inkscape:showpageshadow="0"
     inkscape:pageopacity="0"
     inkscape:pagecheckerboard="1"
     inkscape:deskcolor="#505050"
     showgrid="false"
     showguides="true"
     inkscape:zoom="12.109204"
     inkscape:cx="14.410527"
     inkscape:cy="18.704781"
     inkscape:window-width="2560"
     inkscape:window-height="1363"
     inkscape:window-x="0"
     inkscape:window-y="0"
     inkscape:window-maximized="1"
     inkscape:current-layer="svg21"><sodipodi:guide
       position="17.011854,45.935455"
       orientation="0,-1"
       id="guide6109"
       inkscape:locked="false" /><sodipodi:guide
       position="3.9639271,58.157563"
       orientation="1,0"
       id="guide6111"
       inkscape:locked="false" /><sodipodi:guide
       position="45.915488,39.741819"
       orientation="1,0"
       id="guide6113"
       inkscape:locked="false" /><sodipodi:guide
       position="6.6065451,2.0845115"
       orientation="0,-1"
       id="guide6115"
       inkscape:locked="false" /><sodipodi:guide
       position="-43.107707,24.051274"
       orientation="0,-1"
       id="guide6117"
       inkscape:locked="false" /></sodipodi:namedview><defs
     id="defs19"><clipPath
       id="clip0"><rect
         width="32"
         height="32"
         fill="#4d4d4d"
         id="rect16"
         x="0"
         y="0" /></clipPath></defs><path
     style="fill:#40c057;fill-opacity:1;fill-rule:evenodd;stroke:none;stroke-width:1.5;stroke-linecap:round;stroke-dasharray:none;stroke-dashoffset:0;stroke-opacity:1;paint-order:markers fill stroke"
     d="M 20.836834,44.507804 C 7.5325075,41.6535 4.8039696,34.225565 5.1438691,25.470645 7.0488548,16.552927 13.311564,11.896386 20.74398,8.3836367 28.371439,6.2669962 35.618759,6.5399508 42.379842,9.8694645 c 3.083683,3.5013395 2.376354,6.4903455 0.928578,9.3792835 -3.269966,4.889319 -6.856194,4.190949 -10.492928,2.600195 0,0 -8.463926,1.013807 -8.82149,1.114373 -2.087475,0.587106 -5.334698,7.963962 -2.414308,6.964813 3.110885,-1.121499 3.873096,3.188705 5.107178,6.407628 -1.612186,5.25791 -3.496226,8.476753 -5.850038,8.172047 z"
     id="path5785"
     sodipodi:nodetypes="ccccccsccc" /><path
     style="fill:none;fill-opacity:1;fill-rule:evenodd;stroke:#f1f3f5;stroke-width:3;stroke-linecap:round;stroke-dasharray:none;stroke-dashoffset:0;stroke-opacity:1;paint-order:markers fill stroke"
     d="M 21.649344,44.08992 C 15.166608,43.882139 5.8879116,39.299158 5.5385153,29.27808 5.1643394,23.124209 7.8605208,16.509845 16.263589,10.89097 18.916985,9.2485439 25.919901,5.3747724 34.138715,6.8513785 c 4.517551,0.6712977 7.059812,2.6623036 9.332207,4.5503455"
     id="path5663"
     sodipodi:nodetypes="ccccc" /><path
     style="fill:none;fill-opacity:1;fill-rule:evenodd;stroke:#f1f3f5;stroke-width:3;stroke-linecap:round;stroke-dasharray:none;stroke-dashoffset:0;stroke-opacity:1;paint-order:markers fill stroke"
     d="m 33.720851,22.220401 c -3.118404,-3.166177 -11.038958,0.370615 -13.417947,5.10753 -0.622281,1.684458 -0.587734,2.049148 2.414304,2.135876 2.016903,0.342729 3.55877,3.184818 3.528593,7.568431 -0.659161,5.419306 -2.413329,6.934252 -4.55003,7.05768"
     id="path5665"
     sodipodi:nodetypes="ccccc" /><path
     style="fill:none;fill-opacity:1;fill-rule:evenodd;stroke:#f1f3f5;stroke-width:3;stroke-linecap:round;stroke-dasharray:none;stroke-dashoffset:0;stroke-opacity:1;paint-order:markers fill stroke"
     d="m 43.292942,11.138608 c 2.314701,2.397965 2.52276,6.761776 -1.625006,9.982903 -3.300343,2.619807 -6.265013,2.240938 -8.078632,0.882206"
     id="path5667"
     sodipodi:nodetypes="ccc" /><path
     style="fill:none;fill-opacity:1;fill-rule:evenodd;stroke:#f1f3f5;stroke-width:1.5;stroke-linecap:round;stroke-dasharray:none;stroke-dashoffset:0;stroke-opacity:1;paint-order:markers fill stroke"
     d="m 44.681941,13.65368 c -3.386494,-4.6143042 -8.075769,-2.263431 -10.167927,0.278593 -3.879294,4.923113 -0.864843,7.965293 1.392867,9.193555"
     id="path5725"
     sodipodi:nodetypes="ccc" /><path
     style="fill:none;fill-opacity:1;fill-rule:evenodd;stroke:#f1f3f5;stroke-width:1.5;stroke-linecap:round;stroke-dasharray:none;stroke-dashoffset:0;stroke-opacity:1;paint-order:markers fill stroke"
     d="m 25.54738,32.002505 c -3.709231,-3.574772 -5.968999,-1.531477 -6.863159,4.309982 -0.120733,7.670995 3.896341,7.863085 5.770146,6.066319"
     id="path5727"
     sodipodi:nodetypes="ccc" /><path
     style="fill:none;fill-opacity:1;fill-rule:evenodd;stroke:#f03e3e;stroke-width:1.8;stroke-linecap:round;stroke-dasharray:0.18, 2.7;stroke-dashoffset:0;stroke-opacity:1;paint-order:markers fill stroke"
     d="M 35.694079,42.139769 14.151076,2.1153042"
     id="path5841" /><rect
     style="fill:#f1f3f5;fill-rule:evenodd;stroke:none;stroke-width:4.34452;stroke-linecap:round;stroke-dashoffset:7.5;paint-order:markers fill stroke"
     id="rect375"
     width="15"
     height="15"
     x="33"
     y="33.064186"
     rx="3.9999998"
     ry="3.9999998" /><rect
     style="fill:#495057;fill-rule:evenodd;stroke:none;stroke-width:1.89147;stroke-linecap:round;stroke-dashoffset:7.5;paint-order:markers fill stroke"
     id="rect984"
     width="10"
     height="3"
     x="35.499996"
     y="39.064186" /><rect
     style="fill:#495057;fill-rule:evenodd;stroke:none;stroke-width:1.89147;stroke-linecap:round;stroke-dashoffset:7.5;paint-order:markers fill stroke"
     id="rect984-3"
     width="10"
     height="3"
     x="35.564186"
     y="-41.999996"
     transform="rotate(90)" /></svg>
