<svg width="33" height="32" viewBox="0 0 33 32" fill="none" xmlns="http://www.w3.org/2000/svg">
<path d="M31.75 20.5L24.8065 24.5L18.8548 22L11.5806 27L1 11.5L6.01734 8.24834C7.21025 7.47524 8.72385 7.39332 9.99323 8.03317L11.67 8.87835C13.0321 9.56495 14.6661 9.41708 15.8829 8.49711L20.8387 4.75L31.75 20.5Z" fill="#326276"/>
<path d="M1.00005 11.6066L5.62111 8.11263C6.94272 7.11336 9.08547 7.11336 10.4071 8.11263L11.2323 8.73662C12.554 9.73588 14.6967 9.73588 16.0183 8.73662L20.6394 5.24264" stroke="#F2F2F2" stroke-width="2" stroke-linejoin="round"/>
<path d="M11.5806 26.6066L16.2017 23.1126C17.5233 22.1134 19.666 22.1134 20.9876 23.1126L21.8129 23.7366C23.1345 24.7359 25.2773 24.7359 26.5989 23.7366L31.2199 20.2426" stroke="#F2F2F2" stroke-width="2" stroke-linejoin="round"/>
<g opacity="0.3">
<line y1="-0.5" x2="13.5636" y2="-0.5" transform="matrix(0.585056 0.810993 -0.924466 0.381265 7.61292 10)" stroke="#4D4D4D"/>
<line y1="-0.5" x2="13.5636" y2="-0.5" transform="matrix(0.585056 0.810993 -0.924466 0.381265 15.5484 11)" stroke="#4D4D4D"/>
</g>
<path d="M2.5 14L10 24.5" stroke="#F2F2F2" stroke-linecap="round"/>
<path d="M23 8L30.5 18.5" stroke="#F2F2F2" stroke-linecap="round"/>
</svg>
