<?xml version="1.0" encoding="UTF-8" standalone="no"?>
<svg
   width="48"
   height="48"
   viewBox="0 0 32 32"
   fill="none"
   version="1.1"
   id="svg12"
   sodipodi:docname="PartDesign_AdditiveLoft.svg"
   inkscape:version="1.2.2 (b0a8486541, 2022-12-01)"
   xmlns:inkscape="http://www.inkscape.org/namespaces/inkscape"
   xmlns:sodipodi="http://sodipodi.sourceforge.net/DTD/sodipodi-0.dtd"
   xmlns="http://www.w3.org/2000/svg"
   xmlns:svg="http://www.w3.org/2000/svg">
  <sodipodi:namedview
     id="namedview9"
     pagecolor="#505050"
     bordercolor="#ffffff"
     borderopacity="1"
     inkscape:showpageshadow="0"
     inkscape:pageopacity="0"
     inkscape:pagecheckerboard="1"
     inkscape:deskcolor="#505050"
     showgrid="false"
     inkscape:zoom="45.666666"
     inkscape:cx="38.343066"
     inkscape:cy="40.850366"
     inkscape:window-width="2560"
     inkscape:window-height="1363"
     inkscape:window-x="0"
     inkscape:window-y="0"
     inkscape:window-maximized="1"
     inkscape:current-layer="svg12"
     showguides="true">
    <sodipodi:guide
       position="-14.160584,30.656934"
       orientation="0,-1"
       id="guide953"
       inkscape:locked="false" />
    <sodipodi:guide
       position="1.2846716,33.051095"
       orientation="1,0"
       id="guide955"
       inkscape:locked="false" />
    <sodipodi:guide
       position="30.656935,33.021898"
       orientation="1,0"
       id="guide957"
       inkscape:locked="false" />
    <sodipodi:guide
       position="-13.781022,1.3430652"
       orientation="0,-1"
       id="guide959"
       inkscape:locked="false" />
  </sodipodi:namedview>
  <defs
     id="defs16" />
  <path
     fill-rule="evenodd"
     clip-rule="evenodd"
     d="m 24.618232,6.223755 c 0,-2.3579795 -3.823014,-4.2694977 -8.538995,-4.2694977 -4.71598,0 -8.539,1.9115182 -8.539,4.2694977 v 2.0996854 c 0,4.2575956 -1.839268,7.4125416 -3.345621,11.3947016 l -1.991251,5.264184 13.875872,6.324727 13.875868,-6.324727 -1.991294,-5.264184 C 26.457532,15.735982 24.618232,12.581036 24.618232,8.3234404 Z"
     id="path2"
     style="fill:#37b24d;fill-opacity:1;stroke-width:1.06737" />
  <path
     fill-rule="evenodd"
     clip-rule="evenodd"
     d="m 4.1946153,19.718142 -1.991251,5.264184 13.8758727,6.324727 13.875868,-6.324727 -1.991294,-5.264184 C 26.457532,15.735982 24.618232,12.581036 24.618232,8.3234403 V 6.2237549 c 0,-2.3579795 -3.823014,-4.2694977 -8.538995,-4.2694977 -4.71598,0 -8.5390006,1.9115182 -8.5390006,4.2694977 v 2.0996854 c 0,4.2575957 -1.8392676,7.4125417 -3.3456211,11.3947017 z M 27.273113,23.925839 25.96718,20.473524 C 24.369535,16.249923 22.483483,12.839021 22.483483,8.3234403 V 6.2237549 c 0,-0.00226 -1.06e-4,-0.00557 -0.0014,-0.011613 -0.0013,-0.00631 -0.0045,-0.019479 -0.01302,-0.040272 C 22.451783,6.1297192 22.410582,6.0507227 22.3174,5.9405804 22.122711,5.7104118 21.757242,5.4115042 21.162501,5.1141444 19.971845,4.518827 18.177696,4.089006 16.079237,4.089006 c -2.098458,0 -3.892607,0.429821 -5.083263,1.0251384 -0.594741,0.2973598 -0.96021,0.5962674 -1.1549013,0.826436 -0.09318,0.1101423 -0.1343842,0.1891388 -0.1516752,0.2312894 -0.0085,0.020793 -0.01174,0.033964 -0.01302,0.040272 -0.0013,0.00605 -0.0014,0.00935 -0.0014,0.011613 v 2.0996854 c 0,4.5155808 -1.8860529,7.9264828 -3.4836989,12.1500838 l -1.3059129,3.452315 11.1938703,5.000436 z"
     fill="#f2f2f2"
     id="path4"
     style="stroke:#f2f2f2;stroke-width:0.333333;stroke-dasharray:none;stroke-opacity:1" />
  <path
     d="m 23.550856,5.5930987 c 0,2.0632347 -3.345151,3.7358103 -7.471621,3.7358103 -4.126469,0 -7.4716259,-1.6725756 -7.4716259,-3.7358103 0,-2.0632348 3.3451569,-3.7358105 7.4716259,-3.7358105 4.12647,0 7.471621,1.6725757 7.471621,3.7358105 z"
     id="path6"
     style="fill:#868e96;fill-opacity:0.48536572;stroke-width:1.06737" />
  <path
     fill-rule="evenodd"
     clip-rule="evenodd"
     d="m 20.885089,7.2800305 c 1.238688,-0.6193227 1.598392,-1.2774123 1.598392,-1.6869318 0,-0.4095197 -0.359704,-1.0676093 -1.598392,-1.6869319 -1.174753,-0.5873869 -2.872412,-0.9815042 -4.805854,-0.9815042 -1.933441,0 -3.631101,0.3941173 -4.805853,0.9815042 -1.238688,0.6193226 -1.5983966,1.2774122 -1.5983966,1.6869319 0,0.4095195 0.3597086,1.0676091 1.5983966,1.6869318 1.174752,0.5873868 2.872412,0.9815042 4.805853,0.9815042 1.933442,0 3.631101,-0.3941174 4.805854,-0.9815042 z M 16.079235,9.328909 c 4.12647,0 7.471621,-1.6725756 7.471621,-3.7358103 0,-2.0632348 -3.345151,-3.7358105 -7.471621,-3.7358105 -4.126469,0 -7.4716259,1.6725757 -7.4716259,3.7358105 0,2.0632347 3.3451569,3.7358103 7.4716259,3.7358103 z"
     fill="#f2f2f2"
     id="path8"
     style="stroke-width:1.06737;stroke-dasharray:none" />
  <path
     d="m 15.011861,29.967528 h 2.134748 c 0,0 -0.533687,-4.269498 -0.533687,-10.673744 V 8.6200392 H 15.545548 V 19.293784 c 0,6.404246 -0.533687,10.673744 -0.533687,10.673744 z"
     fill="#f2f2f2"
     id="path10"
     style="stroke:#f2f2f2;stroke-width:0.534;stroke-dasharray:none;stroke-opacity:1" />
  <rect
     style="fill:#f1f3f5;fill-rule:evenodd;stroke:none;stroke-width:2.89635;stroke-linecap:round;stroke-dashoffset:7.5;paint-order:markers fill stroke"
     id="rect375"
     width="10"
     height="10"
     x="22"
     y="22"
     rx="2.6666665"
     ry="2.6666665" />
  <rect
     style="fill:#495057;fill-rule:evenodd;stroke:none;stroke-width:1.26098;stroke-linecap:round;stroke-dashoffset:7.5;paint-order:markers fill stroke"
     id="rect984"
     width="6.6666665"
     height="2"
     x="23.666664"
     y="26" />
  <rect
     style="fill:#495057;fill-rule:evenodd;stroke:none;stroke-width:1.26098;stroke-linecap:round;stroke-dashoffset:7.5;paint-order:markers fill stroke"
     id="rect984-3"
     width="6.6666665"
     height="2"
     x="23.66667"
     y="-27.999998"
     transform="rotate(90)" />
</svg>
