<svg width="32" height="32" viewBox="0 0 32 32" fill="none" xmlns="http://www.w3.org/2000/svg">
<path d="M24 8.8L19.2 4H12C7.58172 4 4 7.58172 4 12V19.2L8.8 24H24V8.8Z" fill="#326276"/>
<path fill-rule="evenodd" clip-rule="evenodd" d="M14 24H8.8L4 19.2V12C4 7.58172 7.58172 4 12 4H19.2L24 8.8V14H31C31.5523 14 32 14.4477 32 15V28C32 28.5523 31.5523 29 31 29H15C14.4477 29 14 28.5523 14 28V24ZM18.3716 6H12C8.68629 6 6 8.68629 6 12V18.3716L9.09998 21.4715V15.6C9.09998 12.0101 12.0101 9.09999 15.6 9.09999H21.4716L18.3716 6ZM14 22H10.1V15.6C10.1 12.5624 12.5624 10.1 15.6 10.1H22V14H15C14.4477 14 14 14.4477 14 15V22Z" fill="#F2F2F2"/>
<path d="M25.0854 18H16.5C16.2239 18 16 17.7761 16 17.5C16 17.2239 16.2239 17 16.5 17H25.0854C25.2913 16.4174 25.8469 16 26.5 16C27.1531 16 27.7087 16.4174 27.9146 17H29.5C29.7761 17 30 17.2239 30 17.5C30 17.7761 29.7761 18 29.5 18H27.9146C27.7087 18.5826 27.1531 19 26.5 19C25.8469 19 25.2913 18.5826 25.0854 18Z" fill="#4D4D4D"/>
<path d="M16.5 21C16.2239 21 16 21.2239 16 21.5C16 21.7761 16.2239 22 16.5 22H18.0854C18.2913 22.5826 18.8469 23 19.5 23C20.1531 23 20.7087 22.5826 20.9146 22H29.5C29.7761 22 30 21.7761 30 21.5C30 21.2239 29.7761 21 29.5 21H20.9146C20.7087 20.4174 20.1531 20 19.5 20C18.8469 20 18.2913 20.4174 18.0854 21H16.5Z" fill="#4D4D4D"/>
<path d="M16 25.5C16 25.2239 16.2239 25 16.5 25H25.0854C25.2913 24.4174 25.8469 24 26.5 24C27.1531 24 27.7087 24.4174 27.9146 25H29.5C29.7761 25 30 25.2239 30 25.5C30 25.7761 29.7761 26 29.5 26H27.9146C27.7087 26.5826 27.1531 27 26.5 27C25.8469 27 25.2913 26.5826 25.0854 26H16.5C16.2239 26 16 25.7761 16 25.5Z" fill="#4D4D4D"/>
</svg>
