<?xml version="1.0" encoding="UTF-8" standalone="no"?>
<svg
   width="45.597134"
   height="44.103371"
   viewBox="0 0 30.398089 29.402247"
   fill="none"
   version="1.1"
   id="svg18"
   sodipodi:docname="Part_CompoundFilter.svg"
   inkscape:version="1.2.2 (b0a8486541, 2022-12-01)"
   xmlns:inkscape="http://www.inkscape.org/namespaces/inkscape"
   xmlns:sodipodi="http://sodipodi.sourceforge.net/DTD/sodipodi-0.dtd"
   xmlns="http://www.w3.org/2000/svg"
   xmlns:svg="http://www.w3.org/2000/svg">
  <sodipodi:namedview
     id="namedview12"
     pagecolor="#505050"
     bordercolor="#ffffff"
     borderopacity="1"
     inkscape:showpageshadow="0"
     inkscape:pageopacity="0"
     inkscape:pagecheckerboard="1"
     inkscape:deskcolor="#505050"
     showgrid="false"
     inkscape:zoom="24.850708"
     inkscape:cx="22.836371"
     inkscape:cy="22.071805"
     inkscape:window-width="2560"
     inkscape:window-height="1369"
     inkscape:window-x="0"
     inkscape:window-y="0"
     inkscape:window-maximized="1"
     inkscape:current-layer="svg18" />
  <defs
     id="defs22" />
  <rect
     x="3.1455169"
     y="3.1494663"
     width="22.011692"
     height="23.103315"
     rx="1.0481759"
     id="rect2"
     style="opacity:0.8;fill:#37b24d;stroke-width:1.04916" />
  <path
     d="m 6.2900442,20.399032 v -6.74806 h 6.7353678 l 2.698214,2.703298 v 6.74806 H 8.988258 Z"
     fill="#4d4d4d"
     stroke="#f2f2f2"
     stroke-width="2.09833"
     id="path4" />
  <rect
     x="8.8405714"
     y="16.206305"
     width="6.6384439"
     height="6.6509509"
     stroke="#f2f2f2"
     id="rect6"
     style="stroke-width:1.04916" />
  <path
     d="m 19.349792,7.2667606 1.785042,1.8599532 c 0.56329,0.586823 0.877848,1.3693972 0.877848,2.1835792 v 1.29053 c 0,1.739994 -1.407804,3.150453 -3.144527,3.150453 h -0.883718 c -0.834034,0 -1.633898,-0.331954 -2.223601,-0.922769 L 13.500132,12.563543 C 12.910429,11.972728 12.579099,11.171358 12.579099,10.335752 V 9.4503698 c 0,-1.7399416 1.407806,-3.1504514 3.144527,-3.1504514 h 1.359485 c 0.855416,0 1.673831,0.3491121 2.266681,0.9668422 z"
     fill="#4d4d4d"
     stroke="#f2f2f2"
     stroke-width="2.09833"
     id="path8" />
  <rect
     x="15.129628"
     y="8.8552494"
     width="6.6384439"
     height="6.6509509"
     rx="3.319227"
     stroke="#f2f2f2"
     id="rect10"
     style="stroke-width:1.04916" />
  <path
     d="M 5.2418684,1.049165 H 4.1936926 c -1.7366702,0 -3.1445277,1.4105098 -3.1445277,3.150452 v 21.003014 c 0,1.739995 1.4078575,3.150452 3.1445277,3.150452 h 1.0481758"
     stroke="#f2f2f2"
     stroke-width="2.09833"
     id="path12" />
  <path
     d="m 23.060858,1.049165 h 1.048176 c 1.736721,0 3.144527,1.4105098 3.144527,3.150452 v 12.601808"
     stroke="#f2f2f2"
     stroke-width="2.09833"
     id="path14" />
  <path
     d="M 30.398089,18.901727 H 17.819978 l 4.192704,4.200603 v 4.200602 h 4.192703 V 23.10233 Z"
     fill="#f2f2f2"
     id="path16"
     style="stroke-width:1.04916" />
</svg>
