<?xml version="1.0" encoding="UTF-8" standalone="no"?>
<svg
   width="48"
   height="48"
   viewBox="0 0 48 48"
   fill="none"
   version="1.1"
   id="svg22"
   sodipodi:docname="Part_JoinCutout.svg"
   xml:space="preserve"
   inkscape:version="1.2.2 (b0a8486541, 2022-12-01)"
   xmlns:inkscape="http://www.inkscape.org/namespaces/inkscape"
   xmlns:sodipodi="http://sodipodi.sourceforge.net/DTD/sodipodi-0.dtd"
   xmlns="http://www.w3.org/2000/svg"
   xmlns:svg="http://www.w3.org/2000/svg"><defs
     id="defs26" /><sodipodi:namedview
     id="namedview24"
     pagecolor="#505050"
     bordercolor="#ffffff"
     borderopacity="1"
     inkscape:showpageshadow="0"
     inkscape:pageopacity="0"
     inkscape:pagecheckerboard="1"
     inkscape:deskcolor="#505050"
     showgrid="false"
     showguides="false"
     inkscape:zoom="8"
     inkscape:cx="39.8125"
     inkscape:cy="-4.6875"
     inkscape:window-width="2560"
     inkscape:window-height="1369"
     inkscape:window-x="0"
     inkscape:window-y="0"
     inkscape:window-maximized="1"
     inkscape:current-layer="svg22"><sodipodi:guide
       position="11.153285,45.956204"
       orientation="0,-1"
       id="guide1447"
       inkscape:locked="false" /><sodipodi:guide
       position="2.0437956,59.094891"
       orientation="1,0"
       id="guide1449"
       inkscape:locked="false" /><sodipodi:guide
       position="22.248175,1.9270073"
       orientation="0,-1"
       id="guide1451"
       inkscape:locked="false" /><sodipodi:guide
       position="45.956204,55.824818"
       orientation="1,0"
       id="guide1453"
       inkscape:locked="false" /><sodipodi:guide
       position="-62.184106,24.051274"
       orientation="0,-1"
       id="guide1455"
       inkscape:locked="false" /></sodipodi:namedview><path
     style="fill:none;fill-opacity:0.74;fill-rule:evenodd;stroke:#f2f2f2;stroke-width:1.31078;stroke-linecap:square;stroke-linejoin:miter;stroke-dasharray:none;stroke-dashoffset:0.75;stroke-opacity:1;paint-order:markers fill stroke"
     d="m 30.836208,41.143528 c -2.767136,-2.99565 -1.220369,-8.419653 1.479809,-10.766884 3.912357,-3.758083 7.487872,-3.969833 10.246402,-1.93906"
     id="path1279"
     sodipodi:nodetypes="ccc" /><path
     style="fill:none;fill-opacity:1;fill-rule:evenodd;stroke:none;stroke-width:2.62156;stroke-linecap:square;stroke-linejoin:miter;stroke-dasharray:none;stroke-dashoffset:0.75;stroke-opacity:1;paint-order:markers fill stroke"
     d="M 16.501892,6.3773591 41.226548,28.288523 c 1.942892,1.448183 2.743503,3.689243 1.278859,7.502654 -0.814315,1.88239 -2.386763,3.494015 -4.323168,4.975656 -2.064481,1.149359 -4.178244,1.446979 -6.280531,0.412704 L 19.864016,30.570521 9.0844961,33.31871 C 7.8634791,32.967147 6.3584846,32.009553 5.4132544,28.970584 4.5470247,25.380112 5.0625656,23.2591 6.5267722,22.320503 l 3.0692654,-0.5968 -4.1776132,-3.410298 C 4.4705978,16.165639 4.6110972,14.525956 5.1626527,12.771671 6.0241531,10.265794 7.4354643,8.0151875 10.53387,6.547874 12.421291,5.5148363 14.532502,5.8852263 16.501892,6.3773591 Z"
     id="path429"
     sodipodi:nodetypes="cccccccccccccc" /><path
     style="fill:#6c7086;fill-opacity:1;fill-rule:evenodd;stroke:#f2f2f2;stroke-width:3;stroke-linecap:square;stroke-linejoin:miter;stroke-dasharray:none;stroke-dashoffset:0.75;stroke-opacity:1;paint-order:markers fill stroke"
     d="M 17.991911,6.1324252 42.022582,27.37002 c 4.112596,3.120934 2.387781,8.954446 -0.350038,11.86598 -4.023948,4.027326 -8.21964,5.059752 -11.730296,1.882307 L 19.557855,31.917657 C 11.710403,25.442182 5.6544106,20.609067 4.7448578,19.466639 2.7061786,17.196625 3.172071,11.566972 6.7680125,7.7113102 10.676135,3.9227675 15.763635,4.3731386 17.991911,6.1324252 Z"
     id="path429-3"
     sodipodi:nodetypes="cccccccc" /><path
     style="fill:#11111b;fill-opacity:1;fill-rule:evenodd;stroke:none;stroke-width:1.7;stroke-linecap:round;stroke-dashoffset:0.75;paint-order:markers fill stroke"
     d="m 15.503809,27.362718 2.233551,1.35787 c 1.059403,-0.192387 1.481024,-2.005337 1.824416,-3.560411 0.589829,-2.305316 0.818038,-4.602488 -0.0692,-6.874538 -0.907194,-1.924454 -2.59379,-1.833519 -4.420109,-1.381286 -1.389312,0.302994 -2.824656,1.723725 -3.161512,2.891048 -0.62893,1.819912 0.21815,3.674001 0.450386,4.272698 0.599623,1.019438 1.716892,2.120543 3.142465,3.294619 z"
     id="path1611"
     sodipodi:nodetypes="cccccccc" /><path
     style="fill:#000000;fill-opacity:1;fill-rule:evenodd;stroke:none;stroke-width:0.873853;stroke-linecap:square;stroke-linejoin:miter;stroke-dasharray:none;stroke-dashoffset:0.75;stroke-opacity:1;paint-order:markers fill stroke"
     d="m 36.817876,38.651741 c -5.031901,1.535155 -5.31855,-3.368003 -2.338121,-6.364891 2.463717,-2.514992 7.213807,-2.129494 6.040157,2.186578 -0.205873,0.729219 -1.355388,3.362287 -3.702036,4.178313 z"
     id="path1335"
     sodipodi:nodetypes="cccc" /><path
     style="fill:#f38ba8;fill-opacity:1;fill-rule:evenodd;stroke:none;stroke-width:1.7;stroke-linecap:round;stroke-dashoffset:0.75;paint-order:markers fill stroke"
     d="M 17.73736,28.720588 14.049999,26.1 c -0.887864,-2.088321 -0.146959,-5.025208 0.1875,-5.737501 0.738231,-1.122738 2.399764,-2.639008 4.462502,-2.625 1.13316,2.635299 0.873244,3.991989 0.75,5.700001 -0.20125,2.241428 -1.235451,4.350959 -1.712641,5.283088 z"
     id="path2917"
     sodipodi:nodetypes="cccccc" /><path
     style="fill:none;fill-opacity:1;fill-rule:evenodd;stroke:#f2f2f2;stroke-width:3;stroke-linecap:square;stroke-linejoin:miter;stroke-dasharray:none;stroke-dashoffset:0.75;stroke-opacity:1;paint-order:markers fill stroke"
     d="M 17.991911,6.1324253 42.022582,27.37002 c 4.112596,3.120934 2.387781,8.954446 -0.350038,11.86598 -4.023948,4.027326 -8.21964,5.059752 -11.730296,1.882307 L 19.557855,31.917657 C 11.710403,25.442182 5.6544102,20.609067 4.7448574,19.466639 2.7061782,17.196625 3.1720706,11.566972 6.7680121,7.7113103 10.676135,3.9227673 15.763635,4.3731383 17.991911,6.1324253 Z"
     id="path429-3-3"
     sodipodi:nodetypes="cccccccc" /></svg>
