<?xml version="1.0" encoding="UTF-8" standalone="no"?>
<svg
   width="43.408104"
   height="39.338596"
   viewBox="0 0 28.938736 26.225731"
   fill="none"
   version="1.1"
   id="svg855"
   xmlns="http://www.w3.org/2000/svg"
   xmlns:svg="http://www.w3.org/2000/svg">
  <defs
     id="defs859" />
  <path
     d="M 27.130066,4.5216775 22.608389,-3.117981e-7 H 12.660698 V 10.852025 l 4.521678,4.521678 h 9.94769 z"
     id="path827"
     style="opacity:0.8;fill:#89b4fa;stroke-width:0.904335" />
  <path
     fill-rule="evenodd"
     clip-rule="evenodd"
     d="m 14.469369,1.8086709 h 7.389869 l 2.260839,2.2608208 h -7.389868 v 8.2942213 l -2.26084,-2.260839 z m 3.165174,11.4593771 0.296984,0.296985 h 7.389869 V 5.2708564 L 25.024413,4.9738273 h -7.38987 z M 27.130066,4.9738273 V 15.373703 h -9.94769 L 12.660698,10.852025 V -3.117981e-7 H 22.60839 L 26.6779,4.0694917 h 0.452167 v 0.4521858 z"
     fill="#f2f2f2"
     id="path829"
     style="stroke-width:0.904335" />
  <path
     d="m 23.512724,4.5216775 c 0,-1.4983482 1.214614,-2.7130066 2.713007,-2.7130066 1.498394,0 2.713008,1.2146584 2.713008,2.7130066 0,1.4983477 -1.214614,2.7130067 -2.713008,2.7130067 -1.498393,0 -2.713007,-1.214659 -2.713007,-2.7130067 z"
     fill="#4d4d4d"
     id="path831"
     style="stroke-width:0.904335" />
  <path
     fill-rule="evenodd"
     clip-rule="evenodd"
     d="m 24.869228,4.5216775 c 0,0.7491789 0.607352,1.3565037 1.356503,1.3565037 0.749152,0 1.356503,-0.6073248 1.356503,-1.3565037 0,-0.7491786 -0.607351,-1.3565033 -1.356503,-1.3565033 -0.749151,0 -1.356503,0.6073247 -1.356503,1.3565033 z m 1.356503,-2.7130066 c -1.498393,0 -2.713007,1.2146584 -2.713007,2.7130066 0,1.4983477 1.214614,2.7130067 2.713007,2.7130067 1.498394,0 2.713008,-1.214659 2.713008,-2.7130067 0,-1.4983482 -1.214614,-2.7130066 -2.713008,-2.7130066 z"
     fill="#f2f2f2"
     id="path833"
     style="stroke-width:0.904335" />
  <path
     d="m 23.512724,14.469368 c 0,-1.498395 1.214614,-2.713007 2.713007,-2.713007 1.498394,0 2.713008,1.214612 2.713008,2.713007 0,1.498393 -1.214614,2.713007 -2.713008,2.713007 -1.498393,0 -2.713007,-1.214614 -2.713007,-2.713007 z"
     fill="#4d4d4d"
     id="path835"
     style="stroke-width:0.904335" />
  <path
     fill-rule="evenodd"
     clip-rule="evenodd"
     d="m 24.869228,14.469368 c 0,0.749151 0.607352,1.356503 1.356503,1.356503 0.749152,0 1.356503,-0.607352 1.356503,-1.356503 0,-0.749153 -0.607351,-1.356503 -1.356503,-1.356503 -0.749151,0 -1.356503,0.60735 -1.356503,1.356503 z m 1.356503,-2.713007 c -1.498393,0 -2.713007,1.214612 -2.713007,2.713007 0,1.498393 1.214614,2.713007 2.713007,2.713007 1.498394,0 2.713008,-1.214614 2.713008,-2.713007 0,-1.498395 -1.214614,-2.713007 -2.713008,-2.713007 z"
     fill="#f2f2f2"
     id="path837"
     style="stroke-width:0.904335" />
  <path
     d="m 14.469369,14.469368 c 0,-1.498395 1.214613,-2.713007 2.713007,-2.713007 1.498394,0 2.713006,1.214612 2.713006,2.713007 0,1.498393 -1.214613,2.713007 -2.713006,2.713007 -1.498394,0 -2.713007,-1.214614 -2.713007,-2.713007 z"
     fill="#4d4d4d"
     id="path839"
     style="stroke-width:0.904335" />
  <path
     fill-rule="evenodd"
     clip-rule="evenodd"
     d="m 15.825873,14.469368 c 0,0.749151 0.60735,1.356503 1.356503,1.356503 0.749151,0 1.356503,-0.607352 1.356503,-1.356503 0,-0.749153 -0.607352,-1.356503 -1.356503,-1.356503 -0.749153,0 -1.356503,0.60735 -1.356503,1.356503 z m 1.356503,-2.713007 c -1.498394,0 -2.713007,1.214612 -2.713007,2.713007 0,1.498393 1.214613,2.713007 2.713007,2.713007 1.498394,0 2.713006,-1.214614 2.713006,-2.713007 0,-1.498395 -1.214613,-2.713007 -2.713006,-2.713007 z"
     fill="#f2f2f2"
     id="path841"
     style="stroke-width:0.904335" />
  <path
     d="M 7.2346845,7.2346842 14.469369,22.56082 c 0,1.332719 -1.973079,3.66491 -7.2346845,3.66491 -5.2615872,0 -7.23468460321503,-2.332191 -7.23468460321503,-3.66491 z"
     id="path843"
     style="opacity:0.8;fill:#89b4fa;stroke-width:0.904335" />
  <path
     fill-rule="evenodd"
     clip-rule="evenodd"
     d="M 7.2346845,7.2346842 -1.0321503e-7,22.56082 c 0,1.332719 1.97309740321503,3.66491 7.23468460321503,3.66491 5.2616055,0 7.2346845,-2.332191 7.2346845,-3.66491 z m 0,4.2369918 -5.3144637,11.258255 c 0.1057802,0.155636 0.3114802,0.387236 0.7111333,0.647504 0.7873236,0.512849 2.2289701,1.039624 4.6033304,1.039624 2.3743332,0 3.8160255,-0.526775 4.6033395,-1.039624 0.399626,-0.260268 0.605363,-0.491868 0.71117,-0.647504 z"
     fill="#f2f2f2"
     id="path845"
     style="stroke-width:0.904335" />
  <path
     d="m 10.852027,22.608387 c 0,-1.498393 1.214614,-2.713006 2.713007,-2.713006 1.498392,0 2.713006,1.214613 2.713006,2.713006 0,1.498395 -1.214614,2.713008 -2.713006,2.713008 -1.498393,0 -2.713007,-1.214613 -2.713007,-2.713008 z"
     fill="#4d4d4d"
     id="path847"
     style="stroke-width:0.904335" />
  <path
     fill-rule="evenodd"
     clip-rule="evenodd"
     d="m 12.208531,22.608387 c 0,0.749153 0.607352,1.356504 1.356503,1.356504 0.749151,0 1.356502,-0.607351 1.356502,-1.356504 0,-0.74915 -0.607351,-1.356502 -1.356502,-1.356502 -0.749151,0 -1.356503,0.607352 -1.356503,1.356502 z m 1.356503,-2.713006 c -1.498393,0 -2.713007,1.214613 -2.713007,2.713006 0,1.498395 1.214614,2.713008 2.713007,2.713008 1.498392,0 2.713006,-1.214613 2.713006,-2.713008 0,-1.498393 -1.214614,-2.713006 -2.713006,-2.713006 z"
     fill="#f2f2f2"
     id="path849"
     style="stroke-width:0.904335" />
  <path
     d="m 4.5216777,8.1390182 c 0,-1.498347 1.2146586,-2.7130051 2.7130068,-2.7130051 1.4983482,0 2.7130082,1.2146581 2.7130082,2.7130051 0,1.498395 -1.21466,2.7130068 -2.7130082,2.7130068 -1.4983482,0 -2.7130068,-1.2146118 -2.7130068,-2.7130068 z"
     fill="#4d4d4d"
     id="path851"
     style="stroke-width:0.904335" />
  <path
     fill-rule="evenodd"
     clip-rule="evenodd"
     d="m 5.878181,8.1390182 c 0,0.749153 0.6073242,1.356504 1.3565035,1.356504 0.7491788,0 1.3565042,-0.607351 1.3565042,-1.356504 0,-0.749151 -0.6073254,-1.356503 -1.3565042,-1.356503 -0.7491793,0 -1.3565035,0.607352 -1.3565035,1.356503 z M 7.2346845,5.4260131 c -1.4983482,0 -2.7130068,1.2146581 -2.7130068,2.7130051 0,1.498395 1.2146586,2.7130068 2.7130068,2.7130068 1.4983482,0 2.7130082,-1.2146118 2.7130082,-2.7130068 0,-1.498347 -1.21466,-2.7130051 -2.7130082,-2.7130051 z"
     fill="#f2f2f2"
     id="path853"
     style="stroke-width:0.904335" />
</svg>
