<?xml version="1.0" encoding="UTF-8" standalone="no"?>
<svg
   width="43.331093"
   height="43.510944"
   viewBox="0 0 28.887395 29.007296"
   fill="none"
   version="1.1"
   id="svg18"
   xmlns="http://www.w3.org/2000/svg"
   xmlns:svg="http://www.w3.org/2000/svg">
  <defs
     id="defs22" />
  <path
     d="M 14.949827,12.479317 9.9456977,8.2756898 1.6381423,18.83938 5.7633108,22.763924 Z"
     id="path4"
     style="opacity:0.8;fill:#f38ba8;stroke-width:1.01217" />
  <path
     style="opacity:0.8;fill:#6c7086;stroke:none;stroke-width:1.01217;stroke-linecap:square;stroke-dasharray:none;stroke-opacity:1;paint-order:markers fill stroke"
     d="M 9.5186167,0.66666504 V 7.9324946 L 15.59161,12.81265 v 11.13382 h 3.15766 l -0.03546,-4.378171 h 4.975126 V 6.1467413 L 18.208867,0.66666504 Z"
     id="path1272" />
  <path
     d="M 15.263758,23.266885 V 13.145231 L 6.1542743,23.266885 Z"
     id="path16"
     style="opacity:0.8;fill:#f38ba8;stroke-width:1.01217" />
  <path
     d="M 9.4275027,8.3927261 9.6562517,8.1131662 V 7.7518231 0.66666504 H 18.346502 L 23.826568,6.1467413 V 23.94647 H 6.0268418 L 0.89801727,18.817625 Z"
     stroke="#f2f2f2"
     stroke-width="2"
     id="path2"
     style="fill:none;stroke-width:1.33333;stroke-dasharray:none" />
  <path
     d="M 24.320627,6.5051173 H 15.308263 V 12.578797 L 5.294524,23.713872"
     stroke="#f2f2f2"
     id="path6"
     style="stroke-width:0.666667;stroke-dasharray:none" />
  <path
     d="M 15.884961,6.7396577 9.3058857,0.66666504"
     stroke="#f2f2f2"
     id="path8"
     style="stroke-width:0.666667;stroke-dasharray:none" />
  <path
     d="M 15.378884,12.656934 9.3058907,7.5961055"
     stroke="#f2f2f2"
     id="path10"
     style="stroke-width:0.666667;stroke-dasharray:none" />
  <path
     d="m 17.753576,19.897808 c 0,-1.118038 0.906293,-2.024331 2.024331,-2.024331 h 7.085158 c 1.118038,0 2.024331,0.906293 2.024331,2.024331 v 7.085158 c 0,1.118038 -0.906293,2.024331 -2.024331,2.024331 h -7.085158 c -1.118038,0 -2.024331,-0.906293 -2.024331,-2.024331 z"
     fill="#f2f2f2"
     id="path12"
     style="stroke-width:1.01217" />
  <rect
     x="20.790077"
     y="22.934305"
     width="5.0608273"
     height="1.0121654"
     fill="#4d4d4d"
     id="rect14"
     style="stroke-width:1.01217" />
  <path
     style="opacity:1;fill:none;stroke:#f2f2f2;stroke-width:0.666667;stroke-linecap:square;stroke-dasharray:none;stroke-opacity:1;paint-order:markers fill stroke"
     d="M 15.301026,12.81265 V 22.934304"
     id="path1009" />
</svg>
