<?xml version="1.0" encoding="UTF-8" standalone="no"?>
<!-- Created with Inkscape (http://www.inkscape.org/) -->

<svg
   width="48"
   height="48"
   viewBox="0 0 48 48"
   version="1.1"
   id="svg5"
   xml:space="preserve"
   inkscape:version="1.2.2 (b0a8486541, 2022-12-01)"
   sodipodi:docname="PartDesign_AdditiveHelix.svg"
   xmlns:inkscape="http://www.inkscape.org/namespaces/inkscape"
   xmlns:sodipodi="http://sodipodi.sourceforge.net/DTD/sodipodi-0.dtd"
   xmlns="http://www.w3.org/2000/svg"
   xmlns:svg="http://www.w3.org/2000/svg"><sodipodi:namedview
     id="namedview7"
     pagecolor="#505050"
     bordercolor="#ffffff"
     borderopacity="1"
     inkscape:showpageshadow="0"
     inkscape:pageopacity="0"
     inkscape:pagecheckerboard="1"
     inkscape:deskcolor="#505050"
     inkscape:document-units="px"
     showgrid="false"
     showguides="false"
     inkscape:zoom="0.97637488"
     inkscape:cx="-40.455772"
     inkscape:cy="75.278462"
     inkscape:window-width="2560"
     inkscape:window-height="1363"
     inkscape:window-x="0"
     inkscape:window-y="0"
     inkscape:window-maximized="1"
     inkscape:current-layer="layer1"><sodipodi:guide
       position="-28.331844,45.913199"
       orientation="0,-1"
       id="guide1420"
       inkscape:locked="false" /><sodipodi:guide
       position="2.0099878,48"
       orientation="1,0"
       id="guide1422"
       inkscape:locked="false" /><sodipodi:guide
       position="45.896819,46.399693"
       orientation="1,0"
       id="guide1424"
       inkscape:locked="false" /><sodipodi:guide
       position="-23.172452,2.1031811"
       orientation="0,-1"
       id="guide1426"
       inkscape:locked="false" /></sodipodi:namedview><defs
     id="defs2" /><g
     inkscape:label="Layer 1"
     inkscape:groupmode="layer"
     id="layer1"><path
       style="fill:none;fill-rule:evenodd;stroke:#f1f3f5;stroke-width:3;stroke-linecap:round;stroke-dasharray:none;stroke-opacity:1;paint-order:markers fill stroke"
       d="m 9.4482246,34.898884 c -1.10985,1.20838 -2.733753,3.085203 -2.0456435,5.8787 1.673619,4.818531 7.8623199,4.580171 9.4203609,0.737056 5.101355,-1.853781 13.346685,-3.949541 17.002704,-5.614411 4.246313,-1.873183 5.768653,-4.547629 5.443155,-7.704061 -0.427802,-3.519914 -3.964341,-5.257686 -6.472859,-6.306414 -2.803015,-1.134843 -6.210602,-1.983893 -9.560642,-3.069202 3.308103,-0.991068 6.58598,-1.803639 9.63537,-3.053746 1.608736,-0.76939 3.28667,-1.47257 4.813965,-3.517779 2.263074,-2.2919178 1.899723,-5.2116449 0.39961,-7.0040019 C 35.624453,2.7236089 31.834915,3.084014 29.840958,6.2719264 L 25.626874,7.8294996 C 21.189542,9.2509752 17.036009,10.19236 12.966311,11.99534 6.0196939,14.795625 6.0701151,20.628007 9.1354499,23.349772 12.648416,26.716316 21.949903,28.499154 23.328923,29.177173 18.095291,30.806602 12.1987,32.007163 9.4482246,34.898884 Z"
       id="path453"
       sodipodi:nodetypes="cccccccccccccccc" /><path
       style="fill:#37b24d;fill-opacity:1;fill-rule:evenodd;stroke:none;stroke-width:1.5;stroke-linecap:round;stroke-dasharray:none;stroke-dashoffset:0;stroke-opacity:0.5;paint-order:markers fill stroke"
       d="m 16.401707,41.10131 -3.07008,2.494923 -4.0099398,-0.988 -1.3967761,-3.121246 2.4837279,-4.562796 4.871694,-2.526674 10.33112,-3.213212 -9.25952,-2.874033 L 12.06505,24.558447 8.7435959,21.78322 7.9802417,17.933925 9.6905953,14.762369 13.341612,12.567946 23.95385,9.0778796 29.944872,6.938998 l 3.04768,-2.4346139 4.662781,1.0985185 1.069472,3.6159233 -4.209959,4.9733131 -8.185443,3.142265 -5.59611,1.480183 11.419278,3.36147 4.664262,2.878009 1.711095,2.860128 -1.042619,4.491141 -3.878703,2.828509 z"
       id="path1418"
       sodipodi:nodetypes="ccccccccccccccccccccccccccc" /><path
       style="fill:none;fill-rule:evenodd;stroke:#f1f3f5;stroke-width:1.5;stroke-linecap:round;stroke-dasharray:none;stroke-dashoffset:0;stroke-opacity:1;paint-order:markers fill stroke"
       d="M 29.595099,31.944557 C 29.222598,30.656462 28.163564,30.090732 27.039706,29.601372 21.736528,27.74691 16.950395,26.933376 12.065051,24.558447 10.184937,23.482306 6.5462106,21.2077 8.3733884,16.615743"
       id="path356"
       sodipodi:nodetypes="cccc" /><path
       style="fill:none;fill-rule:evenodd;stroke:#f1f3f5;stroke-width:1.5;stroke-linecap:round;stroke-dasharray:none;stroke-dashoffset:0;stroke-opacity:1;paint-order:markers fill stroke"
       d="m 16.391553,16.489339 c 1.550432,1.873879 2.611886,1.745112 4.341744,2.325248 5.100743,1.529163 9.150114,2.579897 12.738852,4.145866 3.999148,1.789395 4.638476,3.629915 5.068782,4.940729"
       id="path1170"
       sodipodi:nodetypes="cccc" /><path
       style="fill:none;fill-rule:evenodd;stroke:#f1f3f5;stroke-width:1.5;stroke-linecap:round;stroke-dasharray:none;stroke-dashoffset:0;stroke-opacity:1;paint-order:markers fill stroke"
       d="m 38.527932,27.914194 c 0.58391,3.138658 -1.195687,5.176927 -3.415173,6.509151 -3.532786,2.351061 -16.087288,5.246488 -18.711052,6.677965"
       id="path1172"
       sodipodi:nodetypes="ccc" /><ellipse
       style="fill:#343a40;fill-opacity:0.5;fill-rule:evenodd;stroke:#f1f3f5;stroke-width:1.50001;stroke-linecap:round;stroke-dasharray:none;stroke-dashoffset:0;stroke-opacity:1;paint-order:markers fill stroke"
       id="path1280"
       cx="-12.254024"
       cy="39.486988"
       rx="4.3291125"
       ry="4.2427926"
       transform="scale(-1,1)" /><ellipse
       style="fill:#343a40;fill-opacity:0.5;fill-rule:evenodd;stroke:#f1f3f5;stroke-width:1.50001;stroke-linecap:round;stroke-dasharray:none;stroke-dashoffset:0;stroke-opacity:1;paint-order:markers fill stroke"
       id="path1280-3"
       cx="-34.301716"
       cy="8.548521"
       rx="4.3291125"
       ry="4.2427926"
       transform="scale(-1,1)" /><path
       style="fill:none;fill-rule:evenodd;stroke:#f1f3f5;stroke-width:1.5;stroke-linecap:round;stroke-dasharray:none;stroke-dashoffset:0;stroke-opacity:1;paint-order:markers fill stroke"
       d="m 25.611454,29.184305 c -3.44891,1.076009 -6.076873,1.689352 -10.33112,3.213212 -3.750293,1.242176 -6.3130901,3.311802 -6.7960392,5.00347"
       id="path1282"
       sodipodi:nodetypes="ccc" /><path
       style="fill:none;fill-rule:evenodd;stroke:#f1f3f5;stroke-width:1.5;stroke-linecap:round;stroke-dasharray:none;stroke-dashoffset:0;stroke-opacity:1;paint-order:markers fill stroke"
       d="M 8.3733884,16.615743 C 9.5459118,14.217441 12.590323,12.463876 18.24488,10.843832 22.535735,9.290305 30.050323,7.7079233 30.627304,6.3017494"
       id="path1306"
       sodipodi:nodetypes="ccc" /><path
       style="fill:none;fill-rule:evenodd;stroke:#f1f3f5;stroke-width:1.5;stroke-linecap:round;stroke-dasharray:none;stroke-dashoffset:0;stroke-opacity:1;paint-order:markers fill stroke"
       d="m 38.026835,10.710151 c -0.533348,2.434277 -4.532993,4.241853 -9.15914,5.759721 -3.052095,0.910987 -5.679583,1.678642 -8.134398,2.344715"
       id="path1362"
       sodipodi:nodetypes="ccc" /><rect
       style="fill:#f1f3f5;fill-rule:evenodd;stroke:none;stroke-width:4.34452;stroke-linecap:round;stroke-dashoffset:7.5;paint-order:markers fill stroke"
       id="rect375"
       width="15"
       height="15"
       x="33"
       y="33"
       rx="3.9999998"
       ry="3.9999998" /><rect
       style="fill:#495057;fill-rule:evenodd;stroke:none;stroke-width:1.89147;stroke-linecap:round;stroke-dashoffset:7.5;paint-order:markers fill stroke"
       id="rect984"
       width="10"
       height="3"
       x="35.5"
       y="39" /><rect
       style="fill:#495057;fill-rule:evenodd;stroke:none;stroke-width:1.89147;stroke-linecap:round;stroke-dashoffset:7.5;paint-order:markers fill stroke"
       id="rect984-3"
       width="10"
       height="3"
       x="35.500004"
       y="-42"
       transform="rotate(90)" /></g></svg>
