<svg width="32" height="32" viewBox="0 0 32 32" fill="none" xmlns="http://www.w3.org/2000/svg">
<path d="M8 11.5858V5H18.5858L24 10.4142V17H13.4142L8 11.5858Z" fill="#326276" stroke="#F2F2F2" stroke-width="2"/>
<path d="M25 11H13.5V17" stroke="#F2F2F2"/>
<path d="M13.5 11L8 5" stroke="#F2F2F2"/>
<path d="M11.7929 19.7071L12.0858 20H12.5H24V27H13.4142L8 21.5858V15.9142L11.7929 19.7071Z" fill="#5893ac" stroke="#F2F2F2" stroke-width="2"/>
<path d="M25 20H13.5V26" stroke="#F2F2F2"/>
<path d="M31 21L26 16V19H12.5L5.5 12H2L11 21H31Z" fill="#F2F2F2"/>
<path d="M20 14C20 12.8954 20.8954 12 22 12H30C31.1046 12 32 12.8954 32 14V23.2C32 24.3046 31.1046 25.2 30 25.2H22C20.8954 25.2 20 24.3046 20 23.2V14Z" fill="#F2F2F2"/>
<path d="M24.8983 22.8H26.8619V20.8707H24.8983V22.8Z" fill="#4D4D4D"/>
<path d="M25.0946 19.7174H26.6655L27.2 14.4H24.8L25.0946 19.7174Z" fill="#4D4D4D"/>
</svg>
