<?xml version="1.0" encoding="UTF-8" standalone="no"?>
<svg
   width="48"
   height="48"
   viewBox="0 0 32 32"
   fill="none"
   version="1.1"
   id="svg20279"
   sodipodi:docname="PartDesign_ShapeBinder.svg"
   inkscape:version="1.2.2 (b0a8486541, 2022-12-01)"
   xmlns:inkscape="http://www.inkscape.org/namespaces/inkscape"
   xmlns:sodipodi="http://sodipodi.sourceforge.net/DTD/sodipodi-0.dtd"
   xmlns="http://www.w3.org/2000/svg"
   xmlns:svg="http://www.w3.org/2000/svg">
  <defs
     id="defs20283" />
  <sodipodi:namedview
     id="namedview20281"
     pagecolor="#505050"
     bordercolor="#ffffff"
     borderopacity="1"
     inkscape:showpageshadow="0"
     inkscape:pageopacity="0"
     inkscape:pagecheckerboard="1"
     inkscape:deskcolor="#505050"
     showgrid="false"
     inkscape:zoom="17.125"
     inkscape:cx="5.5766423"
     inkscape:cy="14.686131"
     inkscape:window-width="2560"
     inkscape:window-height="1363"
     inkscape:window-x="0"
     inkscape:window-y="0"
     inkscape:window-maximized="1"
     inkscape:current-layer="svg20279" />
  <path
     d="M 3,18.5858 V 3 H 13.5858 L 17,6.41421 V 13 c 0,4.9706 -4.0294,9 -9,9 H 6.41421 Z"
     fill="#4d4d4d"
     stroke="#f2f2f2"
     stroke-width="2"
     id="path20265" />
  <path
     d="M 17,7 H 7 v 14"
     stroke="#f2f2f2"
     id="path20267" />
  <path
     d="M 7,7 3,3"
     stroke="#f2f2f2"
     id="path20269" />
  <path
     d="M 29.5,7.5 H 21 V 21 h 0.5 c 4.4183,0 8,-3.5817 8,-8 z"
     stroke="#f2f2f2"
     stroke-width="1.5"
     id="path20271"
     style="fill:#37b24d" />
  <path
     d="M 16,7.5 H 7.5 V 21 H 8 c 4.4183,0 8,-3.5817 8,-8 z"
     id="path20273"
     style="fill:#adb5bd" />
  <path
     d="M 11,24.5 V 28 c 0,1.1046 0.8954,2 2,2 h 10 c 1.1046,0 2,-0.8954 2,-2 v -4.5"
     stroke="#f2f2f2"
     stroke-width="1.5"
     id="path20275" />
  <path
     d="m 22,26 3,-4 3,4 z"
     fill="#f2f2f2"
     id="path20277" />
</svg>
