<svg width="32" height="32" viewBox="0 0 32 32" fill="none" xmlns="http://www.w3.org/2000/svg">
<path fill-rule="evenodd" clip-rule="evenodd" d="M16 25C23.1797 25 29 20.7467 29 15.5C29 10.2533 23.1797 6 16 6C8.8203 6 3 10.2533 3 15.5C3 20.7467 8.8203 25 16 25ZM16 19.375C19.3137 19.375 22 17.6401 22 15.5C22 13.3599 19.3137 11.625 16 11.625C12.6863 11.625 10 13.3599 10 15.5C10 17.6401 12.6863 19.375 16 19.375Z" fill="#326276"/>
<path fill-rule="evenodd" clip-rule="evenodd" d="M7.35235 9.79385C5.17484 11.3664 4 13.4085 4 15.5C4 17.5915 5.17484 19.6336 7.35235 21.2062C9.5203 22.7718 12.5749 23.7765 16 23.7765C19.4251 23.7765 22.4797 22.7718 24.6477 21.2062C26.8252 19.6336 28 17.5915 28 15.5C28 13.4085 26.8252 11.3664 24.6477 9.79385C22.4797 8.22822 19.4251 7.22353 16 7.22353C12.5749 7.22353 9.5203 8.22822 7.35235 9.79385ZM6.26288 7.92918C8.8 6.09694 12.2454 5 16 5C19.7546 5 23.2 6.09694 25.7371 7.92918C28.2647 9.75452 30 12.4065 30 15.5C30 18.5935 28.2647 21.2455 25.7371 23.0708C23.2 24.9031 19.7546 26 16 26C12.2454 26 8.8 24.9031 6.26288 23.0708C3.7353 21.2455 2 18.5935 2 15.5C2 12.4065 3.7353 9.75452 6.26288 7.92918ZM12.2552 13.7564C11.3192 14.3538 11 15.0111 11 15.5C11 15.9889 11.3192 16.6462 12.2552 17.2436C13.1639 17.8235 14.4857 18.2176 16 18.2176C17.5143 18.2176 18.8361 17.8235 19.7448 17.2436C20.6808 16.6462 21 15.9889 21 15.5C21 15.0111 20.6808 14.3538 19.7448 13.7564C18.8361 13.1765 17.5143 12.7824 16 12.7824C14.4857 12.7824 13.1639 13.1765 12.2552 13.7564ZM11.2595 11.828C12.5224 11.022 14.2006 10.5588 16 10.5588C17.7994 10.5588 19.4776 11.022 20.7405 11.828C21.976 12.6166 23 13.874 23 15.5C23 17.126 21.976 18.3834 20.7405 19.172C19.4776 19.978 17.7994 20.4412 16 20.4412C14.2006 20.4412 12.5224 19.978 11.2595 19.172C10.024 18.3834 9 17.126 9 15.5C9 13.874 10.024 12.6166 11.2595 11.828Z" fill="#F2F2F2"/>
</svg>
