<?xml version="1.0" encoding="UTF-8" standalone="no"?>
<svg
   width="48"
   height="48"
   viewBox="0 0 32 32"
   fill="none"
   version="1.1"
   id="svg6545"
   sodipodi:docname="Part_Mirror.svg"
   inkscape:version="1.2.2 (b0a8486541, 2022-12-01)"
   xmlns:inkscape="http://www.inkscape.org/namespaces/inkscape"
   xmlns:sodipodi="http://sodipodi.sourceforge.net/DTD/sodipodi-0.dtd"
   xmlns="http://www.w3.org/2000/svg"
   xmlns:svg="http://www.w3.org/2000/svg">
  <defs
     id="defs6549" />
  <sodipodi:namedview
     id="namedview6547"
     pagecolor="#505050"
     bordercolor="#ffffff"
     borderopacity="1"
     inkscape:showpageshadow="0"
     inkscape:pageopacity="0"
     inkscape:pagecheckerboard="1"
     inkscape:deskcolor="#505050"
     showgrid="false"
     showguides="true"
     inkscape:zoom="8.5625"
     inkscape:cx="16.116788"
     inkscape:cy="30.189781"
     inkscape:window-width="2560"
     inkscape:window-height="1369"
     inkscape:window-x="0"
     inkscape:window-y="0"
     inkscape:window-maximized="1"
     inkscape:current-layer="svg6545">
    <sodipodi:guide
       position="-22.248175,30.656934"
       orientation="0,-1"
       id="guide6668"
       inkscape:locked="false" />
    <sodipodi:guide
       position="1.3430657,33.07056"
       orientation="1,0"
       id="guide6670"
       inkscape:locked="false" />
    <sodipodi:guide
       position="30.345499,1.3430657"
       orientation="0,-1"
       id="guide6672"
       inkscape:locked="false" />
    <sodipodi:guide
       position="30.695864,6.9099757"
       orientation="1,0"
       id="guide6674"
       inkscape:locked="false" />
  </sodipodi:namedview>
  <path
     d="M 25.454293,9 19.164408,3 h -6.289886 v 19 l 6.289886,6 h 11.531456 l -5.241571,-8.5 z"
     fill="#326276"
     id="path6533"
     style="stroke-width:1.02387;fill:#3eb535;fill-opacity:1" />
  <path
     fill-rule="evenodd"
     clip-rule="evenodd"
     d="M 25.454293,19.5 V 9 L 19.164408,3 h -6.289886 v 19 l 6.289886,6 H 30.695864 Z M 27.030119,26 23.357664,20.0446 V 10.5 H 20.736879 V 26 Z M 20.429828,9.5 h 2.583571 L 18.295984,5 h -2.58357 z m -0.741263,0.7071 v 15.4645 l -4.717414,-4.5 V 5.70713 Z"
     fill="#f2f2f2"
     id="path6535"
     style="stroke-width:1.02387" />
  <path
     d="m 12.874522,0 v 25 l 7.3382,7 V 7 Z"
     fill="#797979"
     id="path6537"
     style="stroke-width:1.02387" />
  <path
     fill-rule="evenodd"
     clip-rule="evenodd"
     d="m 13.922836,24.5858 5.241572,5 V 7.41421 l -5.241572,-5 z M 12.874522,25 l 7.3382,7 V 7 l -7.3382,-7 z"
     fill="#f2f2f2"
     id="path6539"
     style="stroke-width:1.02387" />
  <path
     d="M 17.067779,9 10.777894,3 H 4.4880084 v 11 l -3.1449427,8 6.2898853,6 h 9.434828 z"
     fill="#4d4d4d"
     id="path6541"
     style="stroke-width:1.02387;fill:#6c7086" />
  <path
     fill-rule="evenodd"
     clip-rule="evenodd"
     d="M 17.067779,9 10.777894,3 H 4.4880084 v 11 l -3.1449427,8 6.2898853,6 h 9.434828 z M 6.5244216,14.5159 6.5846368,14.3627 V 5.70713 l 4.7174142,4.49997 v 8.6298 z m -0.3996383,1.0165 -2.3445547,5.964 4.2938741,4.096 3.1004733,-5.4927 z M 12.043314,9.5 7.3258789,5 H 9.9094703 L 14.626884,9.5 Z M 9.034652,26 h 5.936499 V 10.5 h -2.620786 v 9.6261 z"
     fill="#f2f2f2"
     id="path6543"
     style="stroke-width:1.02387" />
</svg>
