<?xml version="1.0" encoding="UTF-8" standalone="no"?>
<svg
   width="48"
   height="48"
   viewBox="0 0 32 31.999999"
   fill="none"
   version="1.1"
   id="svg6"
   sodipodi:docname="PartDesign_Subtractive_Cylinder.svg"
   inkscape:version="1.2.2 (b0a8486541, 2022-12-01)"
   xmlns:inkscape="http://www.inkscape.org/namespaces/inkscape"
   xmlns:sodipodi="http://sodipodi.sourceforge.net/DTD/sodipodi-0.dtd"
   xmlns="http://www.w3.org/2000/svg"
   xmlns:svg="http://www.w3.org/2000/svg">
  <sodipodi:namedview
     id="namedview7"
     pagecolor="#505050"
     bordercolor="#ffffff"
     borderopacity="1"
     inkscape:showpageshadow="0"
     inkscape:pageopacity="0"
     inkscape:pagecheckerboard="1"
     inkscape:deskcolor="#505050"
     showgrid="false"
     inkscape:zoom="17.601707"
     inkscape:cx="18.691369"
     inkscape:cy="30.252748"
     inkscape:window-width="2560"
     inkscape:window-height="1363"
     inkscape:window-x="0"
     inkscape:window-y="0"
     inkscape:window-maximized="1"
     inkscape:current-layer="svg6"
     showguides="true">
    <sodipodi:guide
       position="-13.658692,30.63413"
       orientation="0,-1"
       id="guide605"
       inkscape:locked="false" />
    <sodipodi:guide
       position="1.2587422,32.669543"
       orientation="1,0"
       id="guide607"
       inkscape:locked="false" />
    <sodipodi:guide
       position="30.665104,32.669543"
       orientation="1,0"
       id="guide609"
       inkscape:locked="false" />
    <sodipodi:guide
       position="-7.8470527,1.3348962"
       orientation="0,-1"
       id="guide611"
       inkscape:locked="false" />
    <sodipodi:guide
       position="15.983298,34.00738"
       orientation="1,0"
       id="guide613"
       inkscape:locked="false" />
  </sodipodi:namedview>
  <defs
     id="defs10" />
  <path
     fill-rule="evenodd"
     clip-rule="evenodd"
     d="m 16.007274,1.3236007 c -2.817543,0 -5.420592,0.5054008 -7.3600515,1.367362 C 7.6788846,3.1213399 6.8279469,3.6619533 6.2043848,4.3171839 5.5754847,4.9780241 5.1358667,5.8051533 5.1358667,6.7593041 V 25.240695 c 0,0.954184 0.439618,1.78128 1.0685181,2.442154 0.6235621,0.65522 1.4744998,1.195854 2.4428377,1.626144 1.9394595,0.861994 4.5425085,1.367406 7.3600515,1.367406 2.817543,0 5.420592,-0.505412 7.360051,-1.367406 0.968316,-0.43029 1.819221,-0.970924 2.442805,-1.626144 0.628911,-0.660874 1.068551,-1.48797 1.068551,-2.442154 V 6.7593041 c 0,-0.9541508 -0.43964,-1.78128 -1.068551,-2.4421202 C 25.186546,3.6619533 24.335641,3.1213399 23.367325,2.6909627 21.427866,1.8290015 18.824817,1.3236007 16.007274,1.3236007 Z m 0,2.1742814 c -2.344854,0 -4.441622,0.4168858 -5.931874,1.0688766 -0.7459968,0.3263596 -1.3155389,0.7009232 -1.6909938,1.0892824 -0.3729218,0.38575 -0.5306877,0.7577478 -0.5306877,1.103263 0,0.345515 0.1577659,0.7175128 0.5306877,1.1032628 0.3754549,0.3883594 0.944997,0.7629229 1.6909938,1.0892825 1.490252,0.6519581 3.58702,1.0688766 5.931874,1.0688766 2.344854,0 4.441622,-0.4169185 5.931875,-1.0688766 0.745995,-0.3263596 1.315548,-0.700923 1.690938,-1.0892824 0.372998,-0.38575 0.530742,-0.7577479 0.530742,-1.1032629 0,-0.3455152 -0.157744,-0.717513 -0.530742,-1.103263 C 23.254697,5.2676819 22.685144,4.8931183 21.939149,4.5667587 20.448896,3.9147679 18.352128,3.4978821 16.007274,3.4978821 Z M 7.3101482,25.240695 V 8.2766697 c 0.088896,0.1182048 0.1869012,0.2321264 0.2926691,0.3415253 0.5047377,0.5220886 1.2088678,0.9674573 2.0367472,1.3296927 1.6574545,0.7251233 3.9092495,1.1599793 6.3677095,1.1599793 2.45846,0 4.710255,-0.434856 6.367709,-1.1599793 0.827858,-0.3622354 1.531998,-0.8076041 2.036758,-1.3296927 0.105779,-0.1093989 0.20373,-0.2233205 0.292658,-0.3415252 V 25.240695 c 0,0.246672 -0.107953,0.563574 -0.469318,0.943204 -0.366584,0.385282 -0.94853,0.781654 -1.75084,1.138236 -1.601794,0.711968 -3.890768,1.179982 -6.476967,1.179982 -2.586199,0 -4.875173,-0.468014 -6.4769672,-1.179982 C 8.7280188,26.965553 8.1460724,26.569181 7.7794233,26.183899 7.4181012,25.804269 7.3101482,25.487367 7.3101482,25.240695 Z"
     fill="#f2f2f2"
     id="path4"
     style="stroke-width:1.08714" />
  <path
     style="opacity:1;fill:#f03e3e;stroke:none;stroke-width:0.666667;stroke-linecap:square;paint-order:markers fill stroke"
     d="M 7.3101482,8.2766697 V 25.240695 c 0.03447,1.426611 3.5501388,3.274414 8.6971258,3.261422 4.689348,-0.0314 8.606387,-1.587674 8.697125,-3.261422 V 8.2766697 C 22.937054,10.339256 19.724052,10.97259 16.007274,11.107867 11.611314,10.985206 8.7593701,10.015639 7.3101482,8.2766697 Z"
     id="path913" />
  <ellipse
     style="opacity:1;fill:#f03e3e;fill-opacity:1;stroke:none;stroke-width:0.735455;stroke-linecap:square;paint-order:markers fill stroke"
     id="path1063"
     cx="16.026743"
     cy="6.759304"
     rx="8.1340313"
     ry="3.2614121" />
  <rect
     style="fill:#f1f3f5;fill-rule:evenodd;stroke:none;stroke-width:2.89635;stroke-linecap:round;stroke-dashoffset:7.5;paint-order:markers fill stroke"
     id="rect375"
     width="10"
     height="10"
     x="22"
     y="21.951931"
     rx="2.6666665"
     ry="2.6666665" />
  <rect
     style="fill:#495057;fill-rule:evenodd;stroke:none;stroke-width:1.26098;stroke-linecap:round;stroke-dashoffset:7.5;paint-order:markers fill stroke"
     id="rect984"
     width="6.6666665"
     height="2"
     x="23.666664"
     y="25.951931" />
</svg>
