<?xml version="1.0" encoding="UTF-8" standalone="no"?>
<svg
   width="48"
   height="48"
   viewBox="0 0 32 32"
   fill="none"
   version="1.1"
   id="svg12"
   xmlns="http://www.w3.org/2000/svg"
   xmlns:svg="http://www.w3.org/2000/svg">
  <defs
     id="defs16" />
  <path
     fill-rule="evenodd"
     clip-rule="evenodd"
     d="m 24.61823,5.5930987 c 0,-2.3579795 -3.823014,-4.2694977 -8.538995,-4.2694977 -4.71598,0 -8.5390003,1.9115182 -8.5390003,4.2694977 v 2.0996854 c 0,4.2575959 -1.8392676,7.4125419 -3.3456211,11.3947019 L 2.2033626,24.35167 16.079235,30.676397 29.955103,24.35167 27.963809,19.087486 C 26.45753,15.105326 24.61823,11.95038 24.61823,7.6927841 Z"
     fill="#326276"
     id="path2"
     style="fill:#a6e3a1;fill-opacity:0.8;stroke-width:1.06737" />
  <path
     fill-rule="evenodd"
     clip-rule="evenodd"
     d="M 4.1946136,19.087486 2.2033626,24.35167 16.079235,30.676397 29.955103,24.35167 27.963809,19.087486 C 26.45753,15.105326 24.61823,11.95038 24.61823,7.6927841 V 5.5930987 c 0,-2.3579795 -3.823014,-4.2694977 -8.538995,-4.2694977 -4.71598,0 -8.5390003,1.9115182 -8.5390003,4.2694977 v 2.0996854 c 0,4.2575959 -1.8392676,7.4125419 -3.3456211,11.3947019 z M 27.273111,23.295183 25.967178,19.842868 C 24.369533,15.619267 22.483481,12.208365 22.483481,7.6927841 V 5.5930987 c 0,-0.00226 -1.06e-4,-0.00557 -0.0014,-0.011613 -0.0013,-0.00631 -0.0045,-0.019479 -0.01302,-0.040272 C 22.451781,5.499063 22.41058,5.4200665 22.317398,5.3099242 22.122709,5.0797556 21.75724,4.780848 21.162499,4.4834882 19.971843,3.8881708 18.177694,3.4583498 16.079235,3.4583498 c -2.098458,0 -3.892607,0.429821 -5.083263,1.0251384 -0.594741,0.2973598 -0.96021,0.5962674 -1.154901,0.826436 -0.09318,0.1101423 -0.1343842,0.1891388 -0.1516752,0.2312894 -0.0085,0.020793 -0.01174,0.033964 -0.01302,0.040272 -0.0013,0.00605 -0.0014,0.00935 -0.0014,0.011613 V 7.692784 c 0,4.515581 -1.8860529,7.926483 -3.4836989,12.150084 l -1.3059129,3.452315 11.19387,5.000436 z"
     fill="#f2f2f2"
     id="path4"
     style="stroke:#f2f2f2;stroke-width:0.333333;stroke-dasharray:none;stroke-opacity:1" />
  <path
     d="m 23.550856,5.5930987 c 0,2.0632347 -3.345151,3.7358103 -7.471621,3.7358103 -4.126469,0 -7.4716259,-1.6725756 -7.4716259,-3.7358103 0,-2.0632348 3.3451569,-3.7358105 7.4716259,-3.7358105 4.12647,0 7.471621,1.6725757 7.471621,3.7358105 z"
     fill="#4D4D4D"
     id="path6"
     style="fill:#6c7086;fill-opacity:0.8;stroke-width:1.06737" />
  <path
     fill-rule="evenodd"
     clip-rule="evenodd"
     d="m 20.885089,7.2800305 c 1.238688,-0.6193227 1.598392,-1.2774123 1.598392,-1.6869318 0,-0.4095197 -0.359704,-1.0676093 -1.598392,-1.6869319 -1.174753,-0.5873869 -2.872412,-0.9815042 -4.805854,-0.9815042 -1.933441,0 -3.631101,0.3941173 -4.805853,0.9815042 -1.238688,0.6193226 -1.5983966,1.2774122 -1.5983966,1.6869319 0,0.4095195 0.3597086,1.0676091 1.5983966,1.6869318 1.174752,0.5873868 2.872412,0.9815042 4.805853,0.9815042 1.933442,0 3.631101,-0.3941174 4.805854,-0.9815042 z M 16.079235,9.328909 c 4.12647,0 7.471621,-1.6725756 7.471621,-3.7358103 0,-2.0632348 -3.345151,-3.7358105 -7.471621,-3.7358105 -4.126469,0 -7.4716259,1.6725757 -7.4716259,3.7358105 0,2.0632347 3.3451569,3.7358103 7.4716259,3.7358103 z"
     fill="#f2f2f2"
     id="path8"
     style="stroke-width:1.06737;stroke-dasharray:none" />
  <path
     d="m 15.011861,29.967528 h 2.134748 c 0,0 -0.533687,-4.269498 -0.533687,-10.673744 V 8.6200392 H 15.545548 V 19.293784 c 0,6.404246 -0.533687,10.673744 -0.533687,10.673744 z"
     fill="#f2f2f2"
     id="path10"
     style="stroke:#f2f2f2;stroke-width:0.534;stroke-dasharray:none;stroke-opacity:1" />
</svg>
