<svg width="32" height="32" viewBox="0 0 32 32" fill="none" xmlns="http://www.w3.org/2000/svg">
<path d="M24.9186 6.60572L27.0589 8.74595L21.6859 13.5219L19.8618 11.9005C17.903 10.1594 14.9028 10.339 13.1657 12.3014L12.8824 12.6215C11.5082 14.1739 11.4601 16.4929 12.7685 18.101L13.2266 18.664C13.4054 18.8838 13.6412 19.0502 13.9081 19.1451L14.1976 19.248C15.4971 19.71 16.4308 20.8578 16.6186 22.2242L16.85 23.9086C16.9428 24.584 16.6686 25.2578 16.1304 25.6764C14.0503 27.2942 11.095 27.1276 9.20996 25.2862L7.61944 23.7326C2.87549 19.0986 2.83083 11.4821 7.52013 6.79279L7.7072 6.60571C12.46 1.85291 20.1658 1.85291 24.9186 6.60572Z" fill="#326276" stroke="#F2F2F2" stroke-width="2"/>
<ellipse cx="25.1765" cy="11.9053" rx="3.56983" ry="2.84682" transform="rotate(-45 25.1765 11.9053)" fill="#4D4D4D" stroke="#F2F2F2" stroke-width="2"/>
<ellipse cx="15.0166" cy="23.2711" rx="3.59478" ry="2.73642" transform="rotate(-86.3375 15.0166 23.2711)" fill="#326276" stroke="#F2F2F2" stroke-width="2"/>
<path d="M13.5 20L12.5 19.5L10.5 21L11.5 25.5L12 26H13.5C13.3333 25.5 12.5 25 12.5 23C12.5 21 13.1667 20.5 13.5 20Z" fill="#326276"/>
<circle cx="16.5" cy="15.5" r="1.5" fill="#F2F2F2"/>
<path d="M22 12.5L21 11.5V8.5L23.5 7L25 8L26 9C25.5 8.83333 24.5 8.5 23 10C22.2 10.8 22.1667 11.8333 22 12.5Z" fill="#326276"/>
</svg>
