<?xml version="1.0" encoding="UTF-8" standalone="no"?>
<svg
   width="48"
   height="48"
   viewBox="0 0 32 32"
   fill="none"
   version="1.1"
   id="svg9429"
   sodipodi:docname="PartDesign_Clone.svg"
   inkscape:version="1.2.2 (b0a8486541, 2022-12-01)"
   xmlns:inkscape="http://www.inkscape.org/namespaces/inkscape"
   xmlns:sodipodi="http://sodipodi.sourceforge.net/DTD/sodipodi-0.dtd"
   xmlns="http://www.w3.org/2000/svg"
   xmlns:svg="http://www.w3.org/2000/svg">
  <defs
     id="defs9433" />
  <sodipodi:namedview
     id="namedview9431"
     pagecolor="#505050"
     bordercolor="#ffffff"
     borderopacity="1"
     inkscape:showpageshadow="0"
     inkscape:pageopacity="0"
     inkscape:pagecheckerboard="1"
     inkscape:deskcolor="#505050"
     showgrid="false"
     showguides="true"
     inkscape:zoom="17.125"
     inkscape:cx="16.262774"
     inkscape:cy="25.489051"
     inkscape:window-width="2560"
     inkscape:window-height="1363"
     inkscape:window-x="0"
     inkscape:window-y="0"
     inkscape:window-maximized="1"
     inkscape:current-layer="svg9429">
    <sodipodi:guide
       position="-2.8029197,30.656934"
       orientation="0,-1"
       id="guide9552"
       inkscape:locked="false" />
  </sodipodi:namedview>
  <path
     d="M 20.2721,17.704877 C 16.8397,16.890277 13,14.359477 13,14.359477 c 0,0 4.4576,-3.3958 9.0753,-2.7048 3.0199,0.4519 5.4271,1.9706 6.7315,2.9674 0.5466,0.4178 0.4211,1.2127 -0.2148,1.4751 -1.995,0.823 -5.8609,2.1913 -8.3199,1.6077 z"
     stroke="#f2f2f2"
     stroke-width="2"
     id="path9413"
     style="fill:#495057" />
  <path
     d="m 11.6062,17.704877 c 3.4324,-0.8146 7.2721,-3.3454 7.2721,-3.3454 0,0 -4.4576,-3.3958 -9.07532,-2.7048 -3.01988,0.4519 -5.42712,1.9706 -6.73147,2.9674 -0.5466,0.4178 -0.42115,1.2127 0.21482,1.4751 1.995,0.823 5.86089,2.1913 8.31987,1.6077 z"
     stroke="#f2f2f2"
     stroke-width="2"
     id="path9415"
     style="fill:#495057" />
  <path
     d="m 22,23.723077 v 0.783 c 0,3.3137 -2.6863,6 -6,6 -3.3137,0 -6,-2.6863 -6,-6 v -0.783 c 0,-0.8003 -0.18633,-1.5897 -0.54424,-2.3055 L 8.575,19.656077 C 7.53923,17.584577 7,15.300277 7,12.984277 v -2.4782 h 18 v 2.4782 c 0,2.316 -0.5392,4.6003 -1.575,6.6718 l -0.8808,1.7615 C 22.1863,22.133377 22,22.922777 22,23.723077 Z"
     stroke="#f2f2f2"
     stroke-width="2"
     id="path9417"
     style="fill:#495057" />
  <path
     d="m 15,27.006077 v 3 h 2 v -3 l 2,-1.5 -1,-1 h -4 l -1,1 z"
     fill="#f2f2f2"
     id="path9419" />
  <circle
     cx="20.5"
     cy="16.006079"
     r="1.5"
     fill="#f2f2f2"
     id="circle9421" />
  <circle
     cx="11.5"
     cy="16.006079"
     r="1.5"
     fill="#f2f2f2"
     id="circle9423" />
  <path
     fill-rule="evenodd"
     clip-rule="evenodd"
     d="m 19.0288,10.484637 c -0.8405,0.64084 -1.8902,1.02144 -3.0288,1.02144 -1.1386,0 -2.1883,-0.3806 -3.0288,-1.02144 -0.6331,0.63124 -1.5066,1.02144 -2.4712,1.02144 -0.5388,0 -1.04917,-0.1217 -1.50509,-0.3392 -0.08287,1.3058 -1.1682,2.3392 -2.49491,2.3392 -1.38071,0 -2.5,-1.1193 -2.5,-2.5 0,-1.3807049 1.11929,-2.4999952 2.5,-2.4999952 0.187,0 0.3692,0.02053 0.54447,0.05946 C 7.01521,8.3833718 7,8.1965018 7,8.0060818 7,6.0730822 8.567,4.5060822 10.5,4.5060822 c 0.3003,0 0.5918,0.03783 0.87,0.10897 0.7457,-1.8239 2.5378,-3.10897 4.63,-3.10897 2.0922,0 3.8843,1.28508 4.63,3.10898 0.2782,-0.07115 0.5697,-0.10898 0.87,-0.10898 1.933,0 3.5,1.567 3.5,3.4999996 0,0.19042 -0.0152,0.37729 -0.0445,0.55946 0.1753,-0.03893 0.3575,-0.05946 0.5445,-0.05946 1.3807,0 2.5,1.1192903 2.5,2.4999952 0,1.3807 -1.1193,2.5 -2.5,2.5 -1.3267,0 -2.412,-1.0334 -2.4949,-2.3392 -0.4559,0.2175 -0.9663,0.3392 -1.5051,0.3392 -0.9646,0 -1.8381,-0.3902 -2.4712,-1.02144 z"
     id="path9425"
     style="fill:#495057" />
  <path
     d="m 19.0288,10.484637 0.7061,-0.7081549 -0.6182,-0.61635 -0.6942,0.52929 z m -6.0576,0 0.6063,-0.7952149 -0.6942,-0.52929 -0.6182,0.61635 z M 8.99491,11.166877 9.42547,10.26428 8.0906,9.6275021 7.99692,11.103477 Z M 7.04447,8.5655418 6.82765,9.5417521 8.26543,9.8610921 8.03181,8.4069218 Z M 11.37,4.6150522 l -0.2478,0.96881 0.8438,0.21584 0.3296,-0.8062 z m 9.26,10e-6 -0.9256,0.37844 0.3296,0.80621 0.8438,-0.21584 z m 4.3255,3.9504796 -0.9873,-0.15862 -0.2336,1.4541803 1.4378,-0.31935 z m -1.9504,2.6013352 0.998,-0.0634 L 23.9094,9.6275021 22.5745,10.26428 Z M 16,12.506077 c 1.3652,0 2.6265,-0.4572 3.6351,-1.2262 L 18.4225,9.6894221 C 17.7501,10.20209 16.912,10.506077 16,10.506077 Z m -3.6351,-1.2262 c 1.0086,0.769 2.2699,1.2262 3.6351,1.2262 v -2 c -0.912,0 -1.7501,-0.303987 -2.4225,-0.8166549 z m -1.8649,1.2262 c 1.2399,0 2.3644,-0.5028 3.1772,-1.3133 L 12.2651,9.7764821 C 11.8118,10.22843 11.1893,10.506077 10.5,10.506077 Z m -1.93564,-0.4367 c 0.58753,0.2803 1.24472,0.4367 1.93564,0.4367 v -2 c -0.3867,0 -0.75022,-0.0871 -1.07453,-0.241797 z m -0.56744,-0.9659 c -0.04966,0.7826 -0.70128,1.4026 -1.49692,1.4026 v 2 c 1.85777,0 3.37683,-1.4468 3.49291,-3.2759 z M 6.5,12.506077 c -0.82843,0 -1.5,-0.6716 -1.5,-1.5 H 3 c 0,1.933 1.567,3.5 3.5,3.5 z m -1.5,-1.5 C 5,10.177651 5.67157,9.5060821 6.5,9.5060821 V 7.5060822 c -1.933,0 -3.5,1.5669996 -3.5,3.4999948 z M 6.5,9.5060821 c 0.11359,0 0.2231,0.01245 0.32765,0.03567 L 7.2613,7.5893322 C 7.0153,7.5346922 6.7604,7.5060822 6.5,7.5060822 Z M 6,8.0060818 c 0,0.24375 0.01947,0.48365 0.05713,0.71808 l 1.97468,-0.31724 C 8.01094,8.2770118 8,8.1431818 8,8.0060818 Z m 4.5,-4.4999996 c -2.48528,0 -4.5,2.01472 -4.5,4.4999996 H 8 C 8,6.6253722 9.11929,5.5060822 10.5,5.5060822 Z m 1.1178,0.14017 c -0.3585,-0.09169 -0.7332,-0.14017 -1.1178,-0.14017 v 2 c 0.2161,0 0.4243,0.02717 0.6222,0.07778 z M 16,0.50608271 c -2.5123,0 -4.6616,1.54372949 -5.5557,3.73052949 l 1.8513,0.75689 c 0.5973,-1.461 2.0322,-2.48742 3.7044,-2.48742 z M 21.5557,4.2366222 C 20.6616,2.0498122 18.5123,0.50608271 16,0.50608271 V 2.5060822 c 1.6722,0 3.1071,1.02642 3.7044,2.48742 z M 21.5,3.5060822 c -0.3846,0 -0.7593,0.04848 -1.1178,0.14017 l 0.4956,1.93762 c 0.1979,-0.05061 0.4062,-0.07779 0.6222,-0.07779 z M 26,8.0060818 C 26,5.5208022 23.9853,3.5060822 21.5,3.5060822 v 2 c 1.3807,0 2.5,1.11929 2.5,2.4999996 z m -0.0571,0.71808 C 25.9805,8.4897418 26,8.2498318 26,8.0060818 h -2 c 0,0.1371 -0.0109,0.27093 -0.0318,0.40084 z M 25.5,7.5060822 c -0.2604,0 -0.5153,0.02862 -0.7613,0.08325 l 0.4337,1.9524199 c 0.1045,-0.02322 0.214,-0.03567 0.3276,-0.03567 z M 29,11.006077 C 29,9.0730818 27.433,7.5060822 25.5,7.5060822 v 1.9999999 c 0.8284,0 1.5,0.6715689 1.5,1.4999949 z m -3.5,3.5 c 1.933,0 3.5,-1.567 3.5,-3.5 h -2 c 0,0.8284 -0.6716,1.5 -1.5,1.5 z m -3.4929,-3.2759 c 0.1161,1.8291 1.6351,3.2759 3.4929,3.2759 v -2 c -0.7956,0 -1.4473,-0.62 -1.4969,-1.4026 z m -0.5071,1.2759 c 0.6909,0 1.3481,-0.1564 1.9356,-0.4367 L 22.5745,10.26428 c -0.3243,0.154698 -0.6878,0.241797 -1.0745,0.241797 z m -3.1772,-1.3133 c 0.8128,0.8105 1.9373,1.3133 3.1772,1.3133 v -2 c -0.6893,0 -1.3118,-0.277647 -1.7651,-0.7295949 z"
     fill="#f2f2f2"
     id="path9427" />
</svg>
