<?xml version="1.0" encoding="UTF-8" standalone="no"?>
<svg
   width="48"
   height="48"
   viewBox="0 0 32 32"
   fill="none"
   version="1.1"
   id="svg6"
   sodipodi:docname="PartDesign_Subtractive_Torus.svg"
   inkscape:version="1.2.2 (b0a8486541, 2022-12-01)"
   xmlns:inkscape="http://www.inkscape.org/namespaces/inkscape"
   xmlns:sodipodi="http://sodipodi.sourceforge.net/DTD/sodipodi-0.dtd"
   xmlns="http://www.w3.org/2000/svg"
   xmlns:svg="http://www.w3.org/2000/svg">
  <defs
     id="defs10" />
  <sodipodi:namedview
     id="namedview8"
     pagecolor="#505050"
     bordercolor="#ffffff"
     borderopacity="1"
     inkscape:showpageshadow="0"
     inkscape:pageopacity="0"
     inkscape:pagecheckerboard="1"
     inkscape:deskcolor="#505050"
     showgrid="false"
     showguides="true"
     inkscape:zoom="17.125"
     inkscape:cx="11.737226"
     inkscape:cy="28"
     inkscape:window-width="2560"
     inkscape:window-height="1363"
     inkscape:window-x="0"
     inkscape:window-y="0"
     inkscape:window-maximized="1"
     inkscape:current-layer="svg6">
    <sodipodi:guide
       position="1.323601,35.659367"
       orientation="1,0"
       id="guide1055"
       inkscape:locked="false" />
    <sodipodi:guide
       position="30.59854,33.167883"
       orientation="1,0"
       id="guide1057"
       inkscape:locked="false" />
    <sodipodi:guide
       position="-12.029197,30.59854"
       orientation="0,-1"
       id="guide1059"
       inkscape:locked="false" />
    <sodipodi:guide
       position="-7.6690998,1.3625304"
       orientation="0,-1"
       id="guide1061"
       inkscape:locked="false" />
  </sodipodi:namedview>
  <path
     id="path1053"
     style="fill:#f03e3e;fill-opacity:1;fill-rule:evenodd;stroke:#f1f3f5;stroke-width:2;stroke-linecap:round;stroke-dashoffset:4.8;stroke-opacity:1;paint-order:markers fill stroke"
     d="M 15.960938 5 A 13.637469 10.222059 0 0 0 2.3242188 15.222656 A 13.637469 10.222059 0 0 0 15.960938 25.44401 A 13.637469 10.222059 0 0 0 29.598958 15.222656 A 13.637469 10.222059 0 0 0 15.960938 5 z M 15.960938 11.89974 A 5 3.5999997 0 0 1 20.960938 15.5 A 5 3.5999997 0 0 1 15.960938 19.10026 A 5 3.5999997 0 0 1 10.960938 15.5 A 5 3.5999997 0 0 1 15.960938 11.89974 z " />
  <path
     style="fill:none;fill-opacity:1;fill-rule:evenodd;stroke:#f1f3f5;stroke-width:1;stroke-linecap:round;stroke-dasharray:none;stroke-dashoffset:2.4;stroke-opacity:1;paint-order:markers fill stroke"
     d="M 10.635628,15.5 C 9.8147839,11.350237 3.6327521,11.369247 2.8380108,15.5"
     id="path347-6"
     sodipodi:nodetypes="cc" />
  <path
     style="fill:none;fill-opacity:1;fill-rule:evenodd;stroke:#f1f3f5;stroke-width:1;stroke-linecap:round;stroke-dasharray:none;stroke-dashoffset:2.4;stroke-opacity:1;paint-order:markers fill stroke"
     d="m 29.089682,14.832804 c -0.820844,-4.149763 -7.002876,-4.130753 -7.797617,0"
     id="path347-6-5"
     sodipodi:nodetypes="cc" />
  <rect
     style="fill:#f1f3f5;fill-rule:evenodd;stroke:none;stroke-width:2.89635;stroke-linecap:round;stroke-dashoffset:7.5;paint-order:markers fill stroke"
     id="rect375"
     width="10"
     height="10"
     x="22"
     y="22"
     rx="2.6666665"
     ry="2.6666665" />
  <rect
     style="fill:#495057;fill-rule:evenodd;stroke:none;stroke-width:1.26098;stroke-linecap:round;stroke-dashoffset:7.5;paint-order:markers fill stroke"
     id="rect984"
     width="6.6666665"
     height="2"
     x="23.666664"
     y="26" />
</svg>
