<?xml version="1.0" encoding="UTF-8" standalone="no"?>
<svg
   width="48"
   height="48"
   viewBox="0 0 48 48"
   fill="none"
   version="1.1"
   id="svg20"
   sodipodi:docname="Part_ExplodeCompound.svg"
   inkscape:version="1.2.2 (b0a8486541, 2022-12-01)"
   xmlns:inkscape="http://www.inkscape.org/namespaces/inkscape"
   xmlns:sodipodi="http://sodipodi.sourceforge.net/DTD/sodipodi-0.dtd"
   xmlns="http://www.w3.org/2000/svg"
   xmlns:svg="http://www.w3.org/2000/svg">
  <defs
     id="defs24" />
  <sodipodi:namedview
     id="namedview22"
     pagecolor="#505050"
     bordercolor="#ffffff"
     borderopacity="1"
     inkscape:showpageshadow="0"
     inkscape:pageopacity="0"
     inkscape:pagecheckerboard="1"
     inkscape:deskcolor="#505050"
     showgrid="false"
     showguides="true"
     inkscape:zoom="17.125"
     inkscape:cx="18.189781"
     inkscape:cy="24.262774"
     inkscape:window-width="2560"
     inkscape:window-height="1369"
     inkscape:window-x="0"
     inkscape:window-y="0"
     inkscape:window-maximized="1"
     inkscape:current-layer="svg20">
    <sodipodi:guide
       position="-10.213139,46.00292"
       orientation="0,-1"
       id="guide253"
       inkscape:locked="false" />
    <sodipodi:guide
       position="2.0437956,44.759124"
       orientation="1,0"
       id="guide255"
       inkscape:locked="false" />
    <sodipodi:guide
       position="45.956204,25.372263"
       orientation="1,0"
       id="guide257"
       inkscape:locked="false" />
    <sodipodi:guide
       position="3.9124088,1.9562044"
       orientation="0,-1"
       id="guide259"
       inkscape:locked="false" />
  </sodipodi:namedview>
  <rect
     x="7.1491976"
     y="6.4017515"
     width="30.832701"
     height="32.300926"
     rx="1.4682238"
     fill="#797979"
     id="rect2"
     style="stroke-width:1.46822" />
  <path
     d="M 11.553867,30.518503 V 21.08399 h 9.434513 l 3.779502,3.779502 v 9.434513 h -9.434513 z"
     fill="#4d4d4d"
     stroke="#f2f2f2"
     stroke-width="2.93645"
     id="path4" />
  <rect
     x="15.126495"
     y="24.656618"
     width="9.2987461"
     height="9.2987461"
     stroke="#f2f2f2"
     id="rect6"
     style="stroke-width:1.46822" />
  <path
     d="m 29.847202,12.158173 2.500386,2.600415 c 0.789023,0.820444 1.229637,1.914564 1.229637,3.052878 v 1.8043 c 0,2.4327 -1.971971,4.404672 -4.404671,4.404672 h -1.23786 c -1.168266,0 -2.288667,-0.464106 -3.11469,-1.290128 L 21.653339,19.563644 C 20.827316,18.737622 20.36321,17.61722 20.36321,16.448954 v -1.237859 c 0,-2.432627 1.971972,-4.404672 4.404672,-4.404672 h 1.904286 c 1.198218,0 2.344607,0.488096 3.175034,1.35175 z"
     fill="#4d4d4d"
     stroke="#f2f2f2"
     stroke-width="2.93645"
     id="path8" />
  <rect
     x="23.935846"
     y="14.379052"
     width="9.2987461"
     height="9.2987461"
     rx="4.6493807"
     stroke="#f2f2f2"
     id="rect10"
     style="stroke-width:1.46822" />
  <path
     d="M 10.085645,3.4653039 H 8.6174208 c -2.4326267,0 -4.4046715,1.9720448 -4.4046715,4.4046715 V 37.234452 c 0,2.432701 1.9720448,4.404672 4.4046715,4.404672 h 1.4682242"
     stroke="#f2f2f2"
     stroke-width="2.93645"
     id="path12" />
  <path
     d="m 35.045449,3.4653039 h 1.468224 c 2.4327,0 4.404671,1.9720448 4.404671,4.4046715 V 26.956886"
     stroke="#f2f2f2"
     stroke-width="2.93645"
     id="path14" />
  <path
     d="m 29.172554,32.829781 c 0,-1.6218 1.314647,-2.936448 2.936447,-2.936448 h 10.277567 c 1.6218,0 2.936448,1.314648 2.936448,2.936448 v 10.277567 c 0,1.6218 -1.314648,2.936448 -2.936448,2.936448 H 32.109001 c -1.6218,0 -2.936447,-1.314648 -2.936447,-2.936448 z"
     fill="#f2f2f2"
     id="path16"
     style="stroke-width:1.46822" />
  <rect
     x="33.577221"
     y="37.234451"
     width="7.3411193"
     height="1.4682238"
     fill="#4d4d4d"
     id="rect18"
     style="stroke-width:1.46822" />
</svg>
