<?xml version="1.0" encoding="UTF-8" standalone="no"?>
<svg
   width="32.61422"
   height="44.029198"
   viewBox="0 0 21.742813 29.352798"
   fill="none"
   version="1.1"
   id="svg6"
   xmlns="http://www.w3.org/2000/svg"
   xmlns:svg="http://www.w3.org/2000/svg">
  <defs
     id="defs10" />
  <path
     fill-rule="evenodd"
     clip-rule="evenodd"
     d="M 10.871407,0 C 8.0538636,0 5.4508146,0.50540079 3.5113556,1.367362 2.5430177,1.7977392 1.69208,2.3383526 1.0685179,2.9935832 0.43961786,3.6544234 -1.4482422e-7,4.4815526 -1.4482422e-7,5.4357034 V 23.917094 c 0,0.954184 0.43961800482422,1.78128 1.06851804482422,2.442154 0.6235621,0.65522 1.4744998,1.195854 2.4428377,1.626144 1.939459,0.861994 4.542508,1.367406 7.3600514,1.367406 2.817543,0 5.420592,-0.505412 7.360051,-1.367406 0.968316,-0.43029 1.819221,-0.970924 2.442805,-1.626144 0.628911,-0.660874 1.068551,-1.48797 1.068551,-2.442154 V 5.4357034 c 0,-0.9541508 -0.43964,-1.78128 -1.068551,-2.4421202 C 20.050679,2.3383526 19.199774,1.7977392 18.231458,1.367362 16.291999,0.50540079 13.68895,0 10.871407,0 Z m 0,2.1742814 c -2.3448544,0 -4.4416224,0.4168858 -5.9318744,1.0688766 -0.7459963,0.3263596 -1.3155384,0.7009232 -1.6909933,1.0892824 -0.3729218,0.38575 -0.5306877,0.7577478 -0.5306877,1.103263 0,0.345515 0.1577659,0.7175128 0.5306877,1.1032628 0.3754549,0.3883594 0.944997,0.7629228 1.6909933,1.0892824 1.490252,0.6519582 3.58702,1.0688764 5.9318744,1.0688764 2.344854,0 4.441622,-0.4169182 5.931875,-1.0688764 0.745995,-0.3263596 1.315548,-0.700923 1.690938,-1.0892824 0.372998,-0.38575 0.530742,-0.7577478 0.530742,-1.1032628 0,-0.3455152 -0.157744,-0.717513 -0.530742,-1.103263 C 18.11883,3.9440812 17.549277,3.5695176 16.803282,3.243158 15.313029,2.5911672 13.216261,2.1742814 10.871407,2.1742814 Z M 2.1742813,23.917094 V 6.953069 c 0.088896,0.1182048 0.1869012,0.2321264 0.2926691,0.3415252 0.5047377,0.5220886 1.2088678,0.9674574 2.0367472,1.3296928 1.657454,0.725123 3.909249,1.159979 6.3677094,1.159979 2.45846,0 4.710255,-0.434856 6.367709,-1.159979 0.827858,-0.3622354 1.531998,-0.8076042 2.036758,-1.3296928 0.105779,-0.1093988 0.20373,-0.2233204 0.292658,-0.3415252 v 16.964025 c 0,0.246672 -0.107953,0.563574 -0.469318,0.943204 -0.366584,0.385282 -0.94853,0.781654 -1.75084,1.138236 -1.601794,0.711968 -3.890768,1.179982 -6.476967,1.179982 -2.5861994,0 -4.8751734,-0.468014 -6.4769671,-1.179982 C 3.5921519,25.641952 3.0102055,25.24558 2.6435564,24.860298 2.2822343,24.480668 2.1742813,24.163766 2.1742813,23.917094 Z"
     fill="#f2f2f2"
     id="path4"
     style="stroke-width:1.08714" />
  <path
     style="opacity:0.8;fill:#89b4fa;stroke:none;stroke-width:0.666667;stroke-linecap:square;paint-order:markers fill stroke"
     d="m 2.1742813,6.953069 v 16.964025 c 0.03447,1.426611 3.5501383,3.274414 8.6971257,3.261422 4.689348,-0.0314 8.606387,-1.587674 8.697125,-3.261422 V 6.953069 C 17.801187,9.015655 14.588185,9.648989 10.871407,9.784266 6.4754466,9.661605 3.6235032,8.692038 2.1742813,6.953069 Z"
     id="path913" />
  <ellipse
     style="opacity:0.8;fill:#a9c6fa;fill-opacity:1;stroke:none;stroke-width:0.735455;stroke-linecap:square;paint-order:markers fill stroke"
     id="path1063"
     cx="10.890871"
     cy="5.4357033"
     rx="8.1340313"
     ry="3.2614121" />
</svg>
