<svg width="100" height="100" viewBox="0 0 100 100" fill="none" xmlns="http://www.w3.org/2000/svg">
<circle cx="50" cy="50" r="30" fill="#F2F2F2"/>
<path d="M50.4999 44.0938C49.2329 44.0938 47.9943 44.4695 46.9408 45.1734C45.8873 45.8773 45.0662 46.8778 44.5813 48.0484C44.0964 49.219 43.9696 50.5071 44.2168 51.7498C44.4639 52.9925 45.0741 54.134 45.97 55.0299C46.8659 55.9258 48.0074 56.536 49.2501 56.7832C50.4928 57.0303 51.7809 56.9035 52.9515 56.4186C54.1221 55.9337 55.1226 55.1126 55.8265 54.0591C56.5304 53.0056 56.9062 51.767 56.9062 50.5C56.9011 48.8025 56.2245 47.176 55.0242 45.9757C53.8239 44.7754 52.1974 44.0988 50.4999 44.0938ZM64.331 50.5C64.3277 51.0986 64.2838 51.6963 64.1997 52.2889L68.0987 55.3415C68.2685 55.4817 68.3829 55.6778 68.4215 55.8946C68.4601 56.1114 68.4203 56.3349 68.3093 56.5251L64.6209 62.8929C64.5088 63.0814 64.3338 63.2243 64.1266 63.2965C63.9195 63.3687 63.6936 63.3656 63.4886 63.2877L58.9041 61.4459C57.9495 62.181 56.9048 62.7911 55.7955 63.2612L55.11 68.1284C55.0716 68.3464 54.9588 68.5443 54.7906 68.6884C54.6225 68.8324 54.4096 68.9135 54.1883 68.918H46.8115C46.5942 68.9137 46.3848 68.836 46.2174 68.6974C46.05 68.5588 45.9345 68.3675 45.8898 68.1548L45.2043 63.2877C44.092 62.8229 43.0465 62.2119 42.0957 61.4707L37.5112 63.3125C37.3063 63.3905 37.0804 63.3938 36.8733 63.3217C36.6662 63.2496 36.4912 63.1069 36.3789 62.9185L32.6905 56.5515C32.5795 56.3613 32.5397 56.1378 32.5783 55.921C32.6169 55.7042 32.7313 55.5082 32.9011 55.368L36.8001 52.3154C36.717 51.7137 36.6731 51.1073 36.6688 50.5C36.6721 49.9014 36.716 49.3037 36.8001 48.7111L32.9011 45.6585C32.7313 45.5183 32.6169 45.3222 32.5783 45.1054C32.5397 44.8886 32.5795 44.6651 32.6905 44.4749L36.3789 38.1071C36.4911 37.9186 36.6661 37.7757 36.8732 37.7035C37.0803 37.6313 37.3062 37.6344 37.5112 37.7123L42.0957 39.5541C43.0503 38.819 44.095 38.2089 45.2043 37.7387L45.8898 32.8716C45.9282 32.6536 46.0411 32.4557 46.2092 32.3117C46.3773 32.1676 46.5902 32.0865 46.8115 32.082H54.1883C54.4056 32.0863 54.615 32.164 54.7824 32.3026C54.9498 32.4412 55.0653 32.6325 55.11 32.8452L55.7955 37.7123C56.9093 38.1768 57.9561 38.7878 58.9081 39.5293L63.4886 37.6875C63.6935 37.6095 63.9194 37.6062 64.1265 37.6783C64.3336 37.7504 64.5086 37.8931 64.6209 38.0815L68.3093 44.4493C68.4203 44.6395 68.4601 44.863 68.4215 45.0798C68.3829 45.2966 68.2685 45.4926 68.0987 45.6329L64.1997 48.6854C64.2828 49.2868 64.3267 49.8929 64.331 50.5Z" fill="#4D4D4D"/>
</svg>
