<svg width="32" height="32" viewBox="0 0 32 32" fill="none" xmlns="http://www.w3.org/2000/svg">
<path fill-rule="evenodd" clip-rule="evenodd" d="M6.64075 8.48903L10.4626 8.90462C11.1169 8.39327 11.8437 7.97046 12.6251 7.65418L14.1755 4.13781C14.7704 4.04706 15.3797 4 16 4C16.6203 4 17.2296 4.04706 17.8245 4.13781L19.3749 7.65418C20.1563 7.97046 20.8831 8.39327 21.5374 8.90462L25.3592 8.48903C26.1192 9.43476 26.7387 10.4981 27.1863 11.6475L24.9141 14.7513C24.9707 15.1594 25 15.5763 25 16C25 16.4237 24.9707 16.8406 24.9141 17.2487L27.1863 20.3525C26.7387 21.5019 26.1192 22.5652 25.3592 23.511L21.5374 23.0954C20.8831 23.6067 20.1563 24.0295 19.3749 24.3458L17.8245 27.8622C17.2296 27.9529 16.6203 28 16 28C15.3797 28 14.7704 27.9529 14.1755 27.8622L12.6251 24.3458C11.8437 24.0295 11.1169 23.6067 10.4626 23.0954L6.64075 23.511C5.8808 22.5652 5.26125 21.5019 4.81372 20.3525L7.08592 17.2487C7.02928 16.8405 7 16.4237 7 16C7 15.5763 7.02928 15.1595 7.08592 14.7513L4.81372 11.6475C5.26125 10.4981 5.8808 9.43476 6.64075 8.48903ZM16 20C18.2091 20 20 18.2091 20 16C20 13.7909 18.2091 12 16 12C13.7909 12 12 13.7909 12 16C12 18.2091 13.7909 20 16 20Z" fill="#F2F2F2"/>
</svg>
