<?xml version="1.0" encoding="UTF-8" standalone="no"?>
<svg
   width="48"
   height="48"
   viewBox="0 0 24 24"
   fill="none"
   version="1.1"
   id="svg17491"
   sodipodi:docname="Sketcher_SwitchVirtualSpace.svg"
   inkscape:version="1.2.2 (b0a8486541, 2022-12-01)"
   xmlns:inkscape="http://www.inkscape.org/namespaces/inkscape"
   xmlns:sodipodi="http://sodipodi.sourceforge.net/DTD/sodipodi-0.dtd"
   xmlns="http://www.w3.org/2000/svg"
   xmlns:svg="http://www.w3.org/2000/svg">
  <sodipodi:namedview
     id="namedview17493"
     pagecolor="#505050"
     bordercolor="#ffffff"
     borderopacity="1"
     inkscape:showpageshadow="0"
     inkscape:pageopacity="0"
     inkscape:pagecheckerboard="1"
     inkscape:deskcolor="#505050"
     showgrid="false"
     inkscape:zoom="16.145605"
     inkscape:cx="26.230049"
     inkscape:cy="20.655776"
     inkscape:window-width="2560"
     inkscape:window-height="1363"
     inkscape:window-x="0"
     inkscape:window-y="0"
     inkscape:window-maximized="1"
     inkscape:current-layer="svg17491" />
  <path
     style="fill:#868e96;fill-rule:evenodd;stroke:#868e96;stroke-width:0.75;stroke-linecap:round;stroke-dasharray:none;paint-order:markers fill stroke"
     d="M 6.5152857,19.53716 18.78716,12.743236 C 18.78716,12.55333 18.75,17 18.75,19.5 l -11.7887718,0.07432"
     id="path17722"
     sodipodi:nodetypes="cccc" />
  <g
     clip-path="url(#clip0)"
     id="g17484">
    <path
       d="m 12.75,4.5 c 0,-1.65685 1.3431,-3 3,-3 h 3.75 c 1.6569,0 3,1.34315 3,3 0,1.65685 -1.3431,3 -3,3 h -3.75 c -1.6569,0 -3,-1.34315 -3,-3 z"
       fill="#f2f2f2"
       id="path17464" />
    <path
       d="m 14.25,4.5 c 0,-0.82843 0.6716,-1.5 1.5,-1.5 0.8284,0 1.5,0.67157 1.5,1.5 0,0.82843 -0.6716,1.5 -1.5,1.5 -0.8284,0 -1.5,-0.67157 -1.5,-1.5 z"
       fill="#4d4d4d"
       id="path17466" />
    <rect
       x="18.75"
       y="12"
       width="7.5"
       height="12.3462"
       transform="rotate(90,18.75,12)"
       stroke="#f2f2f2"
       stroke-width="1.5"
       id="rect17468" />
    <rect
       x="11.25"
       y="21.75"
       width="3"
       height="1.5"
       fill="#797979"
       id="rect17470" />
    <rect
       x="11.25"
       y="8.25"
       width="3"
       height="1.5"
       fill="#f2f2f2"
       id="rect17472" />
    <rect
       x="22.5"
       y="14.25"
       width="3"
       height="1.5"
       transform="rotate(90,22.5,14.25)"
       fill="#797979"
       id="rect17474" />
    <rect
       x="3.75"
       y="14.25"
       width="3"
       height="1.5"
       transform="rotate(90,3.75,14.25)"
       fill="#f2f2f2"
       id="rect17476" />
    <path
       d="m 8.25,1.5 3,3 -3,3 z"
       fill="#f2f2f2"
       id="path17478" />
    <path
       d="m 4.5,7.5 -3,-3 3,-3 z"
       fill="#f2f2f2"
       id="path17480" />
    <rect
       x="9.75"
       y="3.75"
       width="1.5"
       height="6.75"
       transform="rotate(90,9.75,3.75)"
       fill="#f2f2f2"
       id="rect17482" />
  </g>
  <defs
     id="defs17489">
    <clipPath
       id="clip0">
      <rect
         width="24"
         height="24"
         fill="#4d4d4d"
         id="rect17486"
         x="0"
         y="0" />
    </clipPath>
  </defs>
</svg>
