<?xml version="1.0" encoding="UTF-8" standalone="no"?>
<svg
   width="48"
   height="48"
   viewBox="0 0 30 30"
   fill="none"
   version="1.1"
   id="svg12"
   sodipodi:docname="Sketcher_Trimming.svg"
   inkscape:version="1.2.2 (b0a8486541, 2022-12-01)"
   xmlns:inkscape="http://www.inkscape.org/namespaces/inkscape"
   xmlns:sodipodi="http://sodipodi.sourceforge.net/DTD/sodipodi-0.dtd"
   xmlns="http://www.w3.org/2000/svg"
   xmlns:svg="http://www.w3.org/2000/svg">
  <defs
     id="defs16" />
  <sodipodi:namedview
     id="namedview14"
     pagecolor="#505050"
     bordercolor="#ffffff"
     borderopacity="1"
     inkscape:showpageshadow="0"
     inkscape:pageopacity="0"
     inkscape:pagecheckerboard="1"
     inkscape:deskcolor="#505050"
     showgrid="false"
     showguides="false"
     inkscape:zoom="8.5625005"
     inkscape:cx="14.656933"
     inkscape:cy="25.28467"
     inkscape:window-width="2560"
     inkscape:window-height="1369"
     inkscape:window-x="0"
     inkscape:window-y="0"
     inkscape:window-maximized="1"
     inkscape:current-layer="svg12">
    <sodipodi:guide
       position="4.5620438,28.777372"
       orientation="0,-1"
       id="guide245"
       inkscape:locked="false" />
    <sodipodi:guide
       position="1.2591241,26.368613"
       orientation="1,0"
       id="guide247"
       inkscape:locked="false" />
    <sodipodi:guide
       position="28.722628,2.1350365"
       orientation="1,0"
       id="guide249"
       inkscape:locked="false" />
    <sodipodi:guide
       position="-21.419657,15.032047"
       orientation="0,-1"
       id="guide294"
       inkscape:locked="false" />
    <sodipodi:guide
       position="-14.124087,1.2408768"
       orientation="0,-1"
       id="guide1226"
       inkscape:locked="false" />
  </sodipodi:namedview>
  <path
     style="opacity:1;fill:#fcc419;fill-rule:evenodd;stroke:#f03e3e;stroke-width:1.87501;stroke-linecap:round;stroke-linejoin:round;stroke-dasharray:0.187501, 2.81251;stroke-dashoffset:0;paint-order:markers fill stroke"
     d="M 27.992699,9.7339708 21.704445,16.062028"
     id="path1514" />
  <path
     style="fill:#fcc419;fill-rule:evenodd;stroke:#f1f3f5;stroke-width:1.87501;stroke-linecap:round;stroke-linejoin:round;stroke-dasharray:none;stroke-dashoffset:0;paint-order:markers fill stroke"
     d="m 16.550257,21.180783 -6.288255,6.328055"
     id="path1514-3" />
  <path
     fill-rule="evenodd"
     clip-rule="evenodd"
     d="m 8.1855758,11.427938 c -0.6211782,0.49308 -1.4069404,0.787599 -2.2614415,0.787599 -2.0112049,0 -3.6416107,-1.631478 -3.6416107,-3.6440466 0,-2.0125426 1.6304058,-3.6440347 3.6416107,-3.6440347 2.0112051,0 3.6416095,1.6314921 3.6416095,3.6440347 0,0.2093135 -0.01765,0.4145309 -0.05147,0.6141449 L 12.802727,10.595963 17.049491,9.0023784 C 18.52993,8.4468235 20.066286,8.0537265 21.63145,7.8299828 l 3.309982,-0.473174 V 8.9763849 L 9.4391794,18.142938 c 0.08255,0.304559 0.1265654,0.625074 0.1265654,0.955792 0,2.012561 -1.6304043,3.644039 -3.6416091,3.644039 -2.011205,0 -3.6416107,-1.631478 -3.6416107,-3.644039 0,-2.012565 1.6304057,-3.644044 3.6416107,-3.644044 0.8113436,0 1.5607063,0.265531 2.1660715,0.714395 l 2.2847828,-1.52418 0.404625,-1.619575 z M 7.9472529,8.5714904 c 0,1.1180776 -0.9057833,2.0244726 -2.0231186,2.0244726 -1.1173351,0 -2.0231166,-0.906395 -2.0231166,-2.0244726 0,-1.1180819 0.9057815,-2.0244639 2.0231166,-2.0244639 1.1173353,0 2.0231186,0.906382 2.0231186,2.0244639 z M 5.9241343,21.123195 c 1.1173353,0 2.0231186,-0.906392 2.0231186,-2.024465 0,-1.118075 -0.9057833,-2.024468 -2.0231186,-2.024468 -1.1173351,0 -2.0231166,0.906393 -2.0231166,2.024468 0,1.118073 0.9057815,2.024465 2.0231166,2.024465 z"
     fill="#f2f2f2"
     id="path6"
     style="fill:#f1f3f5;stroke-width:0.562854" />
  <path
     d="m 24.941432,17.884048 v 1.619573 h -0.500518 c -2.348437,0 -4.681574,-0.378898 -6.909511,-1.122039 l -3.91943,-1.30732 4.855485,-2.834254 z"
     fill="#f2f2f2"
     id="path8"
     style="fill:#f1f3f5;stroke-width:0.562854" />
</svg>
