<?xml version="1.0" encoding="UTF-8" standalone="no"?>
<svg
   width="48"
   height="48"
   viewBox="0 0 24 24"
   fill="none"
   version="1.1"
   id="svg28"
   sodipodi:docname="Sketcher_ToggleConstraint.svg"
   inkscape:version="1.2.2 (b0a8486541, 2022-12-01)"
   xmlns:inkscape="http://www.inkscape.org/namespaces/inkscape"
   xmlns:sodipodi="http://sodipodi.sourceforge.net/DTD/sodipodi-0.dtd"
   xmlns="http://www.w3.org/2000/svg"
   xmlns:svg="http://www.w3.org/2000/svg">
  <defs
     id="defs32" />
  <sodipodi:namedview
     id="namedview30"
     pagecolor="#505050"
     bordercolor="#ffffff"
     borderopacity="1"
     inkscape:showpageshadow="0"
     inkscape:pageopacity="0"
     inkscape:pagecheckerboard="1"
     inkscape:deskcolor="#505050"
     showgrid="false"
     inkscape:zoom="16.145605"
     inkscape:cx="20.93449"
     inkscape:cy="24.310021"
     inkscape:window-width="2560"
     inkscape:window-height="1369"
     inkscape:window-x="0"
     inkscape:window-y="0"
     inkscape:window-maximized="1"
     inkscape:current-layer="svg28" />
  <path
     d="m 18,16.5 3,3 -3,3 z"
     id="path6"
     style="fill:#fd7e14" />
  <path
     d="m 6,22.5 -3,-3 3,-3 z"
     id="path8"
     style="fill:#fd7e14" />
  <path
     d="m 7.5,12 c 0,-1.6569 1.34315,-3 3,-3 h 3.75 c 1.6569,0 3,1.3431 3,3 0,1.6569 -1.3431,3 -3,3 H 10.5 c -1.65685,0 -3,-1.3431 -3,-3 z"
     fill="#f2f2f2"
     id="path2" />
  <path
     d="m 9,12 c 0,-0.8284 0.67157,-1.5 1.5,-1.5 0.8284,0 1.5,0.6716 1.5,1.5 0,0.8284 -0.6716,1.5 -1.5,1.5 C 9.67157,13.5 9,12.8284 9,12 Z"
     id="path4"
     style="fill:#343a40" />
  <rect
     x="1.5"
     y="-22.5"
     width="21"
     height="1.5"
     transform="rotate(90)"
     fill="#f2f2f2"
     id="rect18" />
  <rect
     x="1.5"
     y="-3"
     width="21"
     height="1.5"
     transform="rotate(90)"
     fill="#f2f2f2"
     id="rect20" />
  <path
     d="m 18,1.5 3,3 -3,3 z"
     id="path22"
     style="fill:#37b24d" />
  <path
     d="m 6,7.5 -3,-3 3,-3 z"
     id="path24"
     style="fill:#37b24d" />
  <rect
     x="3.75"
     y="-18.75"
     width="1.5"
     height="13.5"
     transform="rotate(90)"
     id="rect26"
     style="fill:#37b24d" />
  <path
     style="fill:none;fill-rule:evenodd;stroke:#fd7e14;stroke-width:1.5;stroke-linecap:round;stroke-linejoin:round;stroke-dashoffset:0.975;paint-order:markers fill stroke;stroke-dasharray:0.15,2.25"
     d="m 4.5,19.5 h 15"
     id="path350" />
</svg>
