<?xml version="1.0" encoding="UTF-8" standalone="no"?>
<svg
   width="48"
   height="48"
   viewBox="0 0 24 24"
   fill="none"
   version="1.1"
   id="svg21"
   sodipodi:docname="Sketcher_CreateBSpline_Constr.svg"
   inkscape:version="1.2.2 (b0a8486541, 2022-12-01)"
   xmlns:inkscape="http://www.inkscape.org/namespaces/inkscape"
   xmlns:sodipodi="http://sodipodi.sourceforge.net/DTD/sodipodi-0.dtd"
   xmlns="http://www.w3.org/2000/svg"
   xmlns:svg="http://www.w3.org/2000/svg">
  <sodipodi:namedview
     id="namedview23"
     pagecolor="#505050"
     bordercolor="#ffffff"
     borderopacity="1"
     inkscape:showpageshadow="0"
     inkscape:pageopacity="0"
     inkscape:pagecheckerboard="1"
     inkscape:deskcolor="#505050"
     showgrid="false"
     showguides="true"
     inkscape:zoom="16.145605"
     inkscape:cx="27.128126"
     inkscape:cy="27.778457"
     inkscape:window-width="2560"
     inkscape:window-height="1369"
     inkscape:window-x="0"
     inkscape:window-y="0"
     inkscape:window-maximized="1"
     inkscape:current-layer="g14">
    <sodipodi:guide
       position="1.548409,23.009018"
       orientation="0,-1"
       id="guide252"
       inkscape:locked="false" />
    <sodipodi:guide
       position="0.99098177,21.661902"
       orientation="1,0"
       id="guide254"
       inkscape:locked="false" />
    <sodipodi:guide
       position="12.774374,1.0216103"
       orientation="0,-1"
       id="guide256"
       inkscape:locked="false" />
    <sodipodi:guide
       position="23.009358,7.4165395"
       orientation="1,0"
       id="guide258"
       inkscape:locked="false" />
  </sodipodi:namedview>
  <g
     clip-path="url(#clip0)"
     id="g14"
     transform="matrix(1.2215226,0,0,1.2215226,-2.6735861,-2.6735859)">
    <path
       fill-rule="evenodd"
       clip-rule="evenodd"
       d="m 12.9711,13.7665 3.8812,3.8812 0.8133,0.8132 0.1426,-1.1412 0.7864,-6.291 c -0.3746,0.4696 -0.7976,0.8746 -1.2695,1.2195 -0.0061,0.0044 -0.0123,0.0089 -0.0184,0.0133 l -0.4722,3.7774 -2.5072,-2.5072 c -0.4726,0.1053 -0.9308,0.1772 -1.3562,0.2348 z M 11.029,10.2334 c -0.4254,0.0576 -0.8836,0.1295 -1.3562,0.2348 L 7.16555,7.96094 6.69338,11.7383 C 6.68725,11.7428 6.68112,11.7472 6.675,11.7517 6.20307,12.0966 5.78008,12.5015 5.40552,12.9712 L 6.19189,6.68017 6.33455,5.53894 7.1478,6.35219 Z"
       fill="#a2a2a2"
       id="path2"
       style="stroke-width:1.22797564;stroke-dasharray:none" />
    <circle
       cx="6.75"
       cy="6.75"
       r="1.6875"
       fill="#4d4d4d"
       id="circle4"
       style="stroke-width:1.22797564;stroke-dasharray:none;stroke:#fd7e14" />
    <circle
       cx="17.25"
       cy="17.25"
       r="1.6875"
       fill="#4d4d4d"
       id="circle6"
       style="stroke-width:1.22797564;stroke-dasharray:none;stroke:#fd7e14" />
    <path
       d="m 5.25,18.75 c 1.5,-12 12,-1.5 13.5,-13.5"
       stroke="#f2f2f2"
       stroke-linecap="round"
       id="path8"
       style="stroke-width:1.22797564;stroke-dasharray:0.12279756, 1.84196341;stroke-dashoffset:0.18419634;stroke:#adb5bd" />
    <circle
       cx="5.25"
       cy="18.75"
       r="1.6875"
       fill="#4d4d4d"
       id="circle10"
       style="stroke-width:1.22797564;stroke-dasharray:none;stroke:#37b24d" />
    <circle
       cx="18.75"
       cy="5.25"
       r="1.6875"
       fill="#4d4d4d"
       id="circle12"
       style="stroke-width:1.22797564;stroke-dasharray:none;stroke:#37b24d" />
  </g>
  <defs
     id="defs19">
    <clipPath
       id="clip0">
      <rect
         width="24"
         height="24"
         fill="#4d4d4d"
         id="rect16"
         x="0"
         y="0" />
    </clipPath>
  </defs>
</svg>
