<?xml version="1.0" encoding="UTF-8" standalone="no"?>
<svg
   id="svg12"
   width="64"
   height="64"
   version="1.1"
   sodipodi:docname="Sketcher_Pointer_CarbonCopy.svg"
   inkscape:version="1.2.2 (b0a8486541, 2022-12-01)"
   xmlns:inkscape="http://www.inkscape.org/namespaces/inkscape"
   xmlns:sodipodi="http://sodipodi.sourceforge.net/DTD/sodipodi-0.dtd"
   xmlns="http://www.w3.org/2000/svg"
   xmlns:svg="http://www.w3.org/2000/svg"
   xmlns:rdf="http://www.w3.org/1999/02/22-rdf-syntax-ns#"
   xmlns:cc="http://creativecommons.org/ns#"
   xmlns:dc="http://purl.org/dc/elements/1.1/">
  <sodipodi:namedview
     id="namedview14"
     pagecolor="#505050"
     bordercolor="#ffffff"
     borderopacity="1"
     inkscape:showpageshadow="0"
     inkscape:pageopacity="0"
     inkscape:pagecheckerboard="1"
     inkscape:deskcolor="#505050"
     showgrid="false"
     inkscape:zoom="24.218407"
     inkscape:cx="24.526799"
     inkscape:cy="38.00828"
     inkscape:window-width="2560"
     inkscape:window-height="1369"
     inkscape:window-x="0"
     inkscape:window-y="0"
     inkscape:window-maximized="1"
     inkscape:current-layer="g52" />
  <metadata
     id="metadata18">
    <rdf:RDF>
      <cc:Work
         rdf:about="">
        <dc:format>image/svg+xml</dc:format>
        <dc:type
           rdf:resource="http://purl.org/dc/dcmitype/StillImage" />
      </cc:Work>
    </rdf:RDF>
  </metadata>
  <defs
     id="defs16">
    <clipPath
       id="clip0">
      <rect
         width="24"
         height="24"
         fill="#4d4d4d"
         id="rect54"
         x="0"
         y="0" />
    </clipPath>
  </defs>
  <g
     style="stroke:#ffffff;stroke-width:2.5;stroke-linecap:round;stroke-linejoin:miter"
     id="crosshair">
    <path
       id="path9"
       d="m16,3v9m0,8v9m-13-13h9m8,0h9" />
  </g>
  <g
     clip-path="url(#clip0)"
     id="g52"
     transform="matrix(1.2547688,0,0,1.2547688,10.230749,31.058936)">
    <rect
       x="13.5"
       y="21.75"
       width="3"
       height="1.5"
       fill="#f2f2f2"
       id="rect2"
       style="fill:#868e96" />
    <rect
       x="13.5"
       y="8.25"
       width="3"
       height="1.5"
       fill="#f2f2f2"
       id="rect4"
       style="fill:#868e96" />
    <line
       x1="5.7270002"
       y1="8.7018805"
       x2="9.4770002"
       y2="14.7019"
       stroke="#a2a2a2"
       stroke-width="1.125"
       id="line50"
       style="fill:#1098ad;stroke:#868e96" />
    <rect
       x="9.75"
       y="12.75"
       width="1.5"
       height="6"
       fill="#f2f2f2"
       id="rect6"
       style="fill:#868e96" />
    <rect
       x="18.75"
       y="12.75"
       width="1.5"
       height="6"
       fill="#f2f2f2"
       id="rect8"
       style="fill:#868e96" />
    <rect
       x="9.75"
       y="8.25"
       width="1.5"
       height="3"
       fill="#f2f2f2"
       id="rect10"
       style="fill:#868e96" />
    <rect
       x="18.75"
       y="8.25"
       width="1.5"
       height="3"
       fill="#f2f2f2"
       id="rect12"
       style="fill:#868e96" />
    <rect
       x="9.75"
       y="20.25"
       width="1.5"
       height="3"
       fill="#f2f2f2"
       id="rect14"
       style="fill:#868e96" />
    <rect
       x="18.75"
       y="20.25"
       width="1.5"
       height="3"
       fill="#f2f2f2"
       id="rect16"
       style="fill:#868e96" />
    <rect
       x="12.75"
       y="8.25"
       width="1.5"
       height="3"
       transform="rotate(90,12.75,8.25)"
       fill="#f2f2f2"
       id="rect18"
       style="fill:#868e96" />
    <rect
       x="20.25"
       y="8.25"
       width="1.5"
       height="3"
       transform="rotate(90,20.25,8.25)"
       fill="#f2f2f2"
       id="rect20"
       style="fill:#868e96" />
    <rect
       x="12.75"
       y="21.75"
       width="1.5"
       height="3"
       transform="rotate(90,12.75,21.75)"
       fill="#f2f2f2"
       id="rect22"
       style="fill:#868e96" />
    <rect
       x="20.25"
       y="21.75"
       width="1.5"
       height="3"
       transform="rotate(90,20.25,21.75)"
       fill="#f2f2f2"
       id="rect24"
       style="fill:#868e96" />
    <rect
       x="6"
       y="18"
       width="2.25"
       height="1.5"
       fill="#a2a2a2"
       id="rect26"
       style="fill:#868e96" />
    <rect
       x="6"
       y="4.5"
       width="3"
       height="1.5"
       fill="#a2a2a2"
       id="rect28"
       style="fill:#868e96" />
    <rect
       x="2.25"
       y="9"
       width="1.5"
       height="6"
       fill="#a2a2a2"
       id="rect30"
       style="fill:#868e96" />
    <rect
       x="2.25"
       y="4.5"
       width="1.5"
       height="3"
       fill="#a2a2a2"
       id="rect32"
       style="fill:#868e96" />
    <rect
       x="11.25"
       y="4.5"
       width="1.5"
       height="2.25"
       fill="#a2a2a2"
       id="rect34"
       style="fill:#868e96" />
    <rect
       x="2.25"
       y="16.5"
       width="1.5"
       height="3"
       fill="#a2a2a2"
       id="rect36"
       style="fill:#868e96" />
    <rect
       x="5.25"
       y="4.5"
       width="1.5"
       height="3"
       transform="rotate(90,5.25,4.5)"
       fill="#a2a2a2"
       id="rect38"
       style="fill:#868e96" />
    <rect
       x="12.75"
       y="4.5"
       width="1.5"
       height="3"
       transform="rotate(90,12.75,4.5)"
       fill="#a2a2a2"
       id="rect40"
       style="fill:#868e96" />
    <rect
       x="5.25"
       y="18"
       width="1.5"
       height="3"
       transform="rotate(90,5.25,18)"
       fill="#a2a2a2"
       id="rect42"
       style="fill:#868e96" />
    <path
       d="M 16.5,5.25 V 2.99999 C 16.5,2.17157 15.8284,1.5 15,1.5 l -6.74999,-1e-5 c -0.82843,0 -1.5,0.67157 -1.5,1.5 v 0.75"
       stroke="#f2f2f2"
       stroke-width="1.5"
       id="path44"
       style="fill:none;stroke:#868e96" />
    <path
       d="m 14.25,5.12134 2.25,2.25 2.25,-2.25 z"
       fill="#f2f2f2"
       id="path46"
       style="fill:#868e96" />
    <line
       x1="13.227"
       y1="12.4519"
       x2="16.976999"
       y2="18.4519"
       stroke="#f2f2f2"
       stroke-width="1.125"
       id="line48"
       style="fill:#228be6;stroke:#868e96" />
  </g>
</svg>
