<?xml version="1.0" encoding="UTF-8" standalone="no"?>
<svg
   width="48"
   height="48"
   viewBox="0 0 24 24"
   fill="none"
   version="1.1"
   id="svg59"
   sodipodi:docname="Sketcher_CarbonCopy.svg"
   inkscape:version="1.2.2 (b0a8486541, 2022-12-01)"
   xmlns:inkscape="http://www.inkscape.org/namespaces/inkscape"
   xmlns:sodipodi="http://sodipodi.sourceforge.net/DTD/sodipodi-0.dtd"
   xmlns="http://www.w3.org/2000/svg"
   xmlns:svg="http://www.w3.org/2000/svg">
  <sodipodi:namedview
     id="namedview61"
     pagecolor="#505050"
     bordercolor="#ffffff"
     borderopacity="1"
     inkscape:showpageshadow="0"
     inkscape:pageopacity="0"
     inkscape:pagecheckerboard="1"
     inkscape:deskcolor="#505050"
     showgrid="false"
     showguides="true"
     inkscape:zoom="22.833333"
     inkscape:cx="21.218978"
     inkscape:cy="24.328467"
     inkscape:window-width="2560"
     inkscape:window-height="1369"
     inkscape:window-x="0"
     inkscape:window-y="0"
     inkscape:window-maximized="1"
     inkscape:current-layer="svg59">
    <sodipodi:guide
       position="-13.094891,22.970803"
       orientation="0,-1"
       id="guide344"
       inkscape:locked="false" />
    <sodipodi:guide
       position="0.98540146,25.927007"
       orientation="1,0"
       id="guide346"
       inkscape:locked="false" />
    <sodipodi:guide
       position="22.861314,0.98540147"
       orientation="0,-1"
       id="guide348"
       inkscape:locked="false" />
    <sodipodi:guide
       position="22.992701,24.613139"
       orientation="1,0"
       id="guide350"
       inkscape:locked="false" />
    <sodipodi:guide
       position="12,24"
       orientation="1,0"
       id="guide352"
       inkscape:locked="false" />
  </sodipodi:namedview>
  <g
     clip-path="url(#clip0)"
     id="g52"
     transform="matrix(0.97542611,0,0,0.97542611,1.0187949,0.33594139)">
    <rect
       x="13.5"
       y="21.75"
       width="3"
       height="1.5"
       fill="#f2f2f2"
       id="rect2" />
    <rect
       x="13.5"
       y="8.25"
       width="3"
       height="1.5"
       fill="#f2f2f2"
       id="rect4" />
    <rect
       x="9.75"
       y="12.75"
       width="1.5"
       height="6"
       fill="#f2f2f2"
       id="rect6" />
    <rect
       x="18.75"
       y="12.75"
       width="1.5"
       height="6"
       fill="#f2f2f2"
       id="rect8" />
    <rect
       x="9.75"
       y="8.25"
       width="1.5"
       height="3"
       fill="#f2f2f2"
       id="rect10" />
    <rect
       x="18.75"
       y="8.25"
       width="1.5"
       height="3"
       fill="#f2f2f2"
       id="rect12" />
    <rect
       x="9.75"
       y="20.25"
       width="1.5"
       height="3"
       fill="#f2f2f2"
       id="rect14" />
    <rect
       x="18.75"
       y="20.25"
       width="1.5"
       height="3"
       fill="#f2f2f2"
       id="rect16" />
    <rect
       x="12.75"
       y="8.25"
       width="1.5"
       height="3"
       transform="rotate(90,12.75,8.25)"
       fill="#f2f2f2"
       id="rect18" />
    <rect
       x="20.25"
       y="8.25"
       width="1.5"
       height="3"
       transform="rotate(90,20.25,8.25)"
       fill="#f2f2f2"
       id="rect20" />
    <rect
       x="12.75"
       y="21.75"
       width="1.5"
       height="3"
       transform="rotate(90,12.75,21.75)"
       fill="#f2f2f2"
       id="rect22" />
    <rect
       x="20.25"
       y="21.75"
       width="1.5"
       height="3"
       transform="rotate(90,20.25,21.75)"
       fill="#f2f2f2"
       id="rect24" />
    <rect
       x="6"
       y="18"
       width="2.25"
       height="1.5"
       fill="#a2a2a2"
       id="rect26" />
    <rect
       x="6"
       y="4.5"
       width="3"
       height="1.5"
       fill="#a2a2a2"
       id="rect28" />
    <rect
       x="2.25"
       y="9"
       width="1.5"
       height="6"
       fill="#a2a2a2"
       id="rect30" />
    <rect
       x="2.25"
       y="4.5"
       width="1.5"
       height="3"
       fill="#a2a2a2"
       id="rect32" />
    <rect
       x="11.25"
       y="4.5"
       width="1.5"
       height="2.25"
       fill="#a2a2a2"
       id="rect34" />
    <rect
       x="2.25"
       y="16.5"
       width="1.5"
       height="3"
       fill="#a2a2a2"
       id="rect36" />
    <rect
       x="5.25"
       y="4.5"
       width="1.5"
       height="3"
       transform="rotate(90,5.25,4.5)"
       fill="#a2a2a2"
       id="rect38" />
    <rect
       x="12.75"
       y="4.5"
       width="1.5"
       height="3"
       transform="rotate(90,12.75,4.5)"
       fill="#a2a2a2"
       id="rect40" />
    <rect
       x="5.25"
       y="18"
       width="1.5"
       height="3"
       transform="rotate(90,5.25,18)"
       fill="#a2a2a2"
       id="rect42" />
    <path
       d="M 16.5,5.25 V 2.99999 C 16.5,2.17157 15.8284,1.5 15,1.5 l -6.74999,-1e-5 c -0.82843,0 -1.5,0.67157 -1.5,1.5 v 0.75"
       stroke="#f2f2f2"
       stroke-width="1.5"
       id="path44" />
    <path
       d="m 14.25,5.12134 2.25,2.25 2.25,-2.25 z"
       fill="#f2f2f2"
       id="path46" />
    <line
       x1="13.227"
       y1="12.4519"
       x2="16.976999"
       y2="18.4519"
       stroke="#f2f2f2"
       stroke-width="1.125"
       id="line48" />
    <line
       x1="5.7270002"
       y1="8.7018805"
       x2="9.4770002"
       y2="14.7019"
       stroke="#a2a2a2"
       stroke-width="1.125"
       id="line50" />
  </g>
  <defs
     id="defs57">
    <clipPath
       id="clip0">
      <rect
         width="24"
         height="24"
         fill="#4d4d4d"
         id="rect54"
         x="0"
         y="0" />
    </clipPath>
  </defs>
</svg>
