<?xml version="1.0" encoding="UTF-8" standalone="no"?>
<svg
   width="48"
   height="48"
   viewBox="0 0 32 32"
   fill="none"
   version="1.1"
   id="svg15390"
   sodipodi:docname="Sketcher_MapSketch.svg"
   inkscape:version="1.2.2 (b0a8486541, 2022-12-01)"
   xmlns:inkscape="http://www.inkscape.org/namespaces/inkscape"
   xmlns:sodipodi="http://sodipodi.sourceforge.net/DTD/sodipodi-0.dtd"
   xmlns="http://www.w3.org/2000/svg"
   xmlns:svg="http://www.w3.org/2000/svg">
  <defs
     id="defs15394" />
  <sodipodi:namedview
     id="namedview15392"
     pagecolor="#505050"
     bordercolor="#ffffff"
     borderopacity="1"
     inkscape:showpageshadow="0"
     inkscape:pageopacity="0"
     inkscape:pagecheckerboard="1"
     inkscape:deskcolor="#505050"
     showgrid="false"
     inkscape:zoom="12.109204"
     inkscape:cx="11.85049"
     inkscape:cy="24.072599"
     inkscape:window-width="2560"
     inkscape:window-height="1363"
     inkscape:window-x="0"
     inkscape:window-y="0"
     inkscape:window-maximized="1"
     inkscape:current-layer="svg15390" />
  <path
     d="M 24,4.41421 V 26 H 8.41421 L 6,23.5858 V 2 h 15.5858 z"
     stroke="#f2f2f2"
     stroke-width="2"
     id="path15356"
     style="fill:#343a40" />
  <path
     d="M 9,5 H 24 V 26 H 9 Z"
     id="path15358"
     style="fill:#343a40" />
  <path
     d="M 24,5 H 9 v 21"
     stroke="#f2f2f2"
     id="path15360" />
  <path
     d="M 9,5 6,2"
     stroke="#f2f2f2"
     id="path15362" />
  <rect
     opacity="0.8"
     x="12"
     y="8"
     width="16"
     height="22"
     fill="#4d4d4d"
     id="rect15364"
     style="fill:#37b24d" />
  <rect
     x="18"
     y="8"
     width="4"
     height="2"
     fill="#f2f2f2"
     id="rect15366" />
  <rect
     x="18"
     y="28"
     width="4"
     height="2"
     fill="#f2f2f2"
     id="rect15368" />
  <rect
     x="12"
     y="14"
     width="2"
     height="10"
     fill="#f2f2f2"
     id="rect15370" />
  <rect
     x="26"
     y="14"
     width="2"
     height="10"
     fill="#f2f2f2"
     id="rect15372" />
  <rect
     x="12"
     y="8"
     width="2"
     height="4"
     fill="#f2f2f2"
     id="rect15374" />
  <rect
     x="26"
     y="8"
     width="2"
     height="4"
     fill="#f2f2f2"
     id="rect15376" />
  <rect
     x="12"
     y="26"
     width="2"
     height="4"
     fill="#f2f2f2"
     id="rect15378" />
  <rect
     x="26"
     y="26"
     width="2"
     height="4"
     fill="#f2f2f2"
     id="rect15380" />
  <rect
     x="8"
     y="-16"
     width="2"
     height="4"
     transform="rotate(90)"
     fill="#f2f2f2"
     id="rect15382" />
  <rect
     x="8"
     y="-28"
     width="2"
     height="4"
     transform="rotate(90)"
     fill="#f2f2f2"
     id="rect15384" />
  <rect
     x="28"
     y="-16"
     width="2"
     height="4"
     transform="rotate(90)"
     fill="#f2f2f2"
     id="rect15386" />
  <rect
     x="28"
     y="-28"
     width="2"
     height="4"
     transform="rotate(90)"
     fill="#f2f2f2"
     id="rect15388" />
</svg>
