<?xml version="1.0" encoding="UTF-8" standalone="no"?>
<svg
   width="48"
   height="48"
   viewBox="0 0 24 24"
   fill="none"
   version="1.1"
   id="svg10"
   sodipodi:docname="Sketcher_ToggleConstruction.svg"
   inkscape:version="1.2.2 (b0a8486541, 2022-12-01)"
   xmlns:inkscape="http://www.inkscape.org/namespaces/inkscape"
   xmlns:sodipodi="http://sodipodi.sourceforge.net/DTD/sodipodi-0.dtd"
   xmlns="http://www.w3.org/2000/svg"
   xmlns:svg="http://www.w3.org/2000/svg">
  <defs
     id="defs14" />
  <sodipodi:namedview
     id="namedview12"
     pagecolor="#505050"
     bordercolor="#ffffff"
     borderopacity="1"
     inkscape:showpageshadow="0"
     inkscape:pageopacity="0"
     inkscape:pagecheckerboard="1"
     inkscape:deskcolor="#505050"
     showgrid="false"
     inkscape:zoom="64.582419"
     inkscape:cx="14.34601"
     inkscape:cy="13.014378"
     inkscape:window-width="2560"
     inkscape:window-height="1363"
     inkscape:window-x="0"
     inkscape:window-y="0"
     inkscape:window-maximized="1"
     inkscape:current-layer="svg10" />
  <path
     d="m 7.5,12 c 0,-1.6569 1.34315,-3 3,-3 h 3.75 c 1.6569,0 3,1.3431 3,3 0,1.6569 -1.3431,3 -3,3 H 10.5 c -1.65685,0 -3,-1.3431 -3,-3 z"
     fill="#f2f2f2"
     id="path2" />
  <path
     style="fill:#adb5bd;fill-rule:evenodd;stroke:#adb5bd;stroke-width:4.71884;stroke-linecap:round;stroke-dasharray:none;stroke-dashoffset:7.5;paint-order:markers fill stroke"
     d="m 10.722413,12.018498 h 3.217953"
     id="path404" />
  <path
     d="m 9,12 c 0,-0.8284 0.67157,-1.5 1.5,-1.5 0.8284,0 1.5,0.6716 1.5,1.5 0,0.8284 -0.6716,1.5 -1.5,1.5 C 9.67157,13.5 9,12.8284 9,12 Z"
     id="path4"
     style="fill:#343a40" />
  <rect
     x="3.75"
     y="2.25"
     width="16.5"
     height="5.25"
     rx="2.625"
     stroke="#f2f2f2"
     stroke-width="1.5"
     id="rect6" />
  <rect
     x="3.75"
     y="16.5"
     width="16.5"
     height="5.25"
     rx="2.625"
     stroke-width="1.5"
     stroke-dasharray="2.25, 2.25"
     id="rect8"
     style="stroke:#228be6" />
</svg>
