<svg width="32" height="32" viewBox="0 0 32 32" fill="none" xmlns="http://www.w3.org/2000/svg">
<g clip-path="url(#clip0)">
<path d="M28 16C28 22.6274 22.6274 28 16 28C9.37258 28 4 22.6274 4 16C4 9.37258 9.37258 4 16 4C22.6274 4 28 9.37258 28 16Z" fill="#326276"/>
<path fill-rule="evenodd" clip-rule="evenodd" d="M16 5C9.92487 5 5 9.92487 5 16C5 22.0751 9.92487 27 16 27C22.0751 27 27 22.0751 27 16C27 9.92487 22.0751 5 16 5ZM3 16C3 8.8203 8.8203 3 16 3C23.1797 3 29 8.8203 29 16C29 23.1797 23.1797 29 16 29C8.8203 29 3 23.1797 3 16Z" fill="#F2F2F2"/>
</g>
<defs>
<clipPath id="clip0">
<rect width="32" height="32" fill="#4D4D4D"/>
</clipPath>
</defs>
</svg>
