<svg width="32" height="32" viewBox="0 0 32 32" fill="none" xmlns="http://www.w3.org/2000/svg">
<path fill-rule="evenodd" clip-rule="evenodd" d="M5 6C5 5.44772 5.44772 5 6 5C6.55228 5 7 5.44772 7 6C7 6.55228 6.55228 7 6 7C5.44772 7 5 6.55228 5 6ZM5 8V19C5 19.5523 5.44772 20 6 20H10V13C10 11.3431 11.3431 10 13 10H21V8H5ZM23 10V6C23 4.34315 21.6569 3 20 3H6C4.34315 3 3 4.34315 3 6V19C3 20.6569 4.34315 22 6 22H10V26C10 27.6569 11.3431 29 13 29H27C28.6569 29 30 27.6569 30 26V13C30 11.3431 28.6569 10 27 10H23ZM23 15H21H12V26C12 26.5523 12.4477 27 13 27H27C27.5523 27 28 26.5523 28 26V15H23ZM13 12C12.4477 12 12 12.4477 12 13C12 13.5523 12.4477 14 13 14C13.5523 14 14 13.5523 14 13C14 12.4477 13.5523 12 13 12Z" fill="#F2F2F2"/>
</svg>
