<svg width="32" height="32" viewBox="0 0 32 32" fill="none" xmlns="http://www.w3.org/2000/svg">
<path fill-rule="evenodd" clip-rule="evenodd" d="M6 7C6 6.44772 6.44772 6 7 6C7.55228 6 8 6.44772 8 7C8 7.55228 7.55228 8 7 8C6.44772 8 6 7.55228 6 7ZM6 9V20C6 20.5523 6.44772 21 7 21H12.0619C12.021 20.6724 12 20.3387 12 20C12 15.5817 15.5817 12 20 12C20.6906 12 21.3608 12.0875 22 12.252V9H6ZM24 13.0703V7C24 5.34315 22.6569 4 21 4H7C5.34315 4 4 5.34315 4 7V20C4 21.6569 5.34315 23 7 23H12.5815C13.7683 25.9318 16.6426 28 20 28C24.4183 28 28 24.4183 28 20C28 17.0389 26.3912 14.4535 24 13.0703ZM20 25L25 20L20 15L20 19H15V21H20V25Z" fill="#F2F2F2"/>
</svg>
