<?xml version="1.0" encoding="UTF-8" standalone="no"?>
<svg
   width="48"
   height="48"
   viewBox="0 0 32 32"
   fill="none"
   version="1.1"
   id="svg1385"
   sodipodi:docname="view-right.svg"
   inkscape:version="1.2.2 (b0a8486541, 2022-12-01)"
   xmlns:inkscape="http://www.inkscape.org/namespaces/inkscape"
   xmlns:sodipodi="http://sodipodi.sourceforge.net/DTD/sodipodi-0.dtd"
   xmlns="http://www.w3.org/2000/svg"
   xmlns:svg="http://www.w3.org/2000/svg">
  <sodipodi:namedview
     id="namedview3257"
     pagecolor="#505050"
     bordercolor="#ffffff"
     borderopacity="1"
     inkscape:showpageshadow="0"
     inkscape:pageopacity="0"
     inkscape:pagecheckerboard="1"
     inkscape:deskcolor="#505050"
     showgrid="false"
     inkscape:zoom="22.833333"
     inkscape:cx="24"
     inkscape:cy="24.021898"
     inkscape:window-width="2560"
     inkscape:window-height="1369"
     inkscape:window-x="0"
     inkscape:window-y="0"
     inkscape:window-maximized="1"
     inkscape:current-layer="svg1385" />
  <defs
     id="defs1389" />
  <g
     style="mix-blend-mode:normal"
     id="g1381"
     transform="matrix(1.2740733,0,0,1.2748418,-3.7468979,-3.7499708)">
    <path
       fill-rule="evenodd"
       clip-rule="evenodd"
       d="M 8,4.00001 7.87311,4.00397 C 5.71476,4.07142 4,5.8406 4,8.00001 V 18 l 0.13452,1.547 c 0.07668,0.8818 0.26455,1.7504 0.55913,2.585 l 0.11762,0.3333 c 0.12424,0.352 0.32574,0.6717 0.58971,0.9357 l 2.22731,2.2273 c 0.24513,0.2451 0.53856,0.4366 0.86165,0.5622 l 0.03856,0.015 c 1.14004,0.4434 2.3447,0.6978 3.5667,0.7534 L 13,27 h 10 l 0.4118,-0.0686 C 25.3712,26.6048 26.8533,24.981 27,23 V 13 L 26.9089,9.90195 C 26.8873,9.16826 26.5573,8.47769 26,8.00001 l -3,-3 c -1.0625,-0.65383 -2.2855,-1 -3.533,-1 H 18 Z M 9.5,13.5 v 8.5 1 c 0,1.6568 1.3431,3 3,3 h 1 9 c 1.8702,-0.1439 3.3561,-1.6298 3.5,-3.5 V 13.4676 12.5 C 26,10.8431 24.6569,9.49999 23,9.49999 h -1 -8.5 -1 c -1.6569,0 -3,1.34311 -3,3.00001 z M 6.97855,5.85354 C 6.66357,5.53856 6.88665,4.99999 7.33211,4.99999 H 20.6538 c 0.862,0 1.6886,0.34241 2.2981,0.95191 l 1.2678,1.26776 c 0.4724,0.47248 0.1378,1.28033 -0.5304,1.28033 H 11.5925 c -1.2598,0 -2.46794,-0.50044 -3.35874,-1.39124 z M 5,7.2071 C 5,6.76165 5.53857,6.53856 5.85355,6.85354 L 7.10876,8.10875 C 7.99956,8.99955 8.5,10.2077 8.5,11.4675 v 12.0968 c 0,0.6682 -0.80786,1.0028 -1.28033,0.5304 L 5.9519,22.8269 C 5.34241,22.2174 5,21.3908 5,20.5288 Z"
       fill="#f2f2f2"
       id="path1379" />
  </g>
  <path
     fill-rule="evenodd"
     clip-rule="evenodd"
     d="m 25.556787,30.670755 0.16168,-0.0051 c 2.749832,-0.08588 4.934613,-2.341329 4.934613,-5.094223 V 12.822971 l -0.171363,-1.97218 C 30.383996,9.7266358 30.144597,8.619372 29.769383,7.5553126 L 29.619424,7.1304717 C 29.461185,6.6817018 29.204459,6.2740968 28.868104,5.9375768 L 26.030359,3.0981091 C 25.718084,2.7856072 25.344272,2.5415259 24.932618,2.3813421 l -0.04918,-0.019123 C 23.430995,1.7970312 21.896119,1.4726349 20.339202,1.4018303 L 19.186421,1.349396 H 6.4456881 L 5.9210247,1.4368884 C 3.4246693,1.8532006 1.5363527,3.9233523 1.3493951,6.4487628 V 19.19718 l 0.1160935,3.949586 c 0.027495,0.935224 0.4479387,1.81563 1.1579798,2.424622 l 3.8222197,3.824525 c 1.3536519,0.833492 2.9118944,1.274842 4.5013009,1.274842 h 1.869065 z M 23.645677,18.559759 V 7.7236045 6.4487628 c 0,-2.1122214 -1.711208,-3.824525 -3.822219,-3.824525 H 18.549384 7.0827247 C 4.6999911,2.8076364 2.8067565,4.7020129 2.6234684,7.0861836 v 11.5148804 1.233537 c 0,2.112285 1.7112715,3.824525 3.8222197,3.824525 h 1.2740733 10.8296226 1.274074 c 2.111011,0 3.822219,-1.71224 3.822219,-3.824525 z m 3.212448,9.747949 c 0.401333,0.401576 0.117087,1.088205 -0.450385,1.088205 H 9.4349187 c -1.0982001,0 -2.1514127,-0.436505 -2.9279477,-1.213521 L 4.8917392,26.566147 C 4.2897778,25.963912 4.7161081,24.933968 5.5674185,24.933968 H 20.979678 c 1.605078,0 3.144286,0.63793 4.27923,1.77356 z m 2.520881,-1.725498 c 0,0.567815 -0.686215,0.852231 -1.087549,0.450657 L 26.69224,25.432686 C 25.557296,24.297057 24.91975,22.75692 24.91975,21.150875 V 5.7293186 c 0,-0.8518237 1.029324,-1.2784112 1.631196,-0.6760868 l 1.61527,1.6162061 c 0.776548,0.7770032 1.21279,1.8308512 1.21279,2.9297137 z"
     fill="#f2f2f2"
     fill-opacity="0.4"
     id="path1383"
     style="stroke-width:1.27445" />
  <path
     style="opacity:0.8;fill:#89b4fa;stroke:#f2f2f2;stroke-width:0;stroke-linecap:round;stroke-dasharray:none;paint-order:markers fill stroke"
     d="M 28.291457,27.032867 C 26.79784,25.689896 25.876538,24.599111 25.50603,23.751029 25.111591,22.91966 24.924123,22.051529 24.91975,21.150875 V 8.3610126 c 1.158707,-0.074203 2.141164,0.1523826 2.907607,0.7476194 0.856541,0.6593443 1.329562,1.483303 1.498517,2.437772 0.259222,1.805662 0.03541,8.925043 0.05313,13.387564 -0.04386,0.565524 -0.181091,1.096369 -0.402106,1.596095 L 28.6223,27.210199 c -0.115457,-0.01873 -0.225761,-0.0777 -0.330846,-0.177332 z"
     id="path1571" />
  <path
     style="opacity:0.8;fill:#89b4fa;stroke:#f2f2f2;stroke-width:0;stroke-linecap:round;stroke-dasharray:none;paint-order:markers fill stroke"
     d="m 24.919749,7.0729042 1e-6,-1.3435856 c 0.018,-0.343766 0.07034,-0.5477002 0.419093,-0.791963 0.394481,-0.2556245 0.874518,-0.218963 1.212103,0.1158768 l 0.807635,0.8081035 c 0.06228,0.2429736 0.04462,0.4919598 -0.09776,0.750325 -0.202406,0.327807 -0.485813,0.4670398 -0.825816,0.47451 z"
     id="path1936" />
</svg>
