<?xml version="1.0" encoding="UTF-8" standalone="no"?>
<svg
   width="48"
   height="48"
   viewBox="0 0 32 32"
   fill="none"
   version="1.1"
   id="svg4"
   xmlns="http://www.w3.org/2000/svg"
   xmlns:svg="http://www.w3.org/2000/svg">
  <defs
     id="defs8" />
  <path
     d="m 16,23.9875 c -2.118391,0 -4.150092,-0.841563 -5.648014,-2.339486 C 8.8540417,20.150092 8.0125,18.118391 8.0125,16 c 0,-1.33125 0.3328125,-2.622562 0.931875,-3.7275 L 7.00075,10.328875 C 5.962375,11.966313 5.35,13.909938 5.35,16 c 0,2.824593 1.1220521,5.53342 3.1193105,7.530721 C 10.46658,25.527916 13.175407,26.65 16,26.65 v 3.99375 l 5.325,-5.325 L 16,19.99375 Z M 16,5.35 V 1.35625 l -5.325,5.325 5.325,5.325 V 8.0125 c 2.118391,0 4.150092,0.8415417 5.648014,2.339486 C 23.145937,11.849908 23.9875,13.881609 23.9875,16 c 0,1.33125 -0.332813,2.622562 -0.931875,3.7275 l 1.943625,1.943625 C 26.037625,20.033687 26.65,18.090062 26.65,16 26.65,13.175407 25.527916,10.46658 23.530721,8.4693105 21.53342,6.4720521 18.824593,5.35 16,5.35 Z"
     fill="#f2f2f2"
     id="path2"
     style="stroke-width:1.065" />
</svg>
