<?xml version="1.0" encoding="UTF-8" standalone="no"?>
<svg
   width="48"
   height="48"
   viewBox="0 0 32 32"
   fill="none"
   version="1.1"
   id="svg10"
   xmlns="http://www.w3.org/2000/svg"
   xmlns:svg="http://www.w3.org/2000/svg">
  <defs
     id="defs14" />
  <path
     style="opacity:0.8;fill:#89b4fa;stroke:#f2f2f2;stroke-width:0;stroke-linecap:round"
     d="M 5.5698514,24.939004 H 21.001764 c 0.671574,-0.01859 1.335436,0.130279 1.996571,0.338325 0.970846,0.291606 1.618816,0.873532 2.288116,1.436278 l 1.601254,1.601123 c 0.181196,0.20737 0.230705,0.420516 0.158607,0.638988 -0.156792,0.414686 -0.391334,0.38573 -0.609564,0.449856 H 9.4422836 C 8.6399918,29.462794 7.6234545,29.033264 7.2263985,28.761825 6.9232834,28.569324 6.7022352,28.378951 6.510602,28.189339 L 4.8933106,26.572144 c -0.2976199,-0.346683 -0.353575,-0.692984 -0.2088727,-1.03897 0.1686403,-0.4042 0.4867224,-0.564868 0.8854135,-0.59417"
     id="path360" />
  <g
     style="mix-blend-mode:normal"
     id="g6"
     transform="matrix(1.2756978,0,0,1.2755917,-3.7563419,-3.7618358)">
    <path
       fill-rule="evenodd"
       clip-rule="evenodd"
       d="M 8,4.00002 7.87311,4.00398 C 5.71476,4.07143 4,5.84061 4,8.00002 V 18 l 0.13452,1.547 c 0.07668,0.8818 0.26455,1.7504 0.55913,2.585 l 0.11762,0.3333 c 0.12424,0.352 0.32574,0.6717 0.58971,0.9357 l 2.22731,2.2273 c 0.24513,0.2451 0.53856,0.4366 0.86165,0.5622 l 0.03856,0.015 c 1.14004,0.4434 2.3447,0.6978 3.5667,0.7534 L 13,27 h 10 l 0.4118,-0.0686 C 25.3712,26.6048 26.8533,24.981 27,23 V 13 L 26.9089,9.90196 C 26.8873,9.16827 26.5573,8.4777 26,8.00002 l -3,-3 c -1.0625,-0.65383 -2.2855,-1 -3.533,-1 H 18 Z M 9.5,13.5 v 8.5 1 c 0,1.6569 1.3431,3 3,3 h 1 9 c 1.8702,-0.1439 3.3561,-1.6298 3.5,-3.5 V 13.4676 12.5 c 0,-1.6569 -1.3431,-3 -3,-3 h -1 -8.5 -1 c -1.6569,0 -3,1.3431 -3,3 z M 6.97855,5.85355 C 6.66357,5.53857 6.88665,5 7.33211,5 H 20.6538 c 0.862,0 1.6886,0.34241 2.2981,0.9519 l 1.2678,1.26777 C 24.6921,7.69214 24.3575,8.5 23.6893,8.5 H 11.5925 C 10.3327,8.5 9.12456,7.99956 8.23376,7.10876 Z M 5,7.20711 C 5,6.76165 5.53857,6.53857 5.85355,6.85355 L 7.10876,8.10876 C 7.99956,8.99956 8.5,10.2077 8.5,11.4675 v 12.0968 c 0,0.6682 -0.80786,1.0028 -1.28033,0.5304 L 5.9519,22.8269 C 5.34241,22.2174 5,21.3908 5,20.5288 Z"
       fill="#f2f2f2"
       id="path4" />
  </g>
  <path
     fill-rule="evenodd"
     clip-rule="evenodd"
     d="m 25.584709,30.679166 0.161885,-0.005 c 2.75334,-0.086 4.940906,-2.34277 4.940906,-5.097283 V 12.820881 l -0.171581,-1.97334 C 30.418076,9.7227251 30.178369,8.6148098 29.802676,7.5501244 L 29.652526,7.1250335 C 29.494084,6.6759997 29.237032,6.2681548 28.900248,5.9314367 L 26.058886,3.0902986 C 25.746211,2.7776129 25.371922,2.533388 24.959745,2.37311 L 24.910507,2.353976 C 23.456205,1.7884552 21.919373,1.4638681 20.36047,1.3930218 L 19.206219,1.3405567 H 6.4492409 L 5.9239084,1.4281006 C 3.4243699,1.8446577 1.5336455,3.9160275 1.3464495,6.4429235 V 19.198841 l 0.1162417,3.951912 c 0.027529,0.935772 0.4485099,1.816696 1.1594561,2.426046 l 3.8270936,3.826775 c 1.355378,0.833983 2.9156072,1.275592 4.5070421,1.275592 H 12.82773 Z M 23.671162,18.561045 V 7.7185154 6.4429235 c 0,-2.113464 -1.71339,-3.8267751 -3.827094,-3.8267751 H 18.568371 7.0870897 C 4.7013181,2.7996549 2.8056692,4.6951461 2.6221473,7.0807195 v 11.5216535 1.234264 c 0,2.113529 1.7134535,3.826775 3.8270936,3.826775 h 1.2756978 10.8434323 1.275697 c 2.113704,0 3.827094,-1.713246 3.827094,-3.826775 z m 3.216543,9.753685 c 0.401846,0.401811 0.117238,1.088844 -0.450957,1.088844 H 9.4422836 c -1.0996008,0 -2.1541565,-0.436762 -2.9316816,-1.214235 L 4.8933106,26.572144 c -0.6027291,-0.60259 -0.1758552,-1.63314 0.6765408,-1.63314 H 21.001764 c 1.607124,0 3.148295,0.638306 4.284687,1.774603 z m 2.524096,-1.726514 c 0,0.568149 -0.687091,0.852733 -1.088935,0.450922 L 26.72161,25.438015 c -1.136391,-1.136298 -1.774752,-2.67734 -1.774752,-4.28433 V 5.723056 c 0,-0.8523247 1.030637,-1.2791632 1.633278,-0.6764846 l 1.617329,1.6171571 c 0.777538,0.7774605 1.214336,1.8319282 1.214336,2.9314373 z"
     fill="#f2f2f2"
     fill-opacity="0.4"
     id="path8"
     style="stroke-width:1.27565" />
</svg>
