<?xml version="1.0" encoding="UTF-8" standalone="no"?>
<svg
   width="48"
   height="48"
   viewBox="0 0 32 32"
   fill="none"
   version="1.1"
   id="svg2724"
   sodipodi:docname="view-left.svg"
   inkscape:version="1.2.2 (b0a8486541, 2022-12-01)"
   xmlns:inkscape="http://www.inkscape.org/namespaces/inkscape"
   xmlns:sodipodi="http://sodipodi.sourceforge.net/DTD/sodipodi-0.dtd"
   xmlns="http://www.w3.org/2000/svg"
   xmlns:svg="http://www.w3.org/2000/svg">
  <sodipodi:namedview
     id="namedview4290"
     pagecolor="#505050"
     bordercolor="#ffffff"
     borderopacity="1"
     inkscape:showpageshadow="0"
     inkscape:pageopacity="0"
     inkscape:pagecheckerboard="1"
     inkscape:deskcolor="#505050"
     showgrid="false"
     inkscape:zoom="22.833333"
     inkscape:cx="24"
     inkscape:cy="24.021898"
     inkscape:window-width="2560"
     inkscape:window-height="1369"
     inkscape:window-x="0"
     inkscape:window-y="0"
     inkscape:window-maximized="1"
     inkscape:current-layer="svg2724" />
  <defs
     id="defs2728" />
  <g
     style="mix-blend-mode:normal"
     id="g2718"
     transform="matrix(1.2745856,0,0,1.2733046,-3.7430543,-3.7379303)">
    <path
       fill-rule="evenodd"
       clip-rule="evenodd"
       d="M 8,4.00002 7.87311,4.00398 C 5.71476,4.07143 4,5.84061 4,8.00002 V 18 l 0.13452,1.547 c 0.07668,0.8818 0.26455,1.7504 0.55913,2.585 l 0.11762,0.3333 c 0.12424,0.352 0.32574,0.6717 0.58971,0.9357 l 2.22731,2.2273 c 0.24513,0.2451 0.53856,0.4366 0.86165,0.5622 l 0.03856,0.015 c 1.14004,0.4434 2.3447,0.6978 3.5667,0.7534 L 13,27 h 10 l 0.4118,-0.0686 C 25.3712,26.6048 26.8533,24.981 27,23 V 13 L 26.9089,9.90196 C 26.8873,9.16827 26.5573,8.4777 26,8.00002 l -3,-3 c -1.0625,-0.65383 -2.2855,-1 -3.533,-1 H 18 Z M 9.5,13.5 v 8.5 1 c 0,1.6569 1.3431,3 3,3 h 1 9 c 1.8702,-0.1439 3.3561,-1.6298 3.5,-3.5 V 13.4676 12.5 c 0,-1.6569 -1.3431,-3 -3,-3 h -1 -8.5 -1 c -1.6569,0 -3,1.3431 -3,3 z M 6.97855,5.85355 C 6.66357,5.53857 6.88665,5 7.33211,5 H 20.6538 c 0.862,0 1.6886,0.34241 2.2981,0.9519 l 1.2678,1.26777 C 24.6921,7.69214 24.3575,8.5 23.6893,8.5 H 11.5925 C 10.3327,8.5 9.12456,7.99956 8.23376,7.10876 Z M 5,7.20711 C 5,6.76165 5.53857,6.53857 5.85355,6.85355 L 7.10876,8.10876 C 7.99956,8.99956 8.5,10.2077 8.5,11.4675 v 12.0968 c 0,0.6682 -0.80786,1.0028 -1.28033,0.5304 L 5.9519,22.8269 C 5.34241,22.2174 5,21.3908 5,20.5288 Z"
       fill="#f2f2f2"
       id="path2716" />
  </g>
  <path
     fill-rule="evenodd"
     clip-rule="evenodd"
     d="m 25.572414,30.641293 0.161745,-0.0051 c 2.750937,-0.08578 4.936597,-2.338505 4.936597,-5.088079 V 12.815029 l -0.171432,-1.969802 c -0.09776,-1.1228 -0.337255,-2.2287287 -0.71262,-3.2915051 L 29.636685,7.1293931 C 29.478381,6.6811645 29.221552,6.2740508 28.885062,5.9379366 L 26.046178,3.1018926 C 25.733777,2.7897675 25.359813,2.5459806 24.947995,2.3859898 l -0.0492,-0.0191 C 23.445767,1.8023835 21.910275,1.4783783 20.352731,1.407659 L 19.199486,1.355288 H 6.4536303 L 5.928756,1.4426749 C 3.4313968,1.8584852 1.5423207,3.9261408 1.355288,6.4485063 V 19.181552 l 0.1161403,3.944824 c 0.027505,0.934097 0.4481188,1.813442 1.1584453,2.421699 l 3.8237567,3.819914 c 1.3541962,0.832486 2.9130654,1.273304 4.5031107,1.273304 h 1.869817 z M 23.660536,18.5449 V 7.7218109 6.4485063 c 0,-2.1096747 -1.711896,-3.8199137 -3.823758,-3.8199137 H 18.562193 7.0909232 C 4.7072314,2.8117702 2.8132355,4.7038625 2.6298736,7.0851586 v 11.5009964 1.232049 c 0,2.109738 1.7119596,3.819914 3.8237567,3.819914 h 1.2745856 10.8339771 1.274585 c 2.111862,0 3.823758,-1.710176 3.823758,-3.819914 z m 3.213739,9.736196 c 0.401495,0.40109 0.117136,1.086893 -0.450566,1.086893 H 9.444063 c -1.0986418,0 -2.152278,-0.43598 -2.9291251,-1.212059 L 4.8990565,26.541635 C 4.2968531,25.940126 4.7233549,24.911422 5.5750074,24.911422 H 20.993466 c 1.605722,0 3.145549,0.637162 4.28095,1.771422 z m 2.521896,-1.723418 c 0,0.56713 -0.686492,0.851204 -1.087987,0.450113 L 26.708325,25.409539 C 25.572924,24.27528 24.935121,22.737 24.935121,21.132891 V 5.7299296 c 0,-0.8507967 1.029738,-1.2768699 1.631852,-0.6752716 l 1.61592,1.6142572 c 0.77686,0.7760665 1.213278,1.8286438 1.213278,2.9261814 z"
     fill="#f2f2f2"
     fill-opacity="0.4"
     id="path2720"
     style="stroke-width:1.27395" />
  <path
     style="opacity:0.8;fill:#89b4fa;stroke:#f2f2f2;stroke-width:0;stroke-linecap:round;paint-order:markers fill stroke"
     d="M 2.6298736,22.401485 V 5.4389158 C 2.6349491,5.2132953 2.7269284,5.0252829 2.942569,4.8907887 3.2747803,4.7192592 3.5104104,4.8149229 3.7177961,4.9887258 L 5.3176687,6.5869909 C 5.8815978,7.1382608 6.3332478,7.8258836 6.6713704,8.6513759 6.9379977,9.3192274 7.0842976,10.053126 7.0909232,10.86369 V 26.266601 C 7.0896771,26.550185 6.9847793,26.804539 6.7288796,27.016305 6.4433443,27.227882 6.1364918,27.272241 5.8107027,27.168057 5.5227434,27.115423 4.5264808,25.983019 3.8431516,25.327666 3.5033987,24.949633 3.1658141,24.565894 2.9234175,23.931565 2.7175209,23.438038 2.6410545,22.924747 2.6298736,22.401485 Z"
     id="path3210" />
</svg>
