<?xml version="1.0" encoding="UTF-8" standalone="no"?>
<svg
   width="48"
   height="48"
   viewBox="0 0 32 32"
   fill="none"
   version="1.1"
   id="svg18"
   xmlns="http://www.w3.org/2000/svg"
   xmlns:svg="http://www.w3.org/2000/svg">
  <defs
     id="defs22" />
  <path
     d="m 1.323601,1.36253 h 9.777778 l -9.777778,9.77129 z"
     fill="#f2f2f2"
     id="path2"
     style="stroke-width:1.22182" />
  <path
     d="m 30.656934,30.676399 h -9.777778 l 9.777778,-9.77129 z"
     fill="#f2f2f2"
     id="path4"
     style="stroke-width:1.22182" />
  <path
     d="m 30.656934,1.36253 v 9.77129 L 20.879156,1.36253 Z"
     fill="#f2f2f2"
     id="path6"
     style="stroke-width:1.22182" />
  <path
     d="m 1.323601,30.676399 v -9.77129 l 9.777778,9.77129 z"
     fill="#f2f2f2"
     id="path8"
     style="stroke-width:1.22182" />
  <rect
     x="4.849123"
     y="-1.1936649"
     width="9.7745342"
     height="2.4436336"
     transform="matrix(0.70734142,0.70687207,-0.70734142,0.70687207,0,0)"
     fill="#f2f2f2"
     id="rect10"
     style="stroke-width:1.22182" />
  <rect
     x="-40.542366"
     y="-1.2499622"
     width="9.7745342"
     height="2.4436336"
     transform="matrix(-0.70734142,-0.70687207,0.70734142,-0.70687207,0,0)"
     fill="#f2f2f2"
     id="rect12"
     style="stroke-width:1.22182" />
  <rect
     x="-17.818457"
     y="-23.917557"
     width="9.7745342"
     height="2.4436336"
     transform="matrix(-0.70734142,0.70687207,-0.70734142,-0.70687207,0,0)"
     fill="#f2f2f2"
     id="rect14"
     style="stroke-width:1.22182" />
  <rect
     x="-17.874788"
     y="21.47393"
     width="9.7745342"
     height="2.4436336"
     transform="matrix(0.70734142,-0.70687207,0.70734142,0.70687207,0,0)"
     fill="#f2f2f2"
     id="rect16"
     style="stroke-width:1.22182" />
</svg>
