<?xml version="1.0" encoding="UTF-8" standalone="no"?>
<svg
   width="48"
   height="48"
   viewBox="0 0 32 32"
   fill="none"
   version="1.1"
   id="svg10"
   sodipodi:docname="view-top.svg"
   inkscape:version="1.2.2 (b0a8486541, 2022-12-01)"
   xmlns:inkscape="http://www.inkscape.org/namespaces/inkscape"
   xmlns:sodipodi="http://sodipodi.sourceforge.net/DTD/sodipodi-0.dtd"
   xmlns="http://www.w3.org/2000/svg"
   xmlns:svg="http://www.w3.org/2000/svg">
  <sodipodi:namedview
     id="namedview3795"
     pagecolor="#505050"
     bordercolor="#ffffff"
     borderopacity="1"
     inkscape:showpageshadow="0"
     inkscape:pageopacity="0"
     inkscape:pagecheckerboard="1"
     inkscape:deskcolor="#505050"
     showgrid="false"
     inkscape:zoom="22.833333"
     inkscape:cx="24"
     inkscape:cy="24.021898"
     inkscape:window-width="2560"
     inkscape:window-height="1369"
     inkscape:window-x="0"
     inkscape:window-y="0"
     inkscape:window-maximized="1"
     inkscape:current-layer="svg10" />
  <defs
     id="defs14" />
  <g
     style="mix-blend-mode:normal"
     id="g4"
     transform="matrix(1.2735005,0,0,1.2728235,-3.7314716,-3.7287638)">
    <path
       fill-rule="evenodd"
       clip-rule="evenodd"
       d="M 8,4.00001 7.87311,4.00397 C 5.71476,4.07142 4,5.8406 4,8.00001 V 18 l 0.047268,1.607135 c 0,0.977144 0.00215,2.073626 0.3116829,2.567296 l 0.2722719,0.436951 C 4.8958197,22.905715 5,22.999999 5.40098,23.401 l 2.22731,2.2273 c 0.24513,0.2451 0.53856,0.4366 0.86165,0.5622 l 0.03856,0.015 c 1.14004,0.4434 2.3447,0.6978 3.5667,0.7534 L 13,27 h 10 l 0.4118,-0.0686 C 25.3712,26.6048 26.8533,24.981 27,23 V 13 L 26.9089,9.90195 C 26.8873,9.16826 26.5573,8.47769 26,8.00001 l -3,-3 c -1.0625,-0.65383 -2.2855,-1 -3.533,-1 H 18 Z M 9.5,13.5 v 8.5 1 c 0,1.6568 1.3431,3 3,3 h 1 9 c 1.8702,-0.1439 3.3561,-1.6298 3.5,-3.5 V 13.4676 12.5 C 26,10.8431 24.6569,9.49999 23,9.49999 h -1 -8.5 -1 c -1.6569,0 -3,1.34311 -3,3.00001 z M 6.97855,5.85355 C 6.66357,5.53856 6.88665,4.99999 7.33211,4.99999 H 20.6538 c 0.862,0 1.6886,0.34241 2.2981,0.95191 l 1.2678,1.26776 c 0.4724,0.47248 0.1378,1.28033 -0.5304,1.28033 H 11.5925 c -1.2598,0 -2.46794,-0.50044 -3.35874,-1.39124 z M 5,7.2071 C 5,6.7824827 5.53857,6.53856 5.85355,6.85355 l 1.25521,1.2552 C 7.99956,8.99955 8.5,10.2077 8.5,11.4675 v 12.0968 c 0,0.6682 -0.80786,1.0028 -1.28033,0.5304 L 5.9519,22.8269 C 5.34241,22.2174 5,21.3908 5,20.5288 Z"
       fill="#f2f2f2"
       id="path2" />
  </g>
  <path
     fill-rule="evenodd"
     clip-rule="evenodd"
     d="m 25.55904,30.63747 0.161607,-0.0051 c 2.748596,-0.08582 4.932395,-2.337704 4.932395,-5.086239 V 12.817941 L 30.481756,10.848883 C 30.384074,9.7265076 30.144788,8.6209967 29.769742,7.5586219 L 29.619851,7.1344534 C 29.461682,6.6863941 29.205071,6.2794343 28.868868,5.9434471 L 26.032399,3.1084747 C 25.720265,2.7964675 25.34662,2.5527726 24.935152,2.3928424 l -0.04916,-0.019092 C 23.434204,1.8094565 21.900018,1.4855738 20.3438,1.4148812 L 19.191538,1.36253 H 6.4565324 L 5.9321049,1.4498839 C 3.4368717,1.8655371 1.5494039,3.9324115 1.3625304,6.4538238 V 19.182058 l 0.1160414,3.943335 c 0.027483,0.933744 0.4477373,1.812755 1.1574591,2.420782 l 3.8205015,3.818471 c 1.3530433,0.832172 2.9105854,1.272824 4.4992776,1.272824 h 1.868225 z M 23.648789,18.545647 V 7.7266473 6.4538238 c 0,-2.1088775 -1.710438,-3.8184703 -3.820501,-3.8184703 H 18.554787 7.0932827 C 4.7116202,2.8184618 2.8192367,4.7098394 2.6360309,7.0902355 V 18.586887 19.81847 c 0,2.108942 1.7105022,3.818471 3.8205015,3.818471 h 1.2735005 10.8247541 1.273501 c 2.110063,0 3.820501,-1.709529 3.820501,-3.818471 z m 3.211004,9.732517 c 0.401153,0.40094 0.117035,1.086482 -0.450183,1.086482 H 9.4444192 c -1.0977065,0 -2.1504456,-0.435815 -2.9266315,-1.211601 L 4.903282,26.539359 C 4.3015913,25.938078 4.72773,24.909764 5.5786576,24.909764 H 20.983989 c 1.604356,0 3.142872,0.63692 4.277306,1.770752 z m 2.519748,-1.722767 c 0,0.566916 -0.685907,0.850883 -1.08706,0.449943 L 26.693984,25.407692 C 25.55955,24.273862 24.922289,22.736164 24.922289,21.13266 V 5.7355187 c 0,-0.8504753 1.028861,-1.2763874 1.630464,-0.6750165 l 1.614544,1.6136473 c 0.776198,0.7757732 1.212244,1.8279526 1.212244,2.9250759 z"
     fill="#f2f2f2"
     fill-opacity="0.4"
     id="path6"
     style="stroke-width:1.27316" />
  <path
     style="opacity:0.8;fill:#89b4fa;stroke:#f2f2f2;stroke-width:0.8;stroke-linecap:round;stroke-dasharray:none;stroke-opacity:1;paint-order:markers fill stroke"
     d="M 5.6059742,2.635341 22.965872,2.654182 c 0.288837,0.025316 0.539253,0.083828 0.779511,0.1511167 0.327669,0.096495 0.629959,0.2303628 0.912035,0.3939976 0.217658,0.1277211 0.433574,0.2784839 0.646702,0.4661228 l 1.808208,1.7951701 c 0.111529,0.1108039 0.19491,0.2456849 0.247696,0.4067367 v 0 c 0.06581,0.4304679 -0.01634,0.7766606 -0.309241,1.0028018 -0.132595,0.1093492 -0.283903,0.181999 -0.458843,0.2083008 L 11.031583,7.0902234 C 10.528902,7.0890487 10.082409,7.0302463 9.671104,6.9353554 9.3491309,6.8607833 9.0324627,6.760602 8.7216674,6.6320691 8.451865,6.5191895 8.1939502,6.3926493 7.9518034,6.2479894 7.5226656,5.9933545 7.121719,5.6870467 6.754226,5.3194203 L 5.1557154,3.7217722 v 0 C 5.0590586,3.6230426 4.9934372,3.5054808 4.9735637,3.360159 4.9607947,3.243709 4.972454,3.1317329 5.0185784,3.0260689 5.0737629,2.9112423 5.1383873,2.8188584 5.2188747,2.7641871 5.3214654,2.6885699 5.4424981,2.635737 5.6059742,2.635341"
     id="path981" />
</svg>
