<?xml version="1.0" encoding="UTF-8" standalone="no"?>
<svg
   width="48"
   height="48"
   viewBox="0 0 32 32"
   fill="none"
   version="1.1"
   id="svg10"
   xmlns="http://www.w3.org/2000/svg"
   xmlns:svg="http://www.w3.org/2000/svg">
  <defs
     id="defs14" />
  <g
     style="mix-blend-mode:normal"
     id="g6"
     transform="matrix(1.2710794,0,0,1.2719513,26.141336,-1.7245865)">
    <path
       fill-rule="evenodd"
       clip-rule="evenodd"
       d="m -15.436555,2.4213777 -0.12689,0.00396 c -2.15835,0.06745 -3.87311,1.83663 -3.87311,3.99604 v 9.9999903 l 0.13452,1.547 c 0.07668,0.8818 0.26455,1.7504 0.55913,2.585 l 0.11762,0.3333 c 0.12424,0.352 0.32574,0.6717 0.58971,0.9357 l 2.22731,2.2273 c 0.24513,0.2451 0.53856,0.4366 0.86165,0.5622 l 0.03856,0.015 c 1.14004,0.4434 2.3447,0.6978 3.5667,0.7534 l 0.9048,0.0411 h 10 l 0.4118,-0.0686 c 1.9594,-0.3266 3.4415,-1.9504 3.5882,-3.9314 v -10 l -0.0911,-3.0980503 c -0.0216,-0.73369 -0.3516,-1.42426 -0.9089,-1.90194 l -3,-3 c -1.0625,-0.65383 -2.2855,-1 -3.533,-1 h -1.467 z m 1.5,9.4999903 v 8.5 1 c 0,1.6568 1.3431,3 3,3 h 1 9 c 1.8702,-0.1439 3.3561,-1.6298 3.5,-3.5 v -9.0324 -0.9676 c 0,-1.6569003 -1.3431,-3.0000103 -3,-3.0000103 h -1 -8.5 -1 c -1.6569,0 -3,1.34311 -3,3.0000103 z m -2.52145,-7.6464603 c -0.31498,-0.31498 -0.0919,-0.85355 0.35356,-0.85355 h 13.32169 c 0.862,0 1.6886,0.34241 2.2981,0.95191 l 1.2678,1.26776 c 0.4724,0.47248 0.1378,1.28033 -0.5304,1.28033 h -12.0968 c -1.2598,0 -2.46794,-0.50044 -3.35874,-1.39124 z m -1.97855,1.35356 c 0,-0.44545 0.53857,-0.66854 0.85355,-0.35356 l 1.25521,1.25521 c 0.8908,0.8908 1.39124,2.09895 1.39124,3.35875 V 21.985668 c 0,0.6682 -0.80786,1.0028 -1.28033,0.5304 l -1.26777,-1.2678 c -0.60949,-0.6095 -0.9519,-1.4361 -0.9519,-2.2981 z"
       fill="#f2f2f2"
       id="path4" />
  </g>
  <path
     fill-rule="evenodd"
     clip-rule="evenodd"
     d="m 25.505795,30.612687 0.161301,-0.0051 c 2.74337,-0.08573 4.923017,-2.336065 4.923017,-5.082717 V 12.805368 L 30.419152,10.83766 C 30.321661,9.7160529 30.082825,8.6112996 29.708492,7.5496528 L 29.558886,7.125775 C 29.401018,6.6780227 29.144896,6.2713416 28.80933,5.9355847 L 25.978255,3.1025548 C 25.666714,2.7907614 25.29378,2.5472335 24.883094,2.3874129 L 24.834026,2.368334 C 23.384999,1.8044267 21.85373,1.4807659 20.300472,1.4101218 L 19.150398,1.3578065 H 6.4396053 L 5.9161749,1.4451005 C 3.4256856,1.8604689 1.5418061,3.925927 1.355288,6.4456117 V 19.165124 l 0.1158207,3.940633 c 0.02743,0.933103 0.4468861,1.811513 1.1552587,2.419124 l 3.8132379,3.815854 c 1.3504711,0.831603 2.9050519,1.271952 4.4907237,1.271952 h 1.864673 z M 23.599176,18.529149 V 7.717563 6.4456117 c 0,-2.1074325 -1.707187,-3.8158539 -3.813237,-3.8158539 H 18.514859 7.075145 C 4.6980106,2.8127407 2.8092249,4.7028222 2.6263674,7.0815873 V 18.57036 19.8011 c 0,2.107497 1.7072501,3.815855 3.8132379,3.815855 h 1.2710794 10.8041743 1.27108 c 2.10605,0 3.813237,-1.708358 3.813237,-3.815855 z m 3.2049,9.725849 c 0.40039,0.400664 0.116812,1.085737 -0.449327,1.085737 H 9.4218117 c -1.0956195,0 -2.1463573,-0.435515 -2.9210675,-1.210771 L 4.8893081,26.517385 c -0.6005469,-0.60087 -0.1752184,-1.62848 0.6740914,-1.62848 H 20.939443 c 1.601306,0 3.136897,0.636485 4.269174,1.769539 z m 2.514958,-1.721587 c 0,0.566527 -0.684603,0.850299 -1.084994,0.449636 L 26.638581,25.386493 C 25.506304,24.253438 24.870255,22.716794 24.870255,21.11439 V 5.7277987 c 0,-0.8498924 1.026905,-1.2755128 1.627364,-0.674554 l 1.611474,1.6125418 c 0.774723,0.7752415 1.209941,1.8267001 1.209941,2.9230713 z"
     fill="#f2f2f2"
     fill-opacity="0.4"
     id="path8"
     style="stroke-width:1.27151" />
  <path
     style="opacity:0.8;fill:#89b4fa;stroke:#f2f2f2;stroke-width:0;stroke-linecap:round"
     d="M 8.426868,25.522351 V 12.166862 C 8.6244475,9.953597 9.798853,8.5968719 12.240106,8.3509947 H 25.58644 c 2.034991,0.4089739 3.733096,1.1985238 3.813238,3.8158673 v 12.719513 c -0.300062,2.936063 -2.198771,3.909578 -4.448778,4.451829 H 12.240106 C 9.775072,29.064708 8.5994321,27.712944 8.426868,25.522351 Z"
     id="path354" />
  <path
     style="opacity:1;fill:none;stroke:#f2f2f2;stroke-width:1;stroke-linecap:round;stroke-dasharray:none"
     d="M 8.4268677,25.522351 V 12.166862 C 8.6244472,9.953597 9.7988527,8.5968719 12.240106,8.3509947 H 25.58644 c 2.034991,0.4089739 3.733096,1.1985238 3.813238,3.8158673 v 12.719513 c -0.300062,2.936063 -2.198771,3.909578 -4.448778,4.451829 H 12.240106 C 9.7750717,29.064708 8.5994318,27.712944 8.4268677,25.522351 Z"
     id="path354-3" />
</svg>
