<?xml version="1.0" encoding="UTF-8" standalone="no"?>
<svg
   width="48"
   height="48"
   viewBox="0 0 32 32"
   fill="none"
   version="1.1"
   id="svg6"
   xmlns="http://www.w3.org/2000/svg"
   xmlns:svg="http://www.w3.org/2000/svg">
  <defs
     id="defs10" />
  <g
     id="g303"
     transform="matrix(1.103565,0,0,1.1001798,-2.208823,-2.1529674)">
    <path
       d="M 12.7704,5.46754 C 12.9855,5.38023 12.924,5 12.6918,5 H 5 v 7.6918 c 0,0.2322 0.38023,0.2937 0.46754,0.0786 1.3444,-3.31276 3.9901,-5.95846 7.30286,-7.30286 z"
       fill="#f2f2f2"
       id="path2" />
    <path
       fill-rule="evenodd"
       clip-rule="evenodd"
       d="M 18,28 C 23.5228,28 28,23.5228 28,18 28,12.4772 23.5228,8 18,8 12.4772,8 8,12.4772 8,18 c 0,5.5228 4.4772,10 10,10 z m -1,-5 v 2 h 2 v -2 z m 3.17,-4.83 0.9,-0.92 C 21.64,16.68 22,15.88 22,15 c 0,-2.21 -1.79,-4 -4,-4 -2.21,0 -4,1.79 -4,4 h 2 c 0,-1.1 0.9,-2 2,-2 1.1,0 2,0.9 2,2 0,0.55 -0.22,1.05 -0.59,1.41 l -1.24,1.26 C 17.45,18.4 17,19.4 17,20.5 V 21 h 2 c 0,-1.5 0.45,-2.1 1.17,-2.83 z"
       fill="#f2f2f2"
       id="path4" />
  </g>
</svg>
