<?xml version="1.0" encoding="UTF-8" standalone="no"?>
<svg
   width="48"
   height="48"
   viewBox="0 0 32 32"
   fill="none"
   version="1.1"
   id="svg12"
   xmlns="http://www.w3.org/2000/svg"
   xmlns:svg="http://www.w3.org/2000/svg">
  <defs
     id="defs16" />
  <g
     id="g670"
     transform="matrix(0.97765722,0,0,0.97883223,0.36192038,0.34311977)">
    <rect
       x="9"
       y="9"
       width="14"
       height="14"
       stroke="#f2f2f2"
       stroke-width="2"
       stroke-dasharray="3, 3"
       id="rect2" />
    <rect
       x="8"
       y="8"
       width="16"
       height="16"
       fill="#4d4d4d"
       id="rect4" />
    <path
       fill-rule="evenodd"
       clip-rule="evenodd"
       d="m 8,8 h 4 v 2 h -2 v 2 H 8 Z m 0,12 v 4 h 4 v -2 h -2 v -2 z m 12,4 h 4 v -4 h -2 v 2 H 20 Z M 24,12 V 8 h -4 v 2 h 2 v 2 z M 14,8 v 2 h 4 V 8 Z m 10,6 h -2 v 4 h 2 z m -6,10 v -2 h -4 v 2 z M 8,18 h 2 V 14 H 8 Z"
       fill="#f2f2f2"
       id="path6" />
    <path
       d="M 31,9 V 3 C 31,1.89543 30.1046,1 29,1 h -6 v 3 h 4 c 0.5523,0 1,0.44772 1,1 v 4 z"
       fill="#f2f2f2"
       id="path8" />
    <path
       d="m 1,23 v 6 c 0,1.1046 0.89543,2 2,2 H 9 V 28 H 5 C 4.44772,28 4,27.5523 4,27 v -4 z"
       fill="#f2f2f2"
       id="path10" />
  </g>
</svg>
