<?xml version="1.0" encoding="UTF-8" standalone="no"?>
<svg
   width="48"
   height="48"
   viewBox="0 0 32 32"
   fill="none"
   version="1.1"
   id="svg14"
   xmlns="http://www.w3.org/2000/svg"
   xmlns:svg="http://www.w3.org/2000/svg">
  <defs
     id="defs18" />
  <path
     d="M 19.8571,7 H 7 V 19.8571 L 12.1429,25 H 25 V 12.1429 Z"
     fill="#4d4d4d"
     id="path6" />
  <g
     id="g312"
     transform="matrix(0.97449658,0,0,0.97735142,0.39582022,0.41743451)">
    <path
       d="M 31,9 V 3 C 31,1.89543 30.1046,1 29,1 h -6 v 3 h 4 c 0.5523,0 1,0.44772 1,1 v 4 z"
       fill="#f2f2f2"
       id="path2" />
    <path
       d="m 1,23 v 6 c 0,1.1046 0.89543,2 2,2 H 9 V 28 H 5 C 4.44772,28 4,27.5523 4,27 v -4 z"
       fill="#f2f2f2"
       id="path4" />
    <path
       fill-rule="evenodd"
       clip-rule="evenodd"
       d="M 23,12.3999 19.6001,9 H 9 V 19.6001 L 12.3999,23 H 23 Z M 11.5714,25 7,20.4286 V 7 H 20.4286 L 25,11.5714 V 25 Z"
       fill="#f2f2f2"
       id="path8" />
  </g>
  <path
     d="M 24,12 H 12 v 12"
     stroke="#f2f2f2"
     id="path10" />
  <path
     d="m 8,8 4,4"
     stroke="#f2f2f2"
     id="path12" />
</svg>
